<svg xmlns="http://www.w3.org/2000/svg" xmlns:xlink="http://www.w3.org/1999/xlink" width="149.46" height="104.68" viewBox="0 0 149.46 104.68"><defs><clipPath id="a" transform="translate(0 0)"><rect width="149.46" height="104.68" fill="none"/></clipPath></defs><title>sa-flag</title><g clip-path="url(#a)"><g clip-path="url(#a)"><rect width="149.46" height="104.68" fill="#fff"/><polygon points="0 7.25 37.78 52.52 0 97.69 0 104.68 3.8 104.68 46.63 53.03 2.66 0 0 0 0 7.25" fill="#ffb819"/><polygon points="0 0.21 43.61 52.59 0.23 104.68 30.64 104.68 62.67 67.02 149.46 67.02 149.46 38.15 62.67 38.15 30.23 0 0 0 0 0.21" fill="#007549"/><polygon points="35.82 0 64.38 34.67 149.46 34.68 149.46 0 35.82 0" fill="#e63c2f"/><polygon points="149.46 104.68 149.46 70.22 64.5 70.22 35.65 104.68 149.46 104.68" fill="#001689"/><polygon points="37.78 52.52 0 7.34 0 97.83 37.78 52.52" fill="#231f20"/></g></g></svg>