<svg xmlns="http://www.w3.org/2000/svg" width="149.55" height="95.81" viewBox="0 0 149.55 95.81"><title>uk-flag</title><rect width="149.55" height="95.81" fill="#0d0d86"/><polygon points="0 95.81 17.18 95.81 149.55 10.75 149.55 0 133.93 0 0 85.56 0 95.81" fill="#fff"/><polygon points="16.42 0 0 0 0 10.24 133.16 95.81 149.55 95.81 149.55 85.05 16.42 0" fill="#fff"/><polygon points="0 95.43 0 95.81 10.35 95.81 72.02 56.52 66.48 52.96 0 95.43" fill="#bf0000"/><polygon points="138.14 0 77.28 38.88 82.85 42.44 149.46 0 138.14 0" fill="#bf0000"/><polygon points="0 7.59 39.12 32.82 51.73 32.82 0.36 0 0 0 0 7.59" fill="#bf0000"/><polygon points="149.55 87.74 110.8 62.99 99.53 62.99 149.55 94.92 149.55 87.74" fill="#bf0000"/><polygon points="149.55 32.82 87.37 32.82 87.37 0 62.18 0 62.18 32.82 0 32.82 0 62.99 62.18 62.99 62.18 95.81 87.37 95.81 87.37 62.99 149.55 62.99 149.55 32.82" fill="#fff"/><rect y="38.48" width="149.55" height="18.86" fill="#bf0000"/><rect x="67.86" width="13.83" height="95.81" fill="#bf0000"/></svg>