<svg xmlns="http://www.w3.org/2000/svg" xmlns:xlink="http://www.w3.org/1999/xlink" width="1444" height="391.25" viewBox="0 0 1444 391.25"><defs><linearGradient id="aaf7f2d0-77fd-4cf0-9f2c-aebd7ba74483" x1="424.79" y1="617.47" x2="424.79" y2="616.49" gradientTransform="matrix(-1440, 0, 0, 389.25, 612424, -239960.01)" gradientUnits="userSpaceOnUse"><stop offset="0" stop-color="#984af9" stop-opacity="0"/><stop offset="1" stop-color="#5eceb1" stop-opacity="0.36"/></linearGradient></defs><title>line-chart-bg</title><g id="bfec9ff3-c9f0-4437-8904-52f6f75345a3" data-name="Layer 2"><g id="fbcfa636-5e62-4cc3-9321-73019aaea9cb" data-name="Layer 1"><g id="e290e2aa-7a44-4dbb-b8be-6c837028f331" data-name="Header"><g id="b1068ec7-f274-4c3f-90f3-fba78fb4b2b6" data-name="Line-chart"><path id="e28efa86-b71b-4603-a4b8-dc19cb4f8119" data-name="Path-2" stroke-linejoin="round" fill="none" stroke="#5eceb1" stroke-linecap="round" d="M1442,2c-85.65,7.67-64.87,63-202,63s-122.58,38.62-248,38.62-132.48,30.06-270,30.06-100.2,19.89-247.31,19.89c-121.3,0-136.33,16.61-191.19,46.59Q196.86,247.5,2,241.45" stroke-opacity="0.8" stroke-width="4" opacity="0.79" style="isolation:isolate"/><path d="M1247,65.2c-137.51,0-129.22,38.42-255,38.42s-124.26,27.89-270,30.06c-149,2.21-102,17.21-247.31,19.89C353.07,155.81,338.51,165.39,283.5,197Q196.62,246.92,2,243.4V391.25H1442V2C1356.11,10.08,1384.5,65.2,1247,65.2Z" opacity="0.43" fill="url(#aaf7f2d0-77fd-4cf0-9f2c-aebd7ba74483)" style="isolation:isolate"/></g></g></g></g></svg>