<svg xmlns="http://www.w3.org/2000/svg" width="97.16" height="97.16" viewBox="0 0 97.16 97.16"><title>administrator</title><g id="Layer_2" data-name="Layer 2"><g id="Layer_1-2" data-name="Layer 1"><circle cx="48.58" cy="48.58" r="47.58" fill="none" stroke="#00b087" stroke-miterlimit="10" stroke-width="2"/><rect x="42.27" y="60.31" width="2.31" height="2.63" fill="#00b087"/><rect x="47.27" y="60.31" width="2.31" height="2.63" fill="#00b087"/><rect x="52.32" y="60.31" width="2.31" height="2.63" fill="#00b087"/><rect x="42.27" y="55.8" width="2.31" height="2.63" fill="#00b087"/><rect x="47.27" y="55.8" width="2.31" height="2.63" fill="#00b087"/><rect x="52.32" y="55.8" width="2.31" height="2.63" fill="#00b087"/><rect x="42.27" y="51.34" width="2.31" height="2.63" fill="#00b087"/><rect x="47.27" y="51.34" width="2.31" height="2.63" fill="#00b087"/><rect x="52.32" y="51.34" width="2.31" height="2.63" fill="#00b087"/><rect x="42.27" y="46.83" width="2.31" height="2.63" fill="#00b087"/><rect x="47.27" y="46.83" width="2.31" height="2.63" fill="#00b087"/><rect x="52.32" y="46.83" width="2.31" height="2.63" fill="#00b087"/><rect x="42.27" y="42.37" width="2.31" height="2.63" fill="#00b087"/><rect x="47.27" y="42.37" width="2.31" height="2.63" fill="#00b087"/><rect x="52.32" y="42.37" width="2.31" height="2.63" fill="#00b087"/><rect x="42.27" y="37.85" width="2.31" height="2.63" fill="#00b087"/><rect x="47.27" y="37.85" width="2.31" height="2.63" fill="#00b087"/><rect x="52.32" y="37.85" width="2.31" height="2.63" fill="#00b087"/><rect x="42.27" y="33.39" width="2.31" height="2.63" fill="#00b087"/><rect x="47.27" y="33.39" width="2.31" height="2.63" fill="#00b087"/><rect x="52.32" y="33.39" width="2.31" height="2.63" fill="#00b087"/><rect x="42.27" y="28.88" width="2.31" height="2.63" fill="#00b087"/><rect x="47.27" y="28.88" width="2.31" height="2.63" fill="#00b087"/><rect x="52.32" y="28.88" width="2.31" height="2.63" fill="#00b087"/><rect x="34.8" y="67.62" width="2.31" height="2.63" fill="#00b087"/><rect x="29.86" y="67.62" width="2.31" height="2.63" fill="#00b087"/><rect x="34.8" y="63.16" width="2.31" height="2.63" fill="#00b087"/><rect x="29.86" y="63.16" width="2.31" height="2.63" fill="#00b087"/><rect x="34.8" y="58.65" width="2.31" height="2.63" fill="#00b087"/><rect x="29.86" y="58.65" width="2.31" height="2.63" fill="#00b087"/><rect x="34.8" y="54.19" width="2.31" height="2.63" fill="#00b087"/><rect x="29.86" y="54.19" width="2.31" height="2.63" fill="#00b087"/><rect x="34.8" y="49.67" width="2.31" height="2.63" fill="#00b087"/><rect x="29.86" y="49.67" width="2.31" height="2.63" fill="#00b087"/><rect x="34.8" y="45.21" width="2.31" height="2.63" fill="#00b087"/><rect x="29.86" y="45.21" width="2.31" height="2.63" fill="#00b087"/><rect x="34.8" y="40.7" width="2.31" height="2.63" fill="#00b087"/><rect x="29.86" y="40.7" width="2.31" height="2.63" fill="#00b087"/><rect x="34.8" y="36.24" width="2.31" height="2.63" fill="#00b087"/><rect x="29.86" y="36.24" width="2.31" height="2.63" fill="#00b087"/><rect x="59.79" y="67.62" width="2.31" height="2.63" fill="#00b087"/><rect x="64.73" y="67.62" width="2.31" height="2.63" fill="#00b087"/><rect x="59.79" y="63.16" width="2.31" height="2.63" fill="#00b087"/><rect x="64.73" y="63.16" width="2.31" height="2.63" fill="#00b087"/><rect x="59.79" y="58.65" width="2.31" height="2.63" fill="#00b087"/><rect x="64.73" y="58.65" width="2.31" height="2.63" fill="#00b087"/><rect x="59.79" y="54.19" width="2.31" height="2.63" fill="#00b087"/><rect x="64.73" y="54.19" width="2.31" height="2.63" fill="#00b087"/><rect x="59.79" y="49.67" width="2.31" height="2.63" fill="#00b087"/><rect x="64.73" y="49.67" width="2.31" height="2.63" fill="#00b087"/><rect x="59.79" y="45.21" width="2.31" height="2.63" fill="#00b087"/><rect x="64.73" y="45.21" width="2.31" height="2.63" fill="#00b087"/><rect x="59.79" y="40.7" width="2.31" height="2.63" fill="#00b087"/><rect x="64.73" y="40.7" width="2.31" height="2.63" fill="#00b087"/><rect x="59.79" y="36.24" width="2.31" height="2.63" fill="#00b087"/><rect x="64.73" y="36.24" width="2.31" height="2.63" fill="#00b087"/><path d="M70.05,72.51V33.66L57.59,32.05v-5.8H52.53l-.42-.91a.82.82,0,0,0-.81-.54H48.83V21.2H48v3.54H45.44a.88.88,0,0,0-.8.54l-.43.91H39.16V32L26.69,33.61V72.45H25.08V73.8H71.61V72.45H70.05Zm-.81-38.15V72.51H57.59V32.86ZM40.12,27.05h4.79l.64-1.45v-.05h5.86l.64,1.5h4.78v45.4h-3.6V64.72H43.72v7.73h-3.6V27.05ZM52.37,72.51H48.88V65.58h3.49Zm-4.29,0h-3.5V65.58h3.5ZM27.66,34.36l11.66-1.5V72.51H27.66Z" fill="#00b087"/></g></g></svg>