<svg xmlns="http://www.w3.org/2000/svg" width="97.16" height="97.16" viewBox="0 0 97.16 97.16"><title>corporate</title><g id="Layer_2" data-name="Layer 2"><g id="Layer_1-2" data-name="Layer 1"><circle cx="48.58" cy="48.58" r="47.58" fill="none" stroke="#00b087" stroke-miterlimit="10" stroke-width="2"/><path d="M67.76,22.91A3.72,3.72,0,0,0,64.1,26H52.87a.7.7,0,0,0-.62.62V49H45.93a.64.64,0,0,0-.57.67.65.65,0,0,0,.68.57h6.21V72.55a.64.64,0,0,0,.62.62H64.1a3.72,3.72,0,1,0,0-1.24H53.49c0-1.29,0-15.82,0-21.71H64.1a3.73,3.73,0,1,0,0-1.24H53.49V27.26H64.1a3.72,3.72,0,1,0,3.66-4.35Zm0,1.25a2.48,2.48,0,1,1-2.48,2.48A2.47,2.47,0,0,1,67.76,24.16ZM33,28.5a5,5,0,1,0,5,5A5,5,0,0,0,33,28.5Zm0,1.24a3.73,3.73,0,1,1-3.72,3.72A3.72,3.72,0,0,1,33,29.74ZM26.83,40.91a2.54,2.54,0,0,0-1.88.76,2.48,2.48,0,0,0-.62,1.72c0,.08,4.55,26.78,4.55,26.78a.64.64,0,0,0,.62.52h7a.62.62,0,0,0,.62-.52l4.52-26.6h0a2.26,2.26,0,0,0-.6-1.9,2.55,2.55,0,0,0-1.88-.76Zm0,1.24H39.2a1.32,1.32,0,0,1,1,.37,1,1,0,0,1,.25.83v0L36,69.45H30L25.59,43.37v0a.93.93,0,0,1,.25-.83,1.31,1.31,0,0,1,1-.37Zm40.93,5a2.49,2.49,0,1,1-2.48,2.49A2.48,2.48,0,0,1,67.76,47.11Zm0,23a2.49,2.49,0,1,1-2.48,2.48A2.47,2.47,0,0,1,67.76,70.07Z" fill="#00b087"/></g></g></svg>