<svg xmlns="http://www.w3.org/2000/svg" width="97.16" height="97.16" viewBox="0 0 97.16 97.16"><title>fp</title><g id="Layer_2" data-name="Layer 2"><g id="Layer_1-2" data-name="Layer 1"><circle cx="48.58" cy="48.58" r="47.58" fill="none" stroke="#00b087" stroke-miterlimit="10" stroke-width="2"/><path d="M52.14,58.13c.1.1.2.1.4.1s.3,0,.4-.1l1.5-1.5,1.5,1.5c.1.1.2.1.4.1s.3,0,.4-.1a.48.48,0,0,0,0-.7l-1.5-1.5,1.5-1.5a.49.49,0,0,0-.7-.7l-1.5,1.5L53,53.73a.49.49,0,1,0-.7.7l1.5,1.5-1.7,1.5A.48.48,0,0,0,52.14,58.13Z" fill="#00b087"/><path d="M43.94,52.93a3,3,0,0,0-3,3,3,3,0,0,0,3,3,3,3,0,0,0,3-3A3,3,0,0,0,43.94,52.93Zm0,5a2,2,0,1,1,2-2A2,2,0,0,1,43.94,57.93Z" fill="#00b087"/><path d="M41.74,44.43a.48.48,0,0,0,0,.7l1.5,1.5-1.5,1.5a.48.48,0,0,0,0,.7c.1.1.2.1.4.1s.3,0,.4-.1l1.5-1.5,1.5,1.5c.1.1.2.1.4.1s.3,0,.4-.1a.48.48,0,0,0,0-.7l-1.5-1.5,1.5-1.5a.49.49,0,0,0-.7-.7l-1.7,1.5-1.5-1.5A.48.48,0,0,0,41.74,44.43Z" fill="#00b087"/><path d="M54.34,49.63a3,3,0,0,0,3-3,3,3,0,1,0-6,0A3,3,0,0,0,54.34,49.63Zm0-5a2,2,0,1,1-2,2A2,2,0,0,1,54.34,44.63Z" fill="#00b087"/><path d="M56.44,39.63l4.6-4.7v21.3a5.91,5.91,0,0,1-5.9,5.9H40.54a.37.37,0,0,0-.3.1,4.92,4.92,0,0,0-4.9-4.6,5,5,0,0,0-5,5,5,5,0,0,0,9.9.4.37.37,0,0,0,.3.1h14.7a6.91,6.91,0,0,0,6.9-6.9V35l4.6,4.6c.1.1.2.1.4.1s.3,0,.4-.1a.48.48,0,0,0,0-.7l-5.2-5.2c-.1-.1-.1-.1-.2-.1a.57.57,0,0,0-1,0,.35.35,0,0,0-.2.1l-5.2,5.2a.49.49,0,0,0,.7.7Zm-21.2,26.9a4,4,0,1,1,4-4A4,4,0,0,1,35.24,66.53Z" fill="#00b087"/><path d="M26.06,34.3a16.84,16.84,0,0,0,5.9-.8,9.48,9.48,0,0,0,5.3-5.1c.9-2.1.8-4.5.7-6.9,0-.7-.1-1.3-.1-1.9a.47.47,0,0,0-.5-.5c-.3,0-.4.1-.4.4a14.08,14.08,0,0,0,.1,2c.1,2.3.2,4.6-.7,6.5a8.49,8.49,0,0,1-4.8,4.5,18,18,0,0,1-7,.7h-1.4a.5.5,0,1,0,0,1h1.4C25.06,34.2,25.56,34.3,26.06,34.3Z" fill="#00b087"/><path d="M65.89,81.69H32.14a12,12,0,0,1-12-12V28.16c2.75-3.16,5.75-5.66,12-12H65.89a12,12,0,0,1,12,12V69.69A12,12,0,0,1,65.89,81.69Z" fill="none" stroke="#00b087" stroke-miterlimit="10" stroke-width="2"/></g></g></svg>