<svg xmlns="http://www.w3.org/2000/svg" width="97.16" height="97.16" viewBox="0 0 97.16 97.16"><title>individual</title><g id="Layer_2" data-name="Layer 2"><g id="Layer_1-2" data-name="Layer 1"><circle cx="48.58" cy="48.58" r="47.58" fill="none" stroke="#00b087" stroke-miterlimit="10" stroke-width="2"/><path d="M75,59.6a2.73,2.73,0,0,0-2.51-1.45h-.12a1.43,1.43,0,0,0,0-.44,2.24,2.24,0,0,0-1.34-1.84A4,4,0,0,0,66.37,57a39.55,39.55,0,0,1-5.8,3.8c-1.19-2.39-5-4-6.46-4.53a4.6,4.6,0,0,0,.11-1,2.87,2.87,0,0,0-1.58-2.75,4.37,4.37,0,0,0-.77-.28V49.41a6,6,0,0,0,1.65.24A5.45,5.45,0,0,0,57.37,48c1.43-1.4,2.47-3.68,3.1-6.78l.16-.8-.81.08c-3.83.33-6.49,1.4-8,3.17v-3a6,6,0,0,0,1.65.24,5.45,5.45,0,0,0,3.85-1.62c1.43-1.4,2.47-3.68,3.1-6.77l.16-.8-.81.07c-3.83.33-6.49,1.4-8,3.17v-.63A.65.65,0,0,0,51.8,34a4.11,4.11,0,0,0,1.64-2.71c.23-1.77-.72-3.75-2.84-5.88L50,24.87l-.39.72c-1.44,2.63-1.81,4.8-1.08,6.44a4,4,0,0,0,2.14,2.06.64.64,0,0,0,0,.24v3.5c-1.34-1.67-3.75-2.86-7.18-3.56l-.8-.16.07.81c.7,8,4.43,9.16,6.6,9.16a6.07,6.07,0,0,0,1.31-.14V52H37.49a18,18,0,0,0-8.37,3.64l-8.3.31a.61.61,0,0,0-.58.61V71.9a.61.61,0,0,0,.61.61H57A27.49,27.49,0,0,0,63,71a33.44,33.44,0,0,0,12-7.45l0-.06A3.59,3.59,0,0,0,75,59.6ZM52.52,44.87c1-1.59,3.29-2.64,6.58-3-1,4.32-3,6.6-5.58,6.6A4.89,4.89,0,0,1,52,48.17a4.9,4.9,0,0,1-.12-.88V47A4.23,4.23,0,0,1,52.52,44.87Zm0-8.73c1-1.6,3.29-2.64,6.58-3-1,4.33-3,6.6-5.58,6.6A4.61,4.61,0,0,1,52,39.43a4.9,4.9,0,0,1-.12-.88v-.32A4.17,4.17,0,0,1,52.52,36.14Zm-2.85-4.6c-.49-1.12-.26-2.7.65-4.62,1.41,1.58,2.06,3,1.91,4.24a2.76,2.76,0,0,1-1,1.81A2.85,2.85,0,0,1,49.67,31.54Zm.72,11.21a4.7,4.7,0,0,1-1,.12c-2.86,0-4.72-2.56-5.3-7.23,3.22.78,5.35,2.07,6.19,3.77a4.24,4.24,0,0,1,.42,1.7v.26A4.55,4.55,0,0,1,50.39,42.75Zm16.89,15a2.79,2.79,0,0,1,3.26-.8,1.07,1.07,0,0,1,.67.8c0,.28-.23.58-.67.86a5.74,5.74,0,0,0-1,.54c-1,.73-6,3.65-9.86,3.65h-.26C62.1,61.29,66.41,58.75,67.28,57.76Zm-7.76,3.6L57,62.81H43.58C43.25,62.75,41,62.29,41,61c0-1,.45-2.2,4-2.2h5.4a3.78,3.78,0,0,0,3.29-1.41C55.36,58,58.67,59.5,59.52,61.36Zm-38.06-4.2L26,57v14.3H21.46ZM74,62.75a31.66,31.66,0,0,1-17.08,8.54H27.19V57l2.16-.08a.62.62,0,0,0,.35-.12,17.54,17.54,0,0,1,7.88-3.52H50.36c2.37,0,2.64,1.13,2.64,2a2.78,2.78,0,0,1-.17,1.06.61.61,0,0,0-.07.14v0c-.3.57-1,1.1-2.43,1.1h-5.4c-3.44,0-5.18,1.15-5.18,3.42,0,2.49,3.53,3,3.68,3.07H59.71c4.18,0,9.39-3,10.55-3.86a4.33,4.33,0,0,1,2.25-.79A1.54,1.54,0,0,1,74,60.2,2.4,2.4,0,0,1,74,62.75Z" fill="#00b087"/><circle cx="23.67" cy="59.43" r="1" fill="#00b087"/></g></g></svg>