<svg xmlns="http://www.w3.org/2000/svg" width="216.01" height="45.31" viewBox="0 0 216.01 45.31"><title>morningstar</title><g id="Layer_2" data-name="Layer 2"><g id="Layer_3" data-name="Layer 3"><polygon points="108.58 1.28 112.48 1.28 112.48 44.13 108.58 44.13 108.58 1.28 108.58 1.28" fill="#e93d42"/><polygon points="162.26 1.28 174.7 1.28 174.7 4.85 170.47 4.85 170.47 44.13 166.56 44.13 166.56 4.85 162.26 4.85 162.26 1.28 162.26 1.28" fill="#e93d42"/><polygon points="105.02 1.28 105.02 44.13 100.94 44.13 95.1 18.1 95.1 44.13 91.27 44.13 91.27 1.28 94.79 1.28 101.19 29.66 101.19 1.28 105.02 1.28 105.02 1.28" fill="#e93d42"/><polygon points="20.25 1.28 20.25 44.13 16.42 44.13 16.42 7.4 11.7 44.13 8.51 44.13 3.86 7.4 3.86 44.13 0 44.13 0 1.28 6.52 1.28 10.26 27.11 13.78 1.28 20.25 1.28 20.25 1.28" fill="#e93d42"/><path d="M67.73,44.14a24.8,24.8,0,1,0-40,0h5.16a20.88,20.88,0,1,1,29.66,0Z" transform="translate(0 0)" fill="#e93d42"/><path d="M183.64,30.61,181.05,7l-2.39,23.63Zm5.17,13.52H185l-1-9.65h-5.71l-.93,9.65h-3.88l4.39-42.85h5.94l5,42.85Z" transform="translate(0 0)" fill="#e93d42"/><path d="M142.24,38.69c0,1.93-1.13,2.91-2.43,2.91s-2.44-1-2.44-2.91V6.32c0-1.93,1.14-2.91,2.44-2.91s2.43,1,2.43,2.91V16h3.92v-8C146.12,2.58,144,0,139.67,0c-3.88,0-6.4,2.76-6.4,7V37.14c0,5.49,2.13,8.17,6.5,8.17s6.39-2.63,6.39-8.28V21.44H139v3.75h3.28v13.5Z" transform="translate(0 0)" fill="#e93d42"/><path d="M158.31,37.66V26.52l-8.93-6.67V7.4c0-4.9,2.2-7.4,6.52-7.4s6.36,2.48,6.39,8v8h-4V6.32c0-1.93-1.12-2.91-2.41-2.91s-2.41,1-2.41,2.91V18l8.82,6.66V37.53c0,5-2.24,7.74-6.43,7.74s-6.45-2.55-6.48-7.46V27.73h4.1v11c0,1.93,1.12,2.91,2.41,2.91s2.41-1,2.41-2.91v-1Z" transform="translate(0 0)" fill="#e93d42"/><path d="M79.07,4.65v17h1.37c2.53,0,3.71-1.16,3.71-3.62V9.27c0-3.52-.81-4.62-3.41-4.62ZM88.9,44.13H85a12.94,12.94,0,0,1-.79-4.61l0-2.19,0-1.11V27.85a2.26,2.26,0,0,0-2.3-2.55H79.07V44.13H75.24V1.28h5C85.84,1.28,88,3.33,88,8.81v8c0,3.6-.61,5.12-3.43,6.16l.12,0c2.67.77,3.26,1.79,3.29,5.16l0,1.56V37.6a18.58,18.58,0,0,0,.9,6.53Z" transform="translate(0 0)" fill="#e93d42"/><path d="M193.66,4.65v17H195c2.53,0,3.72-1.16,3.72-3.62V9.27c0-3.52-.82-4.62-3.43-4.62Zm9.83,39.48h-3.91a12.94,12.94,0,0,1-.79-4.61l0-2.19V27.85a2.27,2.27,0,0,0-2.31-2.55h-2.78V44.13h-3.83V1.28h5c5.61,0,7.77,2.05,7.77,7.53v8c0,3.6-.61,5.12-3.42,6.16l.11,0c2.66.77,3.26,1.79,3.29,5.16l0,1.56V37.6a18.58,18.58,0,0,0,.9,6.53Z" transform="translate(0 0)" fill="#e93d42"/><polygon points="129.73 1.28 129.73 44.13 125.65 44.13 119.81 18.1 119.81 44.13 115.98 44.13 115.98 1.28 119.51 1.28 125.9 29.66 125.9 1.28 129.73 1.28 129.73 1.28" fill="#e93d42"/><path d="M206.85,5.61a4.33,4.33,0,1,1,4.33,4.33,4.33,4.33,0,0,1-4.33-4.33Zm-.49,0A4.83,4.83,0,1,0,211.18.78a4.83,4.83,0,0,0-4.82,4.83Z" transform="translate(0 0)" fill="#e93d42"/><path d="M210.13,5.45h1.42c.59,0,1-.19,1-.82s-.41-.83-1-.83h-1.42V5.45Zm-.63-2.2h2.15c.75,0,1.53.29,1.53,1.38A1.23,1.23,0,0,1,212.08,6L213.39,8h-.76l-1.29-2h-1.21V8h-.63V3.25Z" transform="translate(0 0)" fill="#e93d42"/></g></g></svg>