<svg xmlns="http://www.w3.org/2000/svg" width="51.72" height="63.74" viewBox="0 0 51.72 63.74"><title>add-own-doc</title><g id="a53478a9-89e2-4c42-bb3d-3f692dfd60f9" data-name="Layer 2"><g id="a78ac652-033d-4a67-9686-86c860ca538f" data-name="Layer 1"><path d="M16,0l-.07,0a.57.57,0,0,0-.22.15L.17,15.72l-.05,0a.58.58,0,0,0-.12.36V55a.58.58,0,0,0,.58.58h4v3.53a.58.58,0,0,0,.58.58h4v3.52a.58.58,0,0,0,.59.58H51.14a.58.58,0,0,0,.58-.58V8.79a.58.58,0,0,0-.58-.58h-4V4.69a.58.58,0,0,0-.59-.58h-4V.58a.58.58,0,0,0-.17-.41s0,0,0-.05l-.05,0A.53.53,0,0,0,42.12,0L42,0H16Zm.7,1.17H41.39V4.11H20.58l-.13,0-.12.1h0l0,0L16.71,7.85ZM15.55,2V9L9,15.55H2ZM21.3,5.27H46V8.21H25.17a.56.56,0,0,0-.29.17L21.3,12Zm-1.16.83v7l-3.43,3.42-3.08,3.11h-7l3-3,0,0h0l.05-.08h0l6.85-6.85.08-.09.82-.81Zm5.73,3.28H50.55v53.2H10.35V24.92H25.29a.58.58,0,0,0,.58-.58Zm-1.16.82V23.76H11.17l3-3,0,0h0l0-.07h0L17.93,17l3.2-3.21.08-.09ZM37.12,16a.6.6,0,0,0-.54.64.59.59,0,0,0,.64.53h6.46A.61.61,0,0,0,44.1,17a.58.58,0,0,0,.17-.41.59.59,0,0,0-.17-.42.61.61,0,0,0-.42-.17H37.12Zm-35.95.73h6.7L4.76,19.82a.59.59,0,0,0-.17.42V54.37H1.17Zm4.59,4.11h6.7L9.35,23.93a.62.62,0,0,0-.12.19s0,0,0,.05a.51.51,0,0,0,0,.17V58.47H5.76V20.82Zm26.57,2.94a.53.53,0,0,0-.4.19.53.53,0,0,0-.15.42.55.55,0,0,0,.18.4.56.56,0,0,0,.42.15h11.3a.56.56,0,0,0,.42-.16.61.61,0,0,0,.17-.42.55.55,0,0,0-.17-.41.61.61,0,0,0-.42-.17H32.33ZM17.08,31.51a.58.58,0,1,0,.12,1.16H43.68a.56.56,0,0,0,.42-.16.61.61,0,0,0,.17-.42.59.59,0,0,0-.17-.42.6.6,0,0,0-.42-.16H17.2a.24.24,0,0,0-.12,0Zm.07,7.75a.53.53,0,0,0-.4.19.57.57,0,0,0-.16.41.63.63,0,0,0,.19.41.57.57,0,0,0,.42.15H43.68a.56.56,0,0,0,.42-.16.63.63,0,0,0,.17-.42.59.59,0,0,0-.17-.42.56.56,0,0,0-.42-.16H17.15ZM17.08,47a.58.58,0,0,0-.52.64.58.58,0,0,0,.64.53H43.68A.61.61,0,0,0,44.1,48a.59.59,0,0,0,.17-.42.58.58,0,0,0-.17-.41.61.61,0,0,0-.42-.17H17.08Zm.07,7.75a.56.56,0,0,0-.4.19.58.58,0,0,0-.16.42.61.61,0,0,0,.19.4.58.58,0,0,0,.42.16H43.68a.61.61,0,0,0,.42-.17.59.59,0,0,0,.17-.42A.58.58,0,0,0,44.1,55a.61.61,0,0,0-.42-.17H17.15Z" fill="#78be20"/></g></g></svg>