<svg xmlns="http://www.w3.org/2000/svg" width="64" height="64" viewBox="0 0 64 64"><title>add</title><g id="a9fb18ff-aa7f-446c-92f2-a61fac96ceda" data-name="add"><rect x="49.69" y="55.5" width="13.5" height="1.09" fill="#00b087"/><rect x="55.94" y="48.72" width="1.01" height="14.66" fill="#00b087"/><rect x="1.03" y="17.67" width="61.95" height="1.12" fill="#00b087"/><path d="M33.82,63.5H8.31A8.07,8.07,0,0,1,.5,55.21V8.79A8.07,8.07,0,0,1,8.31.5H55.69A8.07,8.07,0,0,1,63.5,8.79V32.56H1.55V55.21a7,7,0,0,0,6.76,7.17H33.82ZM1.55,31.44h60.9V8.79a7,7,0,0,0-6.76-7.17H8.31A7,7,0,0,0,1.55,8.79Z" fill="#00b087"/></g></svg>