<svg xmlns="http://www.w3.org/2000/svg" width="64" height="64" viewBox="0 0 64 64"><title>administrator</title><g id="22a916a8-289f-4809-9462-71a68b2852d6" data-name="administrator"><path d="M32.08,63.58a31.5,31.5,0,1,1,31.5-31.5A31.53,31.53,0,0,1,32.08,63.58Zm0-62A30.53,30.53,0,1,0,62.61,32.08,30.57,30.57,0,0,0,32.08,1.55Z" fill="#00b087"/><rect x="27.31" y="41.12" width="1.76" height="2" fill="#00b087"/><rect x="31.11" y="41.12" width="1.76" height="2" fill="#00b087"/><rect x="34.95" y="41.12" width="1.76" height="2" fill="#00b087"/><rect x="27.31" y="37.69" width="1.76" height="2" fill="#00b087"/><rect x="31.11" y="37.69" width="1.76" height="2" fill="#00b087"/><rect x="34.95" y="37.69" width="1.76" height="2" fill="#00b087"/><rect x="27.31" y="34.3" width="1.76" height="2" fill="#00b087"/><rect x="31.11" y="34.3" width="1.76" height="2" fill="#00b087"/><rect x="34.95" y="34.3" width="1.76" height="2" fill="#00b087"/><rect x="27.31" y="30.87" width="1.76" height="2" fill="#00b087"/><rect x="31.11" y="30.87" width="1.76" height="2" fill="#00b087"/><rect x="34.95" y="30.87" width="1.76" height="2" fill="#00b087"/><rect x="27.31" y="27.47" width="1.76" height="2" fill="#00b087"/><rect x="31.11" y="27.47" width="1.76" height="2" fill="#00b087"/><rect x="34.95" y="27.47" width="1.76" height="2" fill="#00b087"/><rect x="27.31" y="24.04" width="1.76" height="2" fill="#00b087"/><rect x="31.11" y="24.04" width="1.76" height="2" fill="#00b087"/><rect x="34.95" y="24.04" width="1.76" height="2" fill="#00b087"/><rect x="27.31" y="20.65" width="1.76" height="2" fill="#00b087"/><rect x="31.11" y="20.65" width="1.76" height="2" fill="#00b087"/><rect x="34.95" y="20.65" width="1.76" height="2" fill="#00b087"/><rect x="27.31" y="17.22" width="1.76" height="2" fill="#00b087"/><rect x="31.11" y="17.22" width="1.76" height="2" fill="#00b087"/><rect x="34.95" y="17.22" width="1.76" height="2" fill="#00b087"/><rect x="21.63" y="46.68" width="1.76" height="2" fill="#00b087"/><rect x="17.87" y="46.68" width="1.76" height="2" fill="#00b087"/><rect x="21.63" y="43.28" width="1.76" height="2" fill="#00b087"/><rect x="17.87" y="43.28" width="1.76" height="2" fill="#00b087"/><rect x="21.63" y="39.86" width="1.76" height="2" fill="#00b087"/><rect x="17.87" y="39.86" width="1.76" height="2" fill="#00b087"/><rect x="21.63" y="36.46" width="1.76" height="2" fill="#00b087"/><rect x="17.87" y="36.46" width="1.76" height="2" fill="#00b087"/><rect x="21.63" y="33.03" width="1.76" height="2" fill="#00b087"/><rect x="17.87" y="33.03" width="1.76" height="2" fill="#00b087"/><rect x="21.63" y="29.63" width="1.76" height="2" fill="#00b087"/><rect x="17.87" y="29.63" width="1.76" height="2" fill="#00b087"/><rect x="21.63" y="26.2" width="1.76" height="2" fill="#00b087"/><rect x="17.87" y="26.2" width="1.76" height="2" fill="#00b087"/><rect x="21.63" y="22.81" width="1.76" height="2" fill="#00b087"/><rect x="17.87" y="22.81" width="1.76" height="2" fill="#00b087"/><rect x="40.63" y="46.68" width="1.76" height="2" fill="#00b087"/><rect x="44.39" y="46.68" width="1.76" height="2" fill="#00b087"/><rect x="40.63" y="43.28" width="1.76" height="2" fill="#00b087"/><rect x="44.39" y="43.28" width="1.76" height="2" fill="#00b087"/><rect x="40.63" y="39.86" width="1.76" height="2" fill="#00b087"/><rect x="44.39" y="39.86" width="1.76" height="2" fill="#00b087"/><rect x="40.63" y="36.46" width="1.76" height="2" fill="#00b087"/><rect x="44.39" y="36.46" width="1.76" height="2" fill="#00b087"/><rect x="40.63" y="33.03" width="1.76" height="2" fill="#00b087"/><rect x="44.39" y="33.03" width="1.76" height="2" fill="#00b087"/><rect x="40.63" y="29.63" width="1.76" height="2" fill="#00b087"/><rect x="44.39" y="29.63" width="1.76" height="2" fill="#00b087"/><rect x="40.63" y="26.2" width="1.76" height="2" fill="#00b087"/><rect x="44.39" y="26.2" width="1.76" height="2" fill="#00b087"/><rect x="40.63" y="22.81" width="1.76" height="2" fill="#00b087"/><rect x="44.39" y="22.81" width="1.76" height="2" fill="#00b087"/><path d="M48.43,50.39V20.85L39,19.63V15.22H35.09l-.33-.7a.64.64,0,0,0-.62-.41H32.3V11.38h-.62v2.7h-2a.68.68,0,0,0-.62.41l-.33.69H24.94v4.41l-9.48,1.22V50.39H14.23v1H49.62v-1Zm-.61-29v29H39V20.24ZM25.67,15.82h3.64l.48-1.1v0h4.46l.49,1.14h3.63V50.39H35.63V44.47H28.41v5.92H25.67ZM35,50.39H32.33V45.13H35Zm-3.27,0H29.06V45.13h2.66Zm-15.52-29,8.86-1.14V50.39H16.2Z" fill="#00b087"/></g></svg>