<svg xmlns="http://www.w3.org/2000/svg" width="70" height="70" viewBox="0 0 70 70">
  <title>Asset 2</title>
  <g id="ff498269-5b81-4535-980e-648fa8de6482" data-name="Layer 2">
    <g id="ae7473c0-9ff5-4aac-bc22-b52483982884" data-name="Layer 1">
      <g>
        <path d="M1.47,13.83H56.23a1.37,1.37,0,0,1,1.47,1.23V68.78A1.37,1.37,0,0,1,56.23,70H1.47A1.37,1.37,0,0,1,0,68.78V15.06A1.37,1.37,0,0,1,1.47,13.83Z" fill="#ededed"/>
        <path d="M65.94,65.52H8.83a3.76,3.76,0,0,1-3.74-3.78V4.1A3.76,3.76,0,0,1,8.83.32H65.94A3.76,3.76,0,0,1,69.68,4.1V61.74A3.76,3.76,0,0,1,65.94,65.52Z" fill="#fff"/>
        <path d="M65.94,65.84H8.83a4.09,4.09,0,0,1-4.06-4.1V4.1A4.08,4.08,0,0,1,8.83,0H65.94A4.08,4.08,0,0,1,70,4.1V61.74A4.08,4.08,0,0,1,65.94,65.84ZM8.83.63A3.46,3.46,0,0,0,5.41,4.1V61.74a3.46,3.46,0,0,0,3.42,3.47H65.94a3.46,3.46,0,0,0,3.44-3.47V4.1A3.46,3.46,0,0,0,65.94.63Z" fill="#78be20"/>
        <rect x="5.1" y="32.6" width="64.58" height="0.63" fill="#78be20"/>
        <rect x="37.08" y="0.32" width="0.62" height="65.21" fill="#78be20"/>
        <rect x="12.66" y="15.28" width="17.94" height="0.63" fill="#78be20"/>
        <rect x="45.81" y="51.35" width="17.94" height="0.63" fill="#78be20"/>
        <rect x="45.81" y="45.83" width="17.94" height="0.63" fill="#78be20"/>
        <rect x="12.66" y="49.26" width="17.94" height="0.63" fill="#78be20"/>
        <rect x="21.12" y="40.94" width="0.59" height="17.09" fill="#78be20"/>
        <polygon points="47.63 20.98 58.74 9.76 59.18 10.21 48.08 21.42 47.63 20.98" fill="#78be20"/>
        <polygon points="47.64 10.21 48.08 9.77 59.19 20.98 58.74 21.43 47.64 10.21" fill="#78be20"/>
      </g>
    </g>
  </g>
</svg>
