<svg xmlns="http://www.w3.org/2000/svg" width="64" height="64" viewBox="0 0 64 64"><title>audio</title><g id="dd8f8d24-5079-4224-a6f6-337a46f601a6" data-name="audio"><path d="M36.55,63.5a1.68,1.68,0,0,1-1.14-.43L13.78,44.42H2.22A1.71,1.71,0,0,1,.5,42.73V21.27a1.71,1.71,0,0,1,1.72-1.69H13.88L35.4.92A1.78,1.78,0,0,1,37.25.65h0a1.68,1.68,0,0,1,1,1.53V61.82a1.67,1.67,0,0,1-1,1.53A1.73,1.73,0,0,1,36.55,63.5ZM2.22,20.57a.72.72,0,0,0-.73.7V42.73a.72.72,0,0,0,.73.7H14.15l21.91,18.9a.73.73,0,0,0,.79.12.69.69,0,0,0,.43-.63V2.18a.69.69,0,0,0-.43-.63h0a.75.75,0,0,0-.79.11L14.25,20.57Z" fill="#00b087"/><path d="M48.08,41.13a.55.55,0,0,1-.42-.2.51.51,0,0,1,.08-.73,10.35,10.35,0,0,0,3.93-7.58A12.37,12.37,0,0,0,48.75,24a.5.5,0,0,1,.08-.73.55.55,0,0,1,.75.07,13.33,13.33,0,0,1,3.16,9.36A11.38,11.38,0,0,1,48.42,41,.54.54,0,0,1,48.08,41.13Z" fill="#00b087"/><path d="M50.07,47.26a.55.55,0,0,1-.41-.19.52.52,0,0,1,.08-.74c8.51-6.69,9-19.94,1-29.53a.51.51,0,0,1,.08-.73.54.54,0,0,1,.75.08c8.34,10,7.82,23.94-1.15,31A.54.54,0,0,1,50.07,47.26Z" fill="#00b087"/><path d="M53.29,51.43a.55.55,0,0,1-.42-.19.51.51,0,0,1,.08-.73,24.58,24.58,0,0,0,9.38-17.43,26.69,26.69,0,0,0-6.24-19.41.51.51,0,0,1,.08-.73.55.55,0,0,1,.76.08A27.72,27.72,0,0,1,63.4,33.17a25.65,25.65,0,0,1-9.77,18.15A.53.53,0,0,1,53.29,51.43Z" fill="#00b087"/></g></svg>