<svg xmlns="http://www.w3.org/2000/svg" width="64" height="64" viewBox="0 0 64 64"><title>avatar</title><g id="6e5fab2f-8c9b-4145-83a5-2d4cff7a64fe" data-name="avatar"><g id="7735c044-1b17-4fd9-bb7c-b3957c5ee5a2" data-name="Layer 2"><g id="2e53e737-0141-42cf-99fe-f0b6867732d2" data-name="Layer 1-2"><path d="M32,33.69A16.6,16.6,0,1,1,48.65,17.1,16.64,16.64,0,0,1,32,33.69ZM32,1.55A15.55,15.55,0,1,0,47.6,17.1,15.59,15.59,0,0,0,32,1.55Z" fill="#00b087"/><path d="M57.34,63.5H6.66V48a14.39,14.39,0,0,1,14.4-14.35H42.94A14.39,14.39,0,0,1,57.34,48Zm-49.63-1H56.29V48a13.34,13.34,0,0,0-13.35-13.3H21.06A13.34,13.34,0,0,0,7.71,48Z" fill="#00b087"/></g></g></g></svg>