<svg xmlns="http://www.w3.org/2000/svg" width="200.26" height="299.13" viewBox="0 0 200.26 299.13"><title>awards</title><g id="Layer_2" data-name="Layer 2"><g id="Layer_3" data-name="Layer 3"><path d="M192.74,77.51c-2.49-3.48-4.47-6.47-5.48-9.45s-1-7-1-11.46c0-7-.5-14-4.47-19.41-4-6-10.95-8-17.43-10.47-4-1.5-7.47-2.49-10-4.47a57.68,57.68,0,0,1-7.47-8c-4-5-8.46-10.95-15.45-13.44-6.47-2-13.44,0-19.92,2a29,29,0,0,1-11,2.49A33.93,33.93,0,0,1,89.15,2.81c-6.47-2-13-4-19.92-2s-11.45,8-15.44,13.44c-2.49,3.48-5,6.48-7.47,8-2.49,2-6.48,3-10,4.47-6,2-13,4.48-17.43,10.47-4,5.48-4.48,13-4.48,19.41,0,4,0,8-1,11.46-1,3-3,6-5.48,9.45C4,83,0,89,0,96.44s4.47,13.44,8,18.93c2.49,3.48,4.47,6.48,5.48,9.45s1,7,1,11.46c0,7,.51,13.95,4.48,19.42s10.46,8,16.44,10V289.17a9.38,9.38,0,0,0,5.48,9,14.32,14.32,0,0,0,4.48,1,10.52,10.52,0,0,0,6.47-2.49l48.81-40.35,48.3,40.35a10,10,0,0,0,10.47,1.49,9.42,9.42,0,0,0,5.49-9l0-123.51c6-2,12.45-4.48,16.43-10s4.48-13,4.48-19.42c0-4,0-8,1-11.46,1-3,3-6,5.49-9.45,4-5.49,8-11.46,8-18.93.51-7-3.48-13.44-7.47-18.93ZM104.09,246.33a5.21,5.21,0,0,0-6.47,0L45.83,289.16V169.64c.51.51,1,.51,1.5,1a57.68,57.68,0,0,1,7.47,8c4,5,8.46,10.95,15.45,13.44a24.35,24.35,0,0,0,6,1c4.47,0,9-1.49,13.44-2.49,4-1,8-2.49,11.46-2.49a34.18,34.18,0,0,1,11.46,2.49c6.48,2,13,4,19.92,2s11.46-8,15.44-13.44c2.49-3.49,5-6.48,7.47-8,.51-.5,1-.5,1.5-1V289.65Zm80.67-136.45c-2.49,4-5.48,7.47-7,12s-1.5,9.45-1.5,14c0,5.48,0,10.46-2.49,13.94-2.49,3-7.47,5-12.45,7-4.47,1.5-9,3-13,6-4,2.49-6.48,6.48-9.46,10.47-3.48,4.47-6.48,8.46-10.46,10-3.49,1-8.47-.51-14-2-4.48-1.5-9.46-3-14-3s-9.45,1.49-14,3c-5,1.5-10,3-14,2-4-1.5-7-5.49-10.46-10-3-3.49-5.49-7.47-9.46-10.47s-8.46-4.47-13-6c-5.49-2-10-3.48-12.45-7-2.49-3-2.49-8.46-2.49-13.94,0-4.48,0-9.46-1.5-14s-4-8-7-12c-3-4.47-6.48-9-6.48-12.95s3-8.46,6.48-13c2.49-4,5.48-7.47,7-11.94s1.5-9.46,1.5-14c0-5.49,0-10.47,2.49-13.95,2.49-3,7.47-5,12.45-7,4.47-1.5,9-3,13-6,4-2.49,6.48-6.48,9.46-10.47,3.48-4.47,6.48-8.46,10.46-10a6.64,6.64,0,0,1,3-.49,34.06,34.06,0,0,1,11,2.49c4.5,1,9,2.49,14,2.49s9.45-1.49,14-3c5-1.5,10-3,13.95-2,4,1.5,7,5.49,10.46,10,3,3.49,5.49,7.47,9.46,10.47s8.46,4.47,12.95,6c5,2,10,3.48,12.45,7,2.49,3,2.49,8.46,2.49,13.94,0,4.48,0,9.46,1.5,14s4,8,7,11.95c3,4.47,6.48,9,6.48,13-.5,4.48-3.5,9-6.5,13.44Zm-84.15-74.7A62.06,62.06,0,0,0,38.87,96.93c0,33.86,27.88,61.26,61.74,61.26a62.06,62.06,0,0,0,61.74-61.75C162.35,62.58,134.48,35.18,100.61,35.18Zm0,113A52.07,52.07,0,0,1,48.83,96.44c0-28.38,23.4-51.3,51.78-51.3a52.07,52.07,0,0,1,51.78,51.79C152.39,125.33,129,148.23,100.61,148.23Z" fill="#00b087"/></g></g></svg>