<svg xmlns="http://www.w3.org/2000/svg" width="64" height="64" viewBox="0 0 64 64"><title>awards_2</title><g id="6028924d-8fde-4d79-bbc4-43eafb81f06b" data-name="awards_2"><path d="M31.72,34.39A11.55,11.55,0,1,1,43.26,22.84,11.56,11.56,0,0,1,31.72,34.39Zm0-22.35a10.8,10.8,0,1,0,10.8,10.8A10.81,10.81,0,0,0,31.72,12Z" fill="#00b087"/><path d="M19.76,63.5a.45.45,0,0,1-.16,0,.38.38,0,0,1-.21-.34l-.24-24.08-6.7-.82a.38.38,0,0,1-.26-.16.42.42,0,0,1-.06-.31l2.12-8.16L8,24a.36.36,0,0,1-.12-.28A.36.36,0,0,1,8,23.42l6.15-5.64-1.9-8a.35.35,0,0,1,0-.3.38.38,0,0,1,.27-.16l8.38-.88L24.21.73a.35.35,0,0,1,.23-.21.34.34,0,0,1,.31,0l7,4.58L39,.56a.34.34,0,0,1,.31,0,.35.35,0,0,1,.23.2l3.5,7.76,8.34.88a.38.38,0,0,1,.27.16.36.36,0,0,1,.05.3l-2,8L56,23.41A.39.39,0,0,1,56,24l-6.23,5.64,1.74,8.17a.37.37,0,0,1-.06.29.37.37,0,0,1-.26.16l-6.81.82V62.86a.37.37,0,0,1-.61.29l-11.9-9.61L20,63.41A.38.38,0,0,1,19.76,63.5Zm-6.8-26,6.61.81a.36.36,0,0,1,.32.36l.23,23.63,11.54-9.57a.38.38,0,0,1,.48,0l11.53,9.32V38.72a.37.37,0,0,1,.33-.37l6.74-.81-1.7-8a.38.38,0,0,1,.11-.35l6.08-5.51-6.16-5.51a.37.37,0,0,1-.12-.37l2-7.75L42.79,9.2a.37.37,0,0,1-.3-.21L39.08,1.42,32,5.9a.36.36,0,0,1-.4,0L24.72,1.43,21.51,9a.36.36,0,0,1-.3.22L13,10.06l1.86,7.76a.38.38,0,0,1-.12.36l-6,5.51,6.15,5.51a.37.37,0,0,1,.11.37Z" fill="#00b087"/></g></svg>