<svg xmlns="http://www.w3.org/2000/svg" width="64" height="64" viewBox="0 0 64 64"><title>awards_1</title><g id="1173eeaf-5b7e-4852-8526-2c74b6467305" data-name="awards_1"><path d="M45.36,59.6a1.32,1.32,0,0,1-1.27-1l-2.8-9.76.55-.1a2.73,2.73,0,0,0,1.93-1.32l.28-.47.43.32a2.83,2.83,0,0,0,1.68.56,2.79,2.79,0,0,0,2.72-2.16l.43-1.83,3.25,11.36a1.35,1.35,0,0,1,.13.56,1.33,1.33,0,0,1-1.33,1.32,1.21,1.21,0,0,1-.52-.1l-3-1.25-1.25,3A1.34,1.34,0,0,1,45.36,59.6Zm-2.83-10L45,58.38a.33.33,0,0,0,.29.24.37.37,0,0,0,.34-.2l1.62-3.93,3.93,1.62a.24.24,0,0,0,.13,0,.33.33,0,0,0,.35-.33.37.37,0,0,0,0-.15l0-.09-2.38-8.32a3.78,3.78,0,0,1-4.92,1.14A3.85,3.85,0,0,1,42.53,49.63Z" fill="#00b087"/><path d="M36.45,59.56a1.37,1.37,0,0,1-1.3-.81l-1.25-3-3,1.25a1.32,1.32,0,0,1-1.39-.25,1.29,1.29,0,0,1-.39-1.33l3.3-11.53.44,1.81a2.8,2.8,0,0,0,2.73,2.14,2.7,2.7,0,0,0,1.66-.56l.44-.32.28.47a2.81,2.81,0,0,0,1.94,1.33l.54.09-2.8,9.77a1.31,1.31,0,0,1-1.19,1Zm-2-5.11,1.64,3.92a.31.31,0,0,0,.3.21.35.35,0,0,0,.33-.25l2.5-8.74a3.85,3.85,0,0,1-1.8-1.25,3.71,3.71,0,0,1-1.82.47,3.77,3.77,0,0,1-3.1-1.59l-2.42,8.45a.33.33,0,0,0,.09.34.35.35,0,0,0,.37.06Z" fill="#00b087"/><path d="M54.39,1.48h0a2.29,2.29,0,0,1,2.27,2.2V60.35a2.12,2.12,0,0,1-2.17,2.17h-45a2.12,2.12,0,0,1-2.17-2.17V3.65A2.12,2.12,0,0,1,9.51,1.48H54.39m0-1Zm0,0H9.51A3.11,3.11,0,0,0,6.36,3.65v56.7A3.11,3.11,0,0,0,9.51,63.5h45a3.11,3.11,0,0,0,3.15-3.15V3.65A3.26,3.26,0,0,0,54.39.5Z" fill="#00b087"/><path d="M44.38,25.8a1,1,0,0,1,.28.05c.5.15.75.61,1.12,1.35l0,.12,0,.06,0,.05a2.4,2.4,0,0,1,.16.27,2,2,0,0,0,.82.95,2.52,2.52,0,0,0,.83.19,4.08,4.08,0,0,1,.44.07l.42.1c.69.16,1.14.28,1.4.62s.23.89.13,1.64l0,.15a2.46,2.46,0,0,0,0,1.7,4.3,4.3,0,0,0,.87,1.05c.6.6,1,1,1,1.57s-.48,1-.94,1.42l-.15.15a4.73,4.73,0,0,0-.88,1,2.49,2.49,0,0,0,0,1.7l0,.17a2.23,2.23,0,0,1-.13,1.62l0,0,0,0c-.3.45-.79.55-1.58.64h0a3.86,3.86,0,0,0-1.45.29,2.08,2.08,0,0,0-.84,1c0,.09-.09.18-.14.26l0,0,0,0-.18.34c-.34.63-.6,1-1,1.18H44.5l-.07,0h-.18a2.65,2.65,0,0,1-1.09-.41l-.36-.19a3.48,3.48,0,0,0-1.5-.48,3.67,3.67,0,0,0-1.53.49l-.13.07a3.72,3.72,0,0,1-1.42.51.72.72,0,0,1-.28,0c-.51-.15-.76-.61-1.12-1.35l-.06-.11,0-.06,0-.06-.15-.27a2.11,2.11,0,0,0-.83-1,2.73,2.73,0,0,0-.82-.19,4.08,4.08,0,0,1-.44-.07l-.42-.1c-.7-.15-1.14-.27-1.4-.62s-.23-.89-.13-1.64l0-.15a2.52,2.52,0,0,0,0-1.7,4.81,4.81,0,0,0-.87-1l-.17-.16c-.45-.45-.92-.92-.92-1.41s.47-1,.93-1.42l.15-.15a4.47,4.47,0,0,0,.88-1.05,2.48,2.48,0,0,0,0-1.7l0-.17c-.09-.74-.14-1.25.14-1.62l0,0v0c.3-.45.8-.55,1.59-.64h0a3.85,3.85,0,0,0,1.44-.29,2,2,0,0,0,.84-1l.15-.26,0,0v0a3.72,3.72,0,0,0,.19-.34c.34-.63.6-1.05,1-1.18a1.22,1.22,0,0,1,.32,0,3,3,0,0,1,1.28.45l.26.13a3.58,3.58,0,0,0,1.51.49,3.6,3.6,0,0,0,1.52-.5l.14-.07a3.66,3.66,0,0,1,1.42-.51m0-1a4.72,4.72,0,0,0-2,.68,2.85,2.85,0,0,1-1.08.39,2.89,2.89,0,0,1-1.09-.39,4.47,4.47,0,0,0-2-.68,2.18,2.18,0,0,0-.6.09c-1,.3-1.37,1.28-1.77,2-.2.29-.39.79-.59.88a3,3,0,0,1-1.09.2A3,3,0,0,0,31.84,29a3.36,3.36,0,0,0-.29,2.56,2.32,2.32,0,0,1,.1,1.09,5.08,5.08,0,0,1-.69.79,3.44,3.44,0,0,0-1.38,2.26A3.46,3.46,0,0,0,31,38a4.67,4.67,0,0,1,.69.78,2.19,2.19,0,0,1-.1,1.09,3.35,3.35,0,0,0,.29,2.56,3.76,3.76,0,0,0,2.36,1.08c.4.1.89.1,1.09.2s.39.59.59.89c.39.78.79,1.67,1.77,2a1.62,1.62,0,0,0,.57.09,4.72,4.72,0,0,0,2-.68,3.07,3.07,0,0,1,1.09-.39,3,3,0,0,1,1.08.39,4.25,4.25,0,0,0,1.87.69,1.23,1.23,0,0,0,.59-.1c1-.3,1.38-1.28,1.78-2,.19-.29.39-.79.59-.88a3,3,0,0,1,1.08-.2,3,3,0,0,0,2.36-1.08,3.32,3.32,0,0,0,.3-2.56,2.19,2.19,0,0,1-.1-1.09,4.24,4.24,0,0,1,.69-.79,3.43,3.43,0,0,0,1.37-2.26,3.27,3.27,0,0,0-1.27-2.26h0a4.59,4.59,0,0,1-.69-.79,2.19,2.19,0,0,1,.1-1.09,3.32,3.32,0,0,0-.3-2.56A3.79,3.79,0,0,0,48.39,28c-.39-.1-.88-.1-1.08-.2s-.39-.59-.59-.88c-.4-.79-.79-1.67-1.78-2a1.82,1.82,0,0,0-.56-.09Z" fill="#00b087"/><path d="M46.81,10.64H17.09c-.6,0-1,.14-1,.34s.39.35,1,.35H46.82c.49,0,1-.14,1-.35s-.4-.34-1-.34Z" fill="#00b087"/><path d="M46.81,13.59H17.09c-.6,0-1,.14-1,.35s.39.34,1,.34H46.82c.49,0,1-.14,1-.34s-.4-.35-1-.35Z" fill="#00b087"/><path d="M46.81,16.55H17.09c-.6,0-1,.13-1,.34s.39.34,1,.34H46.82c.49,0,1-.13,1-.34s-.4-.34-1-.34Z" fill="#00b087"/><path d="M41.5,31.9a4,4,0,0,1,3.94,3.94A3.94,3.94,0,1,1,41.5,31.9m0-1a4.92,4.92,0,1,0,4.92,4.92,4.94,4.94,0,0,0-4.92-4.92Z" fill="#00b087"/></g></svg>