<svg xmlns="http://www.w3.org/2000/svg" width="40" height="40" viewBox="0 0 40 40"><title>bank-account</title><g id="fe3030c1-7c1b-4a3d-ac20-98228332b958" data-name="Layer 2"><g id="fcfc59ea-6edb-474f-a445-619c128fd603" data-name="Layer 1"><path d="M10.37,24.22l-1.72-.66a.49.49,0,0,0-.64.29.51.51,0,0,0,.28.65l1.73.65a.38.38,0,0,0,.17,0,.5.5,0,0,0,.18-1Z" fill="#ffffff"/><path d="M15,26l-1.72-.65a.5.5,0,1,0-.36.93l1.73.66a.47.47,0,0,0,.17,0A.5.5,0,0,0,15,26Z" fill="#ffffff"/><path d="M19.69,27.77,18,27.11a.5.5,0,0,0-.65.29.52.52,0,0,0,.29.65l1.73.65a.33.33,0,0,0,.17,0,.52.52,0,0,0,.47-.33.5.5,0,0,0-.29-.64Z" fill="#ffffff"/><path d="M29.85,28.42a3.48,3.48,0,0,0-1.53-.22A3.55,3.55,0,0,0,27,27.35a3.51,3.51,0,0,0-2.5,6.56,3.63,3.63,0,0,0,1.25.23h.28a3.55,3.55,0,0,0,1.28.85,3.65,3.65,0,0,0,1.26.23A3.52,3.52,0,0,0,31.88,33a3.51,3.51,0,0,0-2-4.53Zm-1.71,3.1a2.49,2.49,0,0,1-1.32,1.4,2.13,2.13,0,0,1-.33.11,2.5,2.5,0,0,1,1.09-3.62,2.13,2.13,0,0,1,.33-.11A2.51,2.51,0,0,1,28.14,31.52ZM24.9,33a2.52,2.52,0,0,1-1.46-3.24,2.47,2.47,0,0,1,1.33-1.4,2.4,2.4,0,0,1,1-.22,2.59,2.59,0,0,1,.9.16,3.17,3.17,0,0,1,.45.23,3.5,3.5,0,0,0-1.75,4.6A2.72,2.72,0,0,1,24.9,33ZM31,32.6A2.5,2.5,0,0,1,29.63,34a2.51,2.51,0,0,1-2.38-.17A3.49,3.49,0,0,0,29,29.23a2.17,2.17,0,0,1,.5.13A2.51,2.51,0,0,1,31,32.6Z" fill="#ffffff"/><path d="M3.49,22.32h.72L2.9,25.78a3.49,3.49,0,0,0,2,4.5l24.9,9.49A3.48,3.48,0,0,0,31,40a3.38,3.38,0,0,0,1.43-.31,3.44,3.44,0,0,0,1.84-1.94l5.46-14.33a3.5,3.5,0,0,0-2-4.5l-4.14-1.58V3.49A3.5,3.5,0,0,0,30.13,0H3.49A3.49,3.49,0,0,0,0,3.49V18.83a3.49,3.49,0,0,0,3.49,3.49ZM33.38,37.4a2.47,2.47,0,0,1-1.31,1.38,2.5,2.5,0,0,1-1.9.06L5.27,29.35a2.49,2.49,0,0,1-1.44-3.21l1.45-3.82H21.56l.06,0,15.27,5.82ZM31.79,21.9l6.54,2.49-1.09,2.85L24.33,22.32h5.8a3.44,3.44,0,0,0,1.66-.42Zm5.61-2a2.47,2.47,0,0,1,1.38,1.31,2.5,2.5,0,0,1,.06,1.9l-.15.39-6-2.28a3.45,3.45,0,0,0,.92-2.34v-.42ZM1,3.49A2.5,2.5,0,0,1,3.49,1H30.13a2.49,2.49,0,0,1,2.48,2.49V18.83a2.49,2.49,0,0,1-2.48,2.49H3.49A2.5,2.5,0,0,1,1,18.83Z" fill="#ffffff"/><path d="M4.46,13.43a.5.5,0,0,0-.5.5.51.51,0,0,0,.5.5h4.2a.51.51,0,0,0,.5-.5.5.5,0,0,0-.5-.5Z" fill="#ffffff"/><path d="M10.52,13.93a.51.51,0,0,0,.5.5h4.19a.5.5,0,0,0,.5-.5.5.5,0,0,0-.5-.5H11A.5.5,0,0,0,10.52,13.93Z" fill="#ffffff"/><path d="M21.77,13.43H17.58a.5.5,0,0,0-.5.5.5.5,0,0,0,.5.5h4.19a.5.5,0,0,0,.5-.5A.5.5,0,0,0,21.77,13.43Z" fill="#ffffff"/><path d="M21.75,17.26H17.56a.5.5,0,0,0-.5.5.5.5,0,0,0,.5.5h4.19a.5.5,0,0,0,.5-.5A.5.5,0,0,0,21.75,17.26Z" fill="#ffffff"/><path d="M28.33,13.43H24.14a.5.5,0,0,0-.5.5.5.5,0,0,0,.5.5h4.19a.51.51,0,0,0,.5-.5A.5.5,0,0,0,28.33,13.43Z" fill="#ffffff"/><path d="M16.81,5.06h11.5a.5.5,0,0,0,0-1H16.81a.5.5,0,0,0,0,1Z" fill="#ffffff"/><path d="M16.81,8.89h11.5a.5.5,0,0,0,.5-.5.51.51,0,0,0-.5-.5H16.81a.5.5,0,0,0-.5.5A.5.5,0,0,0,16.81,8.89Z" fill="#ffffff"/><path d="M4.45,18.26H15.19a.5.5,0,0,0,.5-.5.5.5,0,0,0-.5-.5H4.45a.5.5,0,0,0-.5.5A.5.5,0,0,0,4.45,18.26Z" fill="#ffffff"/><path d="M5.26,10.81H9.37a1.32,1.32,0,0,0,1.32-1.32V5.38A1.32,1.32,0,0,0,9.37,4.06H5.26A1.33,1.33,0,0,0,3.94,5.38V9.49A1.33,1.33,0,0,0,5.26,10.81ZM4.94,5.38a.33.33,0,0,1,.32-.32H9.37a.32.32,0,0,1,.32.32V9.49a.32.32,0,0,1-.32.32H5.26a.32.32,0,0,1-.32-.32Z" fill="#ffffff"/></g></g></svg>