<svg xmlns="http://www.w3.org/2000/svg" width="72.02" height="62" viewBox="0 0 72.02 62"><title>benefits</title><g id="Layer_2" data-name="Layer 2"><g id="Layer_1-2" data-name="Layer 1"><path d="M71.3,45.2A3.55,3.55,0,0,0,68,43.31h-.17a2,2,0,0,0,.06-.57,2.88,2.88,0,0,0-1.75-2.39A5.23,5.23,0,0,0,60,41.75c-.71.8-4.07,2.91-7.55,4.94-1.55-3.1-6.49-5.18-8.41-5.89a5.56,5.56,0,0,0,.15-1.32,3.7,3.7,0,0,0-2.06-3.57,5.8,5.8,0,0,0-1-.37V31.93a7.44,7.44,0,0,0,2.14.32,7,7,0,0,0,5-2.12c1.86-1.82,3.21-4.78,4-8.81l.21-1-1,.09c-5,.44-8.45,1.83-10.34,4.13V20.56a7.44,7.44,0,0,0,2.14.32,7.09,7.09,0,0,0,5-2.12c1.86-1.82,3.21-4.79,4-8.81l.21-1-1,.09c-5,.44-8.45,1.82-10.34,4.13v-.82a.77.77,0,0,0-.11-.39,5.26,5.26,0,0,0,2.14-3.51c.31-2.32-.93-4.89-3.69-7.66L38.77,0l-.51.93c-1.87,3.43-2.34,6.25-1.4,8.39A5.25,5.25,0,0,0,39.65,12a.78.78,0,0,0-.06.31v4.55c-1.75-2.17-4.88-3.72-9.34-4.63l-1-.21.09,1.06C30.21,23.45,35.07,25,37.89,25a7.76,7.76,0,0,0,1.7-.19V35.33H22.45a23.6,23.6,0,0,0-10.89,4.74l-10.8.4a.79.79,0,0,0-.76.79v20A.79.79,0,0,0,.79,62h47.1a36.13,36.13,0,0,0,7.69-1.93,43.39,43.39,0,0,0,15.58-9.69l.08-.09A4.65,4.65,0,0,0,71.3,45.2ZM42,26c1.33-2.07,4.28-3.44,8.55-4-1.35,5.64-3.84,8.6-7.25,8.6a6,6,0,0,1-2-.34,6.19,6.19,0,0,1-.16-1.14v-.42A5.29,5.29,0,0,1,42,26Zm0-11.37c1.33-2.07,4.28-3.44,8.55-4-1.35,5.63-3.84,8.6-7.25,8.6a5.92,5.92,0,0,1-2-.35,5.93,5.93,0,0,1-.16-1.14v-.41A5.29,5.29,0,0,1,42,14.66Zm-3.71-6c-.64-1.45-.35-3.51.84-6C41,4.72,41.84,6.61,41.64,8.18a3.65,3.65,0,0,1-1.36,2.36A3.67,3.67,0,0,1,38.31,8.67Zm.94,14.59a6,6,0,0,1-1.36.16c-3.72,0-6.15-3.33-6.9-9.4,4.19,1,7,2.69,8.06,4.9a5.37,5.37,0,0,1,.54,2.21v.33A6.07,6.07,0,0,1,39.25,23.26Zm22,19.54a3.64,3.64,0,0,1,4.24-1,1.43,1.43,0,0,1,.88,1c0,.36-.3.76-.89,1.12a7.7,7.7,0,0,0-1.26.71c-1.34.94-7.85,4.74-12.83,4.74H51C54.48,47.4,60.09,44.09,61.23,42.8ZM51.12,47.49c-1.16.68-2.3,1.32-3.31,1.88H30.37C30,49.3,27,48.69,27,47c0-1.34.58-2.87,5.16-2.87h7a4.91,4.91,0,0,0,4.29-1.84C45.72,43.07,50,45.06,51.12,47.49ZM1.59,42l5.87-.21V60.42H1.59ZM70,49.29A41.25,41.25,0,0,1,47.77,60.41H9.05V41.75l2.82-.1a.8.8,0,0,0,.44-.17,22.81,22.81,0,0,1,10.25-4.57H39.21c3.08,0,3.43,1.46,3.43,2.57a3.58,3.58,0,0,1-.22,1.38,1.11,1.11,0,0,0-.09.19v0c-.39.74-1.25,1.43-3.17,1.43h-7c-4.48,0-6.75,1.5-6.75,4.46,0,3.24,4.61,4,4.8,4H51.37c5.45,0,12.22-4,13.74-5a5.62,5.62,0,0,1,2.93-1A2,2,0,0,1,69.92,46,3.14,3.14,0,0,1,70,49.29Z" fill="#00b087"/><circle cx="4.47" cy="44.97" r="1.31" fill="#00b087"/></g></g></svg>