<svg xmlns="http://www.w3.org/2000/svg" width="64" height="64" viewBox="0 0 64 64"><title>benifits</title><g id="ecea9318-1694-4383-84f1-2dc55bb1bda8" data-name="benifits"><path d="M62.75,34.91h0a3.81,3.81,0,0,0-3.06-1.52,3.67,3.67,0,0,0-2.06.6L43.7,41.71l.07.27a4.13,4.13,0,0,1,.1,1,4.78,4.78,0,0,1-1.35,3.31,4.58,4.58,0,0,1-3.27,1.38H38.12c-7.52,0-13-.52-15.74-1.5l-1.51-.72-.09,0a.3.3,0,0,1-.21-.31.35.35,0,0,1,.31-.36.43.43,0,0,1,.14,0l.08,0,1.28.46.2.08C26.14,46.6,33.49,46.83,39,46.8a3.93,3.93,0,0,0,4-3.42,3.85,3.85,0,0,0-3.68-4.27l-.49,0c0-.05,0-.1,0-.14s0-.31,0-.41,0-.28,0-.42a1.76,1.76,0,0,1,0-.58c0-.07,0-.07.24-.15l.11,0a12.46,12.46,0,0,1,2.48-.58l.61-.1A8.06,8.06,0,0,0,47,34.34c3-3,4.27-7.13,5-10.39a1.18,1.18,0,0,0-.24-1,1.29,1.29,0,0,0-.54-.39,1.1,1.1,0,0,0-.4-.08,1.27,1.27,0,0,0-.28,0c-2.5.6-7.19,2.09-10.48,5.38A7.72,7.72,0,0,0,39.13,29l-.19.26v-5a8,8,0,0,1,1.23-2.18l.33-.46a6.86,6.86,0,0,0,1.37-4.16c0-3.37-1.52-6.4-2.92-8.71-.27-.49-.55-1-.82-1.4a.47.47,0,0,0-.39-.23.49.49,0,0,0-.41.22c-.19.32-.41.69-.64,1.12a18.69,18.69,0,0,0-3,9.25,6.64,6.64,0,0,0,1.35,4.08l.3.41a6.35,6.35,0,0,1,1.15,2.06V25a5.17,5.17,0,0,0-.5-.55A18.79,18.79,0,0,0,27.34,20a1.17,1.17,0,0,0-.67.06,1.19,1.19,0,0,0-.44.27,1.23,1.23,0,0,0-.34,1.14c.64,2.7,1.7,6.11,4.18,8.59A6.88,6.88,0,0,0,34,32l.57.1a8.63,8.63,0,0,1,2,.47l0,6.36h0c-4.94-.39-8.24-1.32-9.41-2.7-3-3.52-7.09-5.13-12.36-4.88-3.77.16-9.55,3-12.67,4.62a2.91,2.91,0,0,0-1.3,3.67l4.46,11a3,3,0,0,0,1.73,1.66,2.9,2.9,0,0,0,2.36-.17l2-1.07a5.09,5.09,0,0,1,4.62-.1l9.2,4.45A14.44,14.44,0,0,0,39,54.71L61.73,40.4a3.82,3.82,0,0,0,1-5.49ZM34.67,31.39l-.56-.1a6.23,6.23,0,0,1-3.52-1.76h0c-2.35-2.35-3.36-5.64-4-8.23a.5.5,0,0,1,.14-.45l.1-.07a.46.46,0,0,1,.24-.08h.09A18.12,18.12,0,0,1,35.49,25a6.33,6.33,0,0,1,1.07,1.41l.69,1.3v-3.6A7.15,7.15,0,0,0,36,21.74c-.1-.13-.2-.26-.3-.41a5.92,5.92,0,0,1-1.21-3.64c0-.27,0-.55,0-.83A19,19,0,0,1,37.33,8.8a.48.48,0,0,1,.41-.21.45.45,0,0,1,.39.22,18,18,0,0,1,3,7.88c0,.25,0,.5,0,.75a6.26,6.26,0,0,1-1.23,3.74l-.33.45a8.49,8.49,0,0,0-1.35,2.44l0,7.44V33l.72-2a6.94,6.94,0,0,1,1.69-2.6c3.16-3.16,7.7-4.6,10.13-5.18h.11a.44.44,0,0,1,.21.07.53.53,0,0,1,.14.12.49.49,0,0,1,.1.39c-.75,3.17-2,7.17-4.85,10a7.39,7.39,0,0,1-4.23,2.12l-.61.1a13,13,0,0,0-2.63.62l-.1,0a1,1,0,0,0-.68.61,2.46,2.46,0,0,0-.09.83,2,2,0,0,1,0,.35c0,.12,0,.27,0,.45a.57.57,0,0,0,0,.13H37.9l-.69,0,0-6.9h0L37,32A8.73,8.73,0,0,0,34.67,31.39Zm28,6.37a3,3,0,0,1-1.38,2L38.58,54.08a13.7,13.7,0,0,1-13.19.72l-9.2-4.45a5.72,5.72,0,0,0-2.53-.58,5.85,5.85,0,0,0-2.76.69l-2,1.07a2.13,2.13,0,0,1-1.76.13,2.16,2.16,0,0,1-1.29-1.24l-4.46-11a2.16,2.16,0,0,1,1-2.74C5.43,35,11.1,32.26,14.73,32.11c5-.24,8.87,1.28,11.75,4.62,1.58,1.85,5.86,2.64,10,3v.05a.82.82,0,0,0,0,.14V39.7l.74,0,.85,0,.25,0,.49,0,.51,0a3.09,3.09,0,0,1,3,3.45A3.21,3.21,0,0,1,39,46.06c-5.47,0-12.74-.2-16.19-1.44l-.2-.07c-.39-.15-.84-.32-1.33-.48l-.07,0h0a1,1,0,0,0-1.4,1,1.06,1.06,0,0,0,.76,1l1.51.71c2.93,1,8.32,1.56,16,1.56h1.13a5.32,5.32,0,0,0,3.8-1.6A5.57,5.57,0,0,0,44.62,43a5.65,5.65,0,0,0-.07-.86L58,34.62a3,3,0,0,1,1.67-.49,3.06,3.06,0,0,1,3,3.63Z" fill="#00b087"/></g></svg>