<svg xmlns="http://www.w3.org/2000/svg" width="30" height="36" viewBox="0 0 30 36"><g fill-rule="evenodd"><path fill-rule="nonzero" d="M3,35.25 C2.86328,35.25 2.75,35.13672 2.75,35 L2.75,7 C2.75,6.86328 2.86328,6.75 3,6.75 L27,6.75 C27.13672,6.75 27.25,6.86328 27.25,7 L27.25,35 C27.25,35.13672 27.13672,35.25 27,35.25 L3,35.25 Z M26.75,34.75 L26.75,7.25 L3.25,7.25 L3.25,34.75 L26.75,34.75 Z"/><path fill-rule="nonzero" d="M29,2.75 C29.13672,2.75 29.25,2.86328 29.25,3 L29.25,7 C29.25,7.13672 29.13672,7.25 29,7.25 L1,7.25 C0.86328,7.25 0.75,7.13672 0.75,7 L0.75,3 C0.75,2.86328 0.86328,2.75 1,2.75 L7.8945,2.75 L9.8242,0.8242 L9.99998,0.749981 L19.99998,0.749981 L20.17576,0.8242 L22.10546,2.75 L29,2.75 Z M22,3.25 L21.82422,3.175781 L19.89452,1.249981 L10.10542,1.249981 L8.17572,3.175781 L7.99994,3.25 L1.24994,3.25 L1.24994,6.75 L28.74994,6.75 L28.74994,3.25 L22,3.25 Z"/><path d="M7.25 10.5L7.25 31.5C7.25 31.63672 7.36328 31.75 7.5 31.75 7.63672 31.75 7.75 31.63672 7.75 31.5L7.75 10.5C7.75 10.36328 7.63672 10.25 7.5 10.25 7.36328 10.25 7.25 10.36328 7.25 10.5zM12.25 10.5L12.25 31.5C12.25 31.63672 12.36328 31.75 12.5 31.75 12.63672 31.75 12.75 31.63672 12.75 31.5L12.75 10.5C12.75 10.36328 12.63672 10.25 12.5 10.25 12.36328 10.25 12.25 10.36328 12.25 10.5zM17.25 10.5L17.25 31.5C17.25 31.63672 17.36328 31.75 17.5 31.75 17.63672 31.75 17.75 31.63672 17.75 31.5L17.75 10.5C17.75 10.36328 17.63672 10.25 17.5 10.25 17.36328 10.25 17.25 10.36328 17.25 10.5zM22.25 10.5L22.25 31.5C22.25 31.63672 22.36328 31.75 22.5 31.75 22.63672 31.75 22.75 31.63672 22.75 31.5L22.75 10.5C22.75 10.36328 22.63672 10.25 22.5 10.25 22.36328 10.25 22.25 10.36328 22.25 10.5z"/></g></svg>
