<svg xmlns="http://www.w3.org/2000/svg" width="88" height="88" viewBox="0 0 88 88">  <path d="M35.656,0.2695 C35.37084,0.304657 35.10522,0.43747 34.906,0.6445 L0.531,36.6135 C0.06616,37.10959 0.07788,37.883 0.56225,38.3635 L49.93725,85.6135 L35.03125,85.7385 C34.73047,85.730688 34.44531,85.85569 34.25,86.08225 C33.98438,86.38694 33.92578,86.81663 34.10547,87.17995 C34.28125,87.54323 34.66016,87.76198 35.0625,87.73854 L69.0315,87.51979 C69.30103,87.515884 69.55884,87.40651 69.74634,87.2112 C69.93384,87.01979 70.03931,86.75807 70.0354,86.48854 C70.03149,86.21901 69.91821,85.9612 69.72681,85.7737 C69.5315,85.5862 69.26978,85.48464 69.00025,85.48854 L54.28125,85.58229 L87.46925,50.92629 C87.69972,50.6841 87.82081,50.35598 87.80909,50.02395 C87.797371,49.68801 87.65284,49.37161 87.40675,49.14504 L36.68775,0.61404 C36.660406,0.58279 36.629156,0.55154 36.597906,0.52029 C36.332286,0.31326 35.996346,0.22341 35.660406,0.27029 L35.656,0.2695 Z M34.87475,4.332 L42.96855,43.144 C43.07793,43.64791 43.48808,44.03462 43.99975,44.11275 L83.93775,50.95655 L52.43775,83.89455 L52.2815,81.67575 L51.1565,81.6445 L51.2815,83.457 L3.9065,38.113 L18.3445,38.58175 L18.254656,36.92555 L4.160656,36.42555 L34.879656,4.33155 L34.87475,4.332 Z M37.53095,4.8945 L82.81195,48.2385 L45.21795,41.801 L37.53095,4.8945 Z M20.78095,37.0195 L20.870794,38.6757 L23.370794,38.76945 L23.3122,37.08195 L20.78095,37.0195 Z M25.81215,37.17575 L25.870744,38.86325 L31.058244,39.05075 C31.425434,39.121063 31.792624,38.93747 31.960584,38.60153 C32.128554,38.2695 32.054334,37.86716 31.776994,37.61325 C31.74965,37.589813 31.7184,37.570281 31.68715,37.55075 C31.667619,37.539031 31.648088,37.531219 31.628556,37.5195 C31.609025,37.507781 31.589494,37.499969 31.569962,37.48825 C31.429342,37.402313 31.265272,37.35934 31.101212,37.36325 L25.820012,37.17575 L25.81215,37.17575 Z M50.34315,65.23775 C50.19081,65.269 50.0619,65.35884 49.97987,65.48775 C49.897839,65.62056 49.87049,65.77681 49.905651,65.92525 L50.718151,76.51925 L51.874351,76.51925 L51.030601,65.86325 C51.050132,65.69137 50.995445,65.5195 50.874351,65.3945 C50.733731,65.25388 50.534511,65.19528 50.343101,65.23825 L50.34315,65.23775 Z M50.8744,78.20675 L50.9994,79.95675 L52.1556,79.95675 L52.0306,78.23795 L50.8744,78.20675 Z" fill="#00b087"/></svg>
