<svg xmlns="http://www.w3.org/2000/svg" width="36.36" height="36.36" viewBox="0 0 36.36 36.36"><title>calculate</title><g id="ae486c5c-6357-4e63-b488-c32e4fe08a21" data-name="Layer 2"><g id="e48fbce1-9a60-47c9-ab91-1e83938e04dc" data-name="Layer 1"><path d="M4,0A4.15,4.15,0,0,0,0,4.14C0,8.56,0,13.08,0,17a.85.85,0,0,0,.81.81H17a.85.85,0,0,0,.81-.81c0-4.87,0-10.91,0-16.16A.85.85,0,0,0,17,0ZM18.57.81V35.55a.85.85,0,0,0,.81.81H32.24a4.15,4.15,0,0,0,4.12-4.13V4.14A4.15,4.15,0,0,0,32.22,0H19.38A1,1,0,0,0,18.57.81ZM4,1.62H16.15c0,4.79,0,10.06,0,14.54H1.61c0-4.19,0-8.42,0-12A2.61,2.61,0,0,1,4,1.62Zm16.15,0h12a2.51,2.51,0,0,1,2.53,2.52V32.23a2.5,2.5,0,0,1-2.53,2.51h-12ZM8.1,5.25V8.08H5.27V9.7H8.1v2.83H9.71V9.7h2.83V8.08H9.71V5.25ZM23.83,15.76v1.61H31.1V15.76ZM.73,18.58a.84.84,0,0,0-.73.81c0,2.83,0,10.89,0,12.84a4.14,4.14,0,0,0,4.13,4.13H17a.84.84,0,0,0,.8-.81V19.39a.84.84,0,0,0-.8-.81Zm23.1.41V20.6H31.1V19ZM1.62,20.2H16.15V34.74h-12a2.5,2.5,0,0,1-2.53-2.51q0-6,0-12Zm3.65,6.46v1.62h7.27V26.66Z" fill="#009639"/></g></g></svg>