<svg xmlns="http://www.w3.org/2000/svg" width="64" height="64" viewBox="0 0 64 64"><title>calendar</title><g id="d36c478a-5193-402d-800e-96d5f7b961aa" data-name="calender"><path d="M61.12,63.5H48.84V51.2H63.5V61.3A2.29,2.29,0,0,1,61.12,63.5Zm-11.25-1H61.12a1.31,1.31,0,0,0,1.35-1.25V52.15H49.87Zm-2.49,1H32.71V51.2H47.38Zm-13.63-1h12.6V52.15H33.75Zm-2.48,1H16.61V51.2H31.27Zm-13.63-1h12.6V52.15H17.64Zm-2.48,1H2.88A2.29,2.29,0,0,1,.5,61.3V51.2H15.16ZM1.53,52.15V61.3a1.31,1.31,0,0,0,1.35,1.25H14.13V52.15Zm62-2.35H48.82l0-12.81H63.49Zm-13.64-.95h12.6V37.94H49.87Zm-2.47.95H32.71V37H47.38Zm-13.63-.95h12.6V37.94H33.75Zm-2.48.95H16.61V37H31.27Zm-13.63-.95h12.6V37.94H17.64Zm-2.48.95H.5V37H15.16ZM1.53,48.85h12.6V37.94H1.53Zm62-13.19H48.82l0-12.87H63.49Zm-13.64-.95h12.6v-11H49.87Zm-2.47.95H32.71l0-12.87H47.38Zm-13.63-.95h12.6v-11H33.76Zm-2.48.95H16.61V22.79H31.27Zm-13.63-.95h12.6v-11H17.64Zm-2.48.95H.5V22.79H15.16ZM1.53,34.71h12.6v-11H1.53Zm62-13.21H.5V9A3.48,3.48,0,0,1,4.05,5.64h9.27v4.2c0,.18,0,.33,0,.49a4.62,4.62,0,0,0,5,4.14A4.89,4.89,0,0,0,21.6,13a4.14,4.14,0,0,0,1.21-3.16V5.64H41.13v4.2A4.56,4.56,0,0,0,45.63,14a4.9,4.9,0,0,0,3.43-1.12,4.24,4.24,0,0,0,1.57-3V5.64H60.4v.09A3.44,3.44,0,0,1,63.5,9Zm-62-.95H62.47V9a2.49,2.49,0,0,0-2.59-2.38h-.51V6.6H51.66V9.84a5.66,5.66,0,0,1-6.09,5.08A5.57,5.57,0,0,1,40.1,9.87V6.6H23.84V9.84a5.06,5.06,0,0,1-1.47,3.83,6,6,0,0,1-4,1.76,5.65,5.65,0,0,1-6.09-5,5.23,5.23,0,0,1,0-.56V6.6H4.06a2.65,2.65,0,0,0-1.8.73A2.26,2.26,0,0,0,1.53,9ZM18,12.88a3.78,3.78,0,0,1-3.93-3.62V4.12A3.78,3.78,0,0,1,18,.5a3.78,3.78,0,0,1,3.92,3.62V9.26a3.79,3.79,0,0,1-3.85,3.62ZM18,1.45a2.79,2.79,0,0,0-2.89,2.67V9.26A2.79,2.79,0,0,0,18,11.93l.06.48v-.48a2.8,2.8,0,0,0,2.84-2.67V4.12A2.79,2.79,0,0,0,18,1.45ZM45.94,12.88A3.78,3.78,0,0,1,42,9.26V4.12a3.94,3.94,0,0,1,7.85,0V9.26A3.78,3.78,0,0,1,45.94,12.88Zm0-11.43a2.79,2.79,0,0,0-2.89,2.67V9.26a2.9,2.9,0,0,0,5.79,0V4.12A2.8,2.8,0,0,0,45.94,1.45Z" fill="#00b087"/></g></svg>