<svg xmlns="http://www.w3.org/2000/svg" width="64" height="64" viewBox="0 0 64 64"><title>call</title><g id="904a1c28-3c98-4638-ac16-4e7427e8b501" data-name="call"><path d="M45.45,63.5H18.55A3.53,3.53,0,0,1,15,60V4A3.53,3.53,0,0,1,18.55.5h26.9A3.53,3.53,0,0,1,49,4V60A3.53,3.53,0,0,1,45.45,63.5ZM18.55,1.61A2.4,2.4,0,0,0,16.13,4V60a2.4,2.4,0,0,0,2.42,2.39h26.9A2.41,2.41,0,0,0,47.87,60V4a2.41,2.41,0,0,0-2.42-2.39Z" fill="#00b087"/><ellipse cx="32" cy="58.76" rx="2.24" ry="2.21" fill="#00b087"/><path d="M46.14,54.74H17.73a.28.28,0,0,1-.28-.28V7.31A.29.29,0,0,1,17.73,7H46.14a.29.29,0,0,1,.28.28V54.46A.28.28,0,0,1,46.14,54.74ZM18,54.19H45.85V7.59H18Z" fill="#00b087"/></g></svg>