<svg xmlns="http://www.w3.org/2000/svg" width="25.37" height="22.35" viewBox="0 0 25.37 22.35"><title>cart</title><g id="e787f50a-e2f6-4dd3-b87c-5fbffa78495f" data-name="Layer 2"><g id="f71a6512-3a54-4ebd-9306-f35fc0eae4b9" data-name="Layer 1"><path d="M.6,0a.61.61,0,0,0,0,1.21H3.74l3.18,15c.08.37.32.68.63.68h15.1a.64.64,0,0,0,.62-.61.63.63,0,0,0-.62-.6H8L4.82.47A.63.63,0,0,0,4.23,0ZM6.65,3.62l.78,3.93h5V3.62Zm6.94,0V7.55h4.84V3.62Zm6,0V7.55h4.83l.91-3.93Zm-12,5.14.79,3.93h3.92V8.76Zm5.92,0v3.93h4.84V8.76Zm6,0v3.93h3.63l.91-3.93Zm-8.76,9.36A2.12,2.12,0,1,0,13,20.24,2.12,2.12,0,0,0,10.87,18.12Zm8.46,0a2.12,2.12,0,1,0,2.12,2.12A2.11,2.11,0,0,0,19.33,18.12Z" fill="#fff"/></g></g></svg>