<svg xmlns="http://www.w3.org/2000/svg" width="40" height="40" viewBox="0 0 40 40"><title>cart-time</title><g id="20e26751-d309-4905-bc68-42bdf374ba9b" data-name="Layer 2"><g id="344d3e30-a3ca-49e8-925b-13cf1ec90dcc" data-name="Layer 1"><path d="M20,2.91A17.09,17.09,0,1,1,2.91,20,17.11,17.11,0,0,1,20,2.91M20,0A20,20,0,1,0,40,20,20,20,0,0,0,20,0Zm8.44,29.41a1.47,1.47,0,0,1-.82-.26l-8.26-5.7a1.47,1.47,0,0,1-.63-1.2V9.45a1.46,1.46,0,0,1,2.91,0v12l7.63,5.27a1.45,1.45,0,0,1-.83,2.65Z" fill="#28af88"/></g></g></svg>