<svg xmlns="http://www.w3.org/2000/svg" width="74.37" height="40" viewBox="0 0 74.37 40"><title>Performance</title><g id="f17a3fff-c336-4c88-ad5a-fc191ae98109" data-name="Layer 2"><g id="ca5ecde5-128c-42b9-a5fd-a7cac2a78fd7" data-name="Layer 1"><path d="M66.37,0a8,8,0,0,0-6.61,12.65l-7,9.8a8,8,0,0,0-13.22,1.14l-8-9.3a8.54,8.54,0,0,0,.41-2.53,8.08,8.08,0,1,0-16.16,0,7.65,7.65,0,0,0,2,5.3L12.24,25a7.89,7.89,0,0,0-4.16-1.14,8.08,8.08,0,1,0,8.08,8.08,8.23,8.23,0,0,0-1.47-4.65L20.41,19a7.9,7.9,0,0,0,9.3-1.71l8.66,10.2v.16a8.08,8.08,0,1,0,16.16,0,6.45,6.45,0,0,0-.24-1.79L62,15.1a8.28,8.28,0,0,0,4.25,1.23,8.05,8.05,0,0,0,8.08-8.09A8,8,0,0,0,66.37,0ZM8.08,36.73a4.82,4.82,0,0,1-4.81-4.81A4.88,4.88,0,0,1,8.08,27.1a4.89,4.89,0,0,1,4.82,4.82A4.82,4.82,0,0,1,8.08,36.73ZM23.92,16.57a4.82,4.82,0,1,1,0-9.63,4.82,4.82,0,0,1,0,9.63ZM46.45,32.41a4.82,4.82,0,1,1,4.82-4.82A4.73,4.73,0,0,1,46.45,32.41ZM66.37,12.9a4.82,4.82,0,1,1,4.81-4.82A4.83,4.83,0,0,1,66.37,12.9Z" fill="#28af88"/></g></g></svg>