<svg xmlns="http://www.w3.org/2000/svg" width="57.82" height="40.46" viewBox="0 0 57.82 40.46"><title>cart-risk</title><g id="90c53aca-c396-4b31-a27b-38b6780d65af" data-name="Layer 2"><g id="83b20d29-fe61-41dd-9c7b-0a3a8b6a60bf" data-name="Layer 1"><path d="M24.49,40.46h9.38a1.49,1.49,0,0,0,1.32-2.22l-4.64-8.17a1.52,1.52,0,0,0-2.63,0l-4.64,8.17a1.39,1.39,0,0,0,1.21,2.22Z" fill="#28af88"/><path d="M56.47,30.37h-.2A142.13,142.13,0,0,0,29,27.64h-.1A140.17,140.17,0,0,0,2.1,30.27,1.19,1.19,0,1,1,1.59,28a137.79,137.79,0,0,1,27.34-2.73A149.66,149.66,0,0,1,56.78,28a1.18,1.18,0,0,1,.9,1.41,1.37,1.37,0,0,1-1.21,1Z" fill="#28af88"/><path d="M45.88,3v.1A5.91,5.91,0,0,0,48.4,4.34a4.44,4.44,0,0,0,1.62.1,4.69,4.69,0,0,0,2.12-.61v-.1a2.2,2.2,0,0,1,.1-.8A5.13,5.13,0,0,1,53.35,1a5.05,5.05,0,0,0,.7-.81c0-.1.1-.1.1-.2h-.1c-.2.1-.4.3-.6.4a13,13,0,0,1-1.62,1,3,3,0,0,1-.8.41,1.73,1.73,0,0,1-1,0,1.25,1.25,0,0,1-.81-.61c-.1-.1-.2-.3-.3-.4s-.2-.2-.41-.1a4.35,4.35,0,0,0-.7.4,1.53,1.53,0,0,1-.71.3,1.76,1.76,0,0,1-1.41-.3A1.83,1.83,0,0,1,45,.61a11.43,11.43,0,0,0,.71.9A7.92,7.92,0,0,1,45.88,3Z" fill="#28af88"/><polygon points="44.97 0.6 44.97 0.6 44.97 0.61 44.97 0.6" fill="#28af88"/><path d="M57.58,4.94c-.2-.1-.3-.2-.5-.3a4.22,4.22,0,0,0-1.92-.5,4.58,4.58,0,0,0-1.61.3.1.1,0,0,0-.1.1.37.37,0,0,0-.1.3c-.1.1,0,.1,0,.1.4.31.7.51,1,.71a12.27,12.27,0,0,1,2,1.92c.1.1.1.1.2.1s.31-.1.41-.3a.77.77,0,0,0-.1-.51,4.83,4.83,0,0,0-2.22-1.51.37.37,0,0,0-.3-.1h0a.44.44,0,0,1,.3-.1,2.45,2.45,0,0,1,1.51.1,4.11,4.11,0,0,1,.91.5.35.35,0,0,0,.2.1.58.58,0,0,0,.51-.3A.49.49,0,0,0,57.58,4.94Z" fill="#28af88"/><path d="M53.15,5.75a8.61,8.61,0,0,1-4.24.3,13.88,13.88,0,0,1-4.54-1.41c-3.43,2.12-6.16,6.86-7,12.71-.21,1-.21,1.92-.31,2.73.1.6.51,2.12,1.92,2.32,1.82.3,14.13,2,14.13,2s2,.2,2.62-1.42c.1-.2.1-.4.2-.6s0-.2.1-.2a16.11,16.11,0,0,0,.4-2.12c.91-5.85-.5-11.3-3.32-14.33Zm-1.42,8.11a2.73,2.73,0,0,1-3.06,2.25l2,4L48,19.6l-1.76-3.88L46,15.66l-.65,3.42-2.18-.41,1.73-9.13,4,.75C51.09,10.72,52.07,12.06,51.73,13.86Z" fill="#28af88"/><path d="M48.43,12.26l-1.77-.33-.36,1.9,1.77.33c.78.15,1.32-.06,1.45-.72S49.2,12.41,48.43,12.26Z" fill="#28af88"/><path d="M11.5,2.1a9.83,9.83,0,1,1-9.83,9.83A9.83,9.83,0,0,1,11.5,2.1m0-1.67A11.5,11.5,0,1,0,23,11.93,11.5,11.5,0,0,0,11.5.43Zm4.85,16.91a.84.84,0,0,1-.47-.15l-4.75-3.28a.85.85,0,0,1-.36-.69V5.86a.84.84,0,0,1,1.67,0v6.92l4.39,3A.85.85,0,0,1,17.05,17a.87.87,0,0,1-.69.36Z" fill="#28af88"/></g></g></svg>