<svg xmlns="http://www.w3.org/2000/svg" width="44.16" height="40" viewBox="0 0 44.16 40"><title>cart-price</title><g id="f2b65aef-58ee-442f-8315-6ee22611a70b" data-name="Layer 2"><g id="b507b493-754f-4c38-87c3-4334895d01fb" data-name="Layer 1"><path d="M41.8,20.58l-2.11-12L43.56,5.9A1.4,1.4,0,0,0,42,3.6L38.08,6.3,27.57.19a1.44,1.44,0,0,0-1.52.06L.6,18a1.41,1.41,0,0,0-.35,2L13.81,39.4a1.44,1.44,0,0,0,.91.58,1.45,1.45,0,0,0,1-.23L41.24,22a1.38,1.38,0,0,0,.56-1.38ZM15.31,36.64l-12-17.12L27,3.06l8.59,5-3.8,2.66h0A1.4,1.4,0,1,0,33.35,13l3.8-2.65,1.75,9.79Z" fill="#28af88"/></g></g></svg>