<svg xmlns="http://www.w3.org/2000/svg" width="70" height="70" viewBox="0 0 70 70"><title>cgt</title><g id="a51ed282-4a95-4f9c-bd5f-804d6bf6660b" data-name="Layer 2"><g id="bf632b9f-0884-4f59-8e7d-4666cdaa2476" data-name="Layer 1"><path d="M1.47,13.83H56.23a1.37,1.37,0,0,1,1.47,1.23V68.78A1.37,1.37,0,0,1,56.23,70H1.47A1.37,1.37,0,0,1,0,68.78V15.06A1.37,1.37,0,0,1,1.47,13.83Z" fill="#ededed"/><path d="M5.41,32.6H37.08V.63H8.83A3.46,3.46,0,0,0,5.41,4.1Zm7.25-17.32H30.6v.63H12.66Z" fill="#fff"/><path d="M69.38,33.23H37.7v32H65.94a3.46,3.46,0,0,0,3.44-3.47ZM63.75,52H45.81v-.63H63.75Zm0-5.52H45.81v-.63H63.75Z" fill="#fff"/><path d="M8.83,65.21H37.08v-32H5.41V61.74A3.46,3.46,0,0,0,8.83,65.21Zm3.83-15.95h8.46V40.94h.59v8.32H30.6v.63H21.71V58h-.59V49.89H12.66Z" fill="#fff"/><path d="M65.94.63H37.7v32H69.38V4.1A3.46,3.46,0,0,0,65.94.63Zm-7.2,20.8L53.41,16l-5.33,5.38L47.64,21,53,15.59l-5.33-5.38.44-.44,5.33,5.38,5.33-5.39.44.45-5.33,5.38L59.19,21Z" fill="#fff"/><path d="M65.94,0H8.83A4.08,4.08,0,0,0,4.77,4.1V61.74a4.09,4.09,0,0,0,4.06,4.1H65.94A4.08,4.08,0,0,0,70,61.74V4.1A4.08,4.08,0,0,0,65.94,0Zm3.44,32.6H37.7V.63H65.94A3.46,3.46,0,0,1,69.38,4.1ZM65.94,65.21H37.7v-32H69.38V61.74A3.46,3.46,0,0,1,65.94,65.21ZM8.83.63H37.08v32H5.41V4.1A3.46,3.46,0,0,1,8.83.63ZM5.41,33.23H37.08v32H8.83a3.46,3.46,0,0,1-3.42-3.47Z" fill="#78be20"/><rect x="12.66" y="15.28" width="17.94" height="0.63" fill="#78be20"/><rect x="45.81" y="51.35" width="17.94" height="0.63" fill="#78be20"/><rect x="45.81" y="45.83" width="17.94" height="0.63" fill="#78be20"/><polygon points="21.12 58.04 21.71 58.04 21.71 49.89 30.6 49.89 30.6 49.26 21.71 49.26 21.71 40.95 21.12 40.95 21.12 49.26 12.66 49.26 12.66 49.89 21.12 49.89 21.12 58.04" fill="#78be20"/><polygon points="59.18 10.21 58.74 9.76 53.41 15.15 48.08 9.77 47.64 10.21 52.97 15.59 47.63 20.98 48.08 21.42 53.41 16.04 58.74 21.43 59.19 20.98 53.85 15.59 59.18 10.21" fill="#78be20"/></g></g></svg>