<svg xmlns="http://www.w3.org/2000/svg" width="14.21" height="18.89" viewBox="0 0 14.21 18.89"><title>change-alt</title><g id="2564da6f-b780-47e7-8999-8e9fab23e484" data-name="Layer 2"><g id="f14695fd-26c8-44c0-bbfa-b2a2654930bd" data-name="Layer 3"><path d="M11.25,5.92a.61.61,0,0,1-.42-.17.6.6,0,0,1,0-.84L12.78,3,10.83,1a.59.59,0,0,1,.84-.84L14,2.54a.58.58,0,0,1,0,.84L11.67,5.75a.63.63,0,0,1-.42.17Z" fill="#c1c1c1c1"/><path d="M3,18.89a.63.63,0,0,1-.42-.17L.17,16.35a.6.6,0,0,1,0-.84l2.37-2.37a.59.59,0,0,1,.84.84L1.43,15.93l2,1.95a.6.6,0,0,1,0,.84.63.63,0,0,1-.42.17Z" fill="#c1c1c1c1"/><path d="M7.4,10.06H3.85a3.85,3.85,0,1,1,0-7.69H5.33a.59.59,0,0,1,0,1.18H3.85a2.67,2.67,0,1,0,0,5.33H7.4a.59.59,0,0,1,0,1.18Z" fill="#c1c1c1c1"/><path d="M10.36,16.58H8.88a.6.6,0,0,1,0-1.19h1.48a2.67,2.67,0,0,0,0-5.33H6.81a.59.59,0,0,1,0-1.18h3.55a3.85,3.85,0,1,1,0,7.7Z" fill="#c1c1c1c1"/><path d="M8.29,3A.6.6,0,0,1,7.1,3,.6.6,0,0,1,8.29,3" fill="#c1c1c1c1"/><path d="M10.66,3A.6.6,0,0,1,9.47,3a.6.6,0,0,1,1.19,0" fill="#c1c1c1c1"/><path d="M4.74,16a.6.6,0,0,1-1.19,0,.6.6,0,0,1,1.19,0" fill="#c1c1c1c1"/><path d="M7.1,16a.59.59,0,1,1-1.18,0A.59.59,0,1,1,7.1,16" fill="#c1c1c1c1"/></g></g></svg>