<svg xmlns="http://www.w3.org/2000/svg" width="64" height="64" viewBox="0 0 64 64"><title>change</title><g id="f7fc8780-6504-4687-83a4-5c6cb54e88fa" data-name="change"><g id="19f0353d-3dc0-4dff-88a8-c4f2dcc0eb2f" data-name="Layer 2"><g id="a5119395-34b3-4be9-adbf-8749f11877ce" data-name="Layer 1-2"><path d="M17,19.93a.55.55,0,0,1-.25-.07l-16-9.23a.47.47,0,0,1-.24-.42.49.49,0,0,1,.24-.42l8-4.59L16.85.56a.48.48,0,0,1,.48,0,.46.46,0,0,1,.24.41q0,3.68-.05,7.35l0,1.94c0,3.05-.07,6.11-.07,9.17a.49.49,0,0,1-.24.42A.55.55,0,0,1,17,19.93ZM2,10.21,16.46,18.6c0-2.78,0-5.56.07-8.34l0-1.94h0c0-2.17.05-4.33.05-6.5L9.19,6Z" fill="#00b087"/><path d="M53.81,63.5h0a.48.48,0,0,1-.42-.24l-4.62-8-4.59-8a.53.53,0,0,1,0-.49.51.51,0,0,1,.42-.24c2.51,0,5,0,7.19.1l2,0c3,.07,6.14.14,9.21.14a.49.49,0,0,1,.42.24.5.5,0,0,1,0,.49l-9.2,15.71A.49.49,0,0,1,53.81,63.5Zm-8.37-16,8.37,14.55,8.36-14.26c-2.81,0-5.64-.08-8.39-.15l-2,0h0C49.87,47.56,47.66,47.51,45.44,47.5Z" fill="#00b087"/></g></g><path d="M54.81,47.77h-1A36.94,36.94,0,0,0,17,10.83v-1A37.91,37.91,0,0,1,54.81,47.77Z" fill="#00b087"/></g></svg>