<svg xmlns="http://www.w3.org/2000/svg" width="64" height="64" viewBox="0 0 64 64"><title>close</title><g id="90958d48-dbb6-46b2-bfd6-bd7fd4a188ce" data-name="close"><path d="M32,63.5A31.5,31.5,0,1,1,63.5,32,31.53,31.53,0,0,1,32,63.5ZM32,1.24A30.76,30.76,0,1,0,62.76,32,30.8,30.8,0,0,0,32,1.24Z" fill="#00b087"/><path d="M15.54,47.77a.38.38,0,0,1-.26-.11.37.37,0,0,1,0-.53L47.12,15.3a.37.37,0,0,1,.52.52L15.8,47.66A.36.36,0,0,1,15.54,47.77Z" fill="#00b087"/><path d="M47.93,47.77a.4.4,0,0,1-.27-.11L15.82,15.82a.37.37,0,0,1,.53-.53L48.19,47.13a.39.39,0,0,1,0,.53A.38.38,0,0,1,47.93,47.77Z" fill="#00b087"/></g></svg>