<svg xmlns="http://www.w3.org/2000/svg" width="42.58" height="42.53" viewBox="0 0 42.58 42.53"><title>coins</title><g id="617cae13-06ba-4089-9556-da72df7d094a" data-name="Layer 2"><g id="c49e70c4-00a5-48fa-ab9a-1dbd020998c8" data-name="Layer 1"><path d="M9.56,0C4.21,0,0,1.8,0,4.12V38.18c0,2.32,4.21,4.16,9.56,4.16s9.56-1.84,9.56-4.16V4.12C19.11,1.8,14.9,0,9.56,0Zm8.61,32.55c0,1.56-3.5,3.22-8.61,3.22A18.94,18.94,0,0,1,3.88,35C2,34.34.95,33.45.9,32.59V28.71C2.41,30.13,5.63,31,9.51,31s7.1-.95,8.61-2.32v3.83Zm0-5.68c0,1.56-3.5,3.22-8.61,3.22S.95,28.43.9,26.87V23c1.51,1.42,4.73,2.32,8.61,2.32s7.1-.95,8.61-2.32v3.88Zm0-5.68c0,1.56-3.5,3.22-8.61,3.22S.95,22.75.9,21.19V17.31c1.51,1.42,4.73,2.32,8.61,2.32s7.1-.95,8.61-2.32v3.88Zm0-5.68c0,1.56-3.5,3.22-8.61,3.22S.95,17,.9,15.47V11.64C2.41,13.06,5.63,14,9.51,14s7.1-.95,8.61-2.32v3.88ZM.9,9.79V6A8.15,8.15,0,0,0,3.55,7.43a19.26,19.26,0,0,0,6,.9,19.26,19.26,0,0,0,6-.9A7.34,7.34,0,0,0,18.12,6V9.84c0,1.56-3.5,3.22-8.61,3.22S.95,11.35.9,9.79ZM9.56.9c5.06,0,8.61,1.7,8.61,3.22v.09c0,.85-1.18,1.7-2.93,2.32a18.88,18.88,0,0,1-5.68.8,18.94,18.94,0,0,1-5.68-.8C2.08,5.91,1,5.06.95,4.21v0C.9,2.6,4.45.9,9.56.9Zm0,40.54c-4.87,0-8.33-1.56-8.61-3v-4A8.15,8.15,0,0,0,3.6,35.86a19.26,19.26,0,0,0,6,.9c3.88,0,7.1-.95,8.61-2.32v3.93c-.28,1.51-3.74,3.08-8.61,3.08Z" fill="#00b087"/><path d="M42.58,21.33V15.66c0-2.32-4.21-4.16-9.56-4.16s-9.56,1.84-9.56,4.16V38.41c0,2.37,4.16,4.12,9.56,4.12s9.51-1.75,9.56-4.16Zm-.9,11.35c0,1.56-3.55,3.22-8.66,3.22s-8.61-1.66-8.61-3.22V28.81c1.51,1.42,4.73,2.32,8.61,2.32s7.1-.95,8.61-2.32v3.88Zm0-5.68c0,1.56-3.55,3.22-8.66,3.22S24.41,28.57,24.41,27V23.13c1.51,1.42,4.73,2.32,8.61,2.32s7.1-.95,8.61-2.32V27ZM24.41,21.33V17.46a8.15,8.15,0,0,0,2.65,1.47,20.24,20.24,0,0,0,11.92,0,7.34,7.34,0,0,0,2.65-1.47v3.88c0,1.56-3.5,3.22-8.61,3.22s-8.56-1.66-8.61-3.22ZM33,12.39c5.06,0,8.61,1.7,8.61,3.22v.09c0,.85-1.18,1.7-2.93,2.32a18.88,18.88,0,0,1-5.68.8,18.94,18.94,0,0,1-5.68-.8c-1.8-.62-2.89-1.47-2.93-2.32v0c0-1.56,3.55-3.26,8.61-3.26Zm0,29.19c-5.11,0-8.61-1.66-8.61-3.22V34.49c1.51,1.42,4.73,2.32,8.61,2.32s7.1-.95,8.61-2.32v3.88c0,1.56-3.5,3.22-8.61,3.22Z" fill="#00b087"/></g></g></svg>