<svg xmlns="http://www.w3.org/2000/svg" width="64" height="64" viewBox="0 0 64 64"><title>collapse_1</title><g id="4991b59c-4be3-47f9-a3d6-d66e3b08eacf" data-name="collapse_1"><path d="M32,41a.37.37,0,0,1-.28-.13L16.11,23.73a.46.46,0,0,1,0-.6.37.37,0,0,1,.56,0L32,40,47.33,23.13a.37.37,0,0,1,.56,0,.46.46,0,0,1,0,.6L32.28,40.87A.37.37,0,0,1,32,41Z" fill="#00b087"/></g><g id="d4518f00-8415-46f7-bb1c-0319eac7ebd5" data-name="collapse_2"><path d="M32,63.5A31.5,31.5,0,1,1,63.5,32,31.53,31.53,0,0,1,32,63.5ZM32,1.24A30.76,30.76,0,1,0,62.76,32,30.8,30.8,0,0,0,32,1.24Z" fill="#00b087"/></g></svg>