<svg xmlns="http://www.w3.org/2000/svg" width="706.57" height="824.67" viewBox="0 0 706.57 824.67"><title>coming-soon</title><g id="0b139a34-9fad-4eb6-a707-ee0ebd71fb37" data-name="Layer 2"><g id="8dd68b4f-193b-45f7-a26b-865b3bf63dee" data-name="Layer 1"><g id="74e855ef-6c26-495e-8d7e-5252da96785f" data-name="abd26a37-4245-4f02-ba16-0a92a2d3e8b3"><path d="M361.18,300.41,318.33,307,314,278.52,356.83,272Zm-39.67,2.23,35.34-5.41-3.2-20.94-35.34,5.41Z" fill="#00b087"/><path d="M365.89,332.23l-42.7,6.53-4.35-28.45,42.7-6.53Zm-39.52,2.2,35.19-5.38-3.21-20.94-35.18,5.38Z" fill="#00b087"/><path d="M370.75,364.07l-42.69,6.53-4.31-28.19,42.69-6.53Zm-39.51,2.2,35.19-5.38-3.15-20.58-35.19,5.38Z" fill="#00b087"/><path d="M314.67,307.52l-96.4,14.75-4.35-28.45,96.4-14.74Zm-93.16,10.41,88.84-13.59-3.21-20.93L218.3,297Z" fill="#00b087"/><path d="M319.54,339.31l-96.41,14.75-4.35-28.45,96.41-14.74Zm-93.17,10.41,88.84-13.59L312,315.2l-88.84,13.58Z" fill="#00b087"/><path d="M324.41,371.16,228,385.9l-4.39-28.71L320,342.45Zm-93.17,10.4L320.08,368l-3.21-21L228,360.57Z" fill="#00b087"/><path d="M329.29,403.1l-96.4,14.74-4.35-28.44,96.4-14.74Zm-93.17,10.41L325,399.92,321.77,379l-88.84,13.58Z" fill="#00b087"/><path d="M375.64,396l-42.7,6.53-4.35-28.44,42.7-6.53Zm-39.52,2.2,35.19-5.38L368.12,372l-35.19,5.38Z" fill="#00b087"/><path d="M422,388.93l-43.47,6.64-4.35-28.44,42.75-6.54Zm-40.29,2.31,36-5.5L414,364.93l-35.49,5.43Z" fill="#00b087"/><path d="M417.1,357l-43.46,6.65-4.32-28.19,42.75-6.54Zm-40.28,2.32,36-5.51-3.67-20.5-35.49,5.43Z" fill="#00b087"/><path d="M412.23,325.14l-43.46,6.65-4.35-28.45,42.74-6.54ZM372,327.46,408,322l-3.72-20.86-35.49,5.43Z" fill="#00b087"/><path d="M407.32,293.36,363.9,300l-4.35-28.45L403,264.91Zm-40.23,2.31,36-5.51-3.2-20.94-36,5.51Z" fill="#00b087"/><path d="M464.75,465.09,220.61,502.43,171.05,178.34l206.18-31.52L421,179ZM224.81,496.52,459,460.71,416.34,181.9l-40.46-29.77L176.8,182.57Z" fill="#00b087"/><path d="M380.74,159.44l24.79,18.21L384,180.94l-3.28-21.5m-7-11.3,5.9,38.58,38.58-5.9-44.33-32.76Z" fill="#00b087"/><path d="M340.08,217.51l-130.3,19.93a2.55,2.55,0,0,1-2.91-2.14,2.49,2.49,0,0,1,2.09-2.84h0l130.3-19.93a2.46,2.46,0,0,1,2.84,2s0,.07,0,.1a2.49,2.49,0,0,1-2,2.89Z" fill="#00b087"/><path d="M344.51,246.47,214.21,266.4a2.6,2.6,0,1,1-.79-5.14l130.3-19.93a2.6,2.6,0,1,1,.79,5.14Z" fill="#00b087"/><path d="M430.41,421,300.16,440.88a2.54,2.54,0,0,1-2.9-2.13h0a2.5,2.5,0,0,1,2.09-2.85h0L429.65,416a2.51,2.51,0,0,1,2.89,2v.06a2.54,2.54,0,0,1-2.14,2.9Z" fill="#00b087"/><path d="M433.35,440.15l-86.83,13.28a2.45,2.45,0,0,1-1.44-4.68,2.83,2.83,0,0,1,.7-.11l86.84-13.27a2.44,2.44,0,1,1,1.43,4.67A2.38,2.38,0,0,1,433.35,440.15Z" fill="#00b087"/></g><path d="M385.22,189.7V475.38H628.67V189.7H384" fill="#fff" stroke="#28af88" stroke-miterlimit="10" stroke-width="4.55"/><rect x="407.52" y="340.9" width="135.24" height="12.42" rx="3.73" ry="3.73" fill="#ededed"/><rect x="504.44" y="363.88" width="99.44" height="12.42" rx="3.73" ry="3.73" fill="#ededed"/><rect x="407.52" y="363.88" width="86.86" height="12.42" rx="3.73" ry="3.73" fill="#ededed"/><rect x="551.97" y="340.9" width="51.92" height="12.42" rx="3.73" ry="3.73" fill="#ededed"/><rect x="467.39" y="414.52" width="135.24" height="12.42" rx="3.73" ry="3.73" fill="#ededed"/><rect x="406.27" y="391.54" width="99.44" height="12.42" rx="3.73" ry="3.73" fill="#ededed"/><rect x="515.77" y="391.54" width="86.86" height="12.42" rx="3.73" ry="3.73" fill="#ededed"/><rect x="406.27" y="414.52" width="51.92" height="12.42" rx="3.73" ry="3.73" fill="#ededed"/><g id="0213d5b6-696b-477e-b3cc-f8a1d1a8fd04" data-name="6bc5a7a2-b876-4246-b8ab-45395474df4c"><g id="a2b4710f-218e-4d9c-a852-66e1fd455fa8" data-name="f7ccfdf3-6d04-4874-989a-f2c3e6bf66a6"><rect x="506.75" y="290.18" width="39.9" height="4.36" fill="#afafaf" stroke="#28af88" stroke-miterlimit="10" stroke-width="0.57"/><rect x="524.36" y="297.58" width="22.25" height="4.36" fill="#afafaf" stroke="#28af88" stroke-miterlimit="10" stroke-width="0.57"/><path d="M556,264.5v-1.24a9,9,0,0,0-8.94-9H464.46a9,9,0,0,0-9.06,9h0v2.25h0v17.61h0v27.73a9,9,0,0,0,9,9H547a9,9,0,0,0,9-9h0V282.13h0Zm-4.25,46.31a4.67,4.67,0,0,1-4.62,4.65H464.46a4.72,4.72,0,0,1-4.66-4.65V283.08h0v-2.31h91.91v1.36h0Zm-91.91-34.4v-6.7h91.91v6.7Zm91.91-11.91h0v.82H459.85v-2a4.66,4.66,0,0,1,4.66-4.62H547a4.66,4.66,0,0,1,4.77,4.54h0v1.25Z" fill="#afafaf" stroke="#28af88" stroke-miterlimit="10" stroke-width="0.57"/></g></g><rect x="51.61" y="363.28" width="608.68" height="348.57" rx="7.35" ry="7.35" fill="#fff"/><path d="M68.34,360.68h587a9.78,9.78,0,0,1,9.75,9.75V709.25a9.78,9.78,0,0,1-9.75,9.75H54.93a9.78,9.78,0,0,1-9.75-9.75V318.33s1.73-14,14.93-14.22,45.3,0,45.3,0,13.4-1,13.4-10.77-.2-26-.2-26-.61-14.62,13-14.42,52.41,0,52.41,0" fill="#fff" stroke="#28af88" stroke-miterlimit="10" stroke-width="4.88"/><g id="8c47e73d-0478-43c1-9a65-171391dcc80e" data-name="9535392c-77e2-46a5-9d62-4a97d387d7ba" opacity="0.38"><rect x="282.4" y="516.19" width="139.44" height="92.03" fill="none"/><polygon points="435.78 471.57 268.45 471.57 268.45 516.19 279.61 516.19 279.61 513.4 271.24 513.4 271.24 474.36 432.99 474.36 432.99 513.4 424.63 513.4 424.63 516.19 435.78 516.19 435.78 471.57" fill="#00b087"/><rect x="282.4" y="513.4" width="139.44" height="2.79" fill="#00b087"/><polygon points="421.84 608.22 282.4 608.22 282.4 516.19 279.61 516.19 279.61 611.01 424.63 611.01 424.63 516.19 421.84 516.19 421.84 608.22" fill="#00b087"/><rect x="421.84" y="513.4" width="2.79" height="2.79" fill="#00b087"/><rect x="279.61" y="513.4" width="2.79" height="2.79" fill="#00b087"/><path d="M391.16,574.76h-75.3V544.08h75.3ZM318.65,572h69.72v-25.1H318.65Z" fill="#00b087"/></g><line x1="397.26" y1="167.16" x2="372.62" y2="167.16" fill="#fff"/><path d="M180.33,258.69H129.86s-5.68,1.43-5.68,5.18v27.46s-.41,5.25-1.17,6.51c-2.49,4.12-8.79,13-16.87,13.14-6,.11-46.12,0-46.12,0s-9.33-1.68-9.33,8.69v33.57H195.34Z" fill="#ededed" opacity="0.65"/><circle cx="223.17" cy="119.99" r="7.7" fill="#28af88"/><circle cx="38.01" cy="173.24" r="7.7" fill="#28af88"/><circle cx="94.31" cy="192" r="4.13" fill="#28af88"/><circle cx="30.31" cy="241.3" r="4.13" fill="#28af88"/><circle cx="4.13" cy="314.29" r="4.13" fill="#28af88"/><circle cx="459.85" cy="68.02" r="6" fill="#28af88"/><circle cx="146.45" cy="24.34" r="3" fill="#28af88"/><circle cx="64.68" cy="4.13" r="4.13" fill="#28af88"/><circle cx="102.58" cy="96.71" r="4.13" fill="#28af88"/><circle cx="346.72" cy="106.47" r="4.13" fill="#28af88"/><circle cx="293.09" cy="110.61" r="4.13" fill="#28af88"/><circle cx="562.3" cy="58.74" r="4.13" fill="#28af88"/><circle cx="412.23" cy="94.91" r="4.13" fill="#28af88"/><circle cx="628.67" cy="165.54" r="4.13" fill="#28af88"/><circle cx="551.81" cy="151.56" r="4.13" fill="#28af88"/><circle cx="642.85" cy="57.16" r="5" fill="#28af88"/><circle cx="274.52" cy="51.15" r="7.7" fill="#28af88"/><line x1="53.07" y1="75.66" x2="78.9" y2="49.83" fill="none" stroke="#28af88" stroke-miterlimit="10" stroke-width="5.69"/><line x1="51.64" y1="50.54" x2="77.71" y2="76.61" fill="none" stroke="#28af88" stroke-miterlimit="10" stroke-width="5.69"/><line x1="90.06" y1="155.19" x2="106.82" y2="138.44" fill="none" stroke="#28af88" stroke-miterlimit="10" stroke-width="3.69"/><line x1="89.14" y1="138.9" x2="106.05" y2="155.81" fill="none" stroke="#28af88" stroke-miterlimit="10" stroke-width="3.69"/><line x1="146.35" y1="104.9" x2="163.1" y2="88.15" fill="none" stroke="#28af88" stroke-miterlimit="10" stroke-width="3.69"/><line x1="145.43" y1="88.61" x2="162.33" y2="105.52" fill="none" stroke="#28af88" stroke-miterlimit="10" stroke-width="3.69"/><line x1="657.21" y1="310.7" x2="673.96" y2="293.95" fill="none" stroke="#28af88" stroke-miterlimit="10" stroke-width="3.69"/><line x1="656.29" y1="294.41" x2="673.2" y2="311.32" fill="none" stroke="#28af88" stroke-miterlimit="10" stroke-width="3.69"/><line x1="349.74" y1="66.01" x2="357.72" y2="58.03" fill="none" stroke="#28af88" stroke-miterlimit="10" stroke-width="1.76"/><line x1="349.3" y1="58.25" x2="357.35" y2="66.3" fill="none" stroke="#28af88" stroke-miterlimit="10" stroke-width="1.76"/><line x1="601.31" y1="108.97" x2="632.8" y2="108.97" fill="none" stroke="#28af88" stroke-miterlimit="10" stroke-width="4.9"/><line x1="615.76" y1="92.79" x2="615.76" y2="124.57" fill="none" stroke="#28af88" stroke-miterlimit="10" stroke-width="4.9"/><line x1="670.03" y1="196.47" x2="706.57" y2="196.47" fill="none" stroke="#28af88" stroke-miterlimit="10" stroke-width="5.69"/><line x1="686.79" y1="177.7" x2="686.79" y2="214.57" fill="none" stroke="#28af88" stroke-miterlimit="10" stroke-width="5.69"/><line x1="454.88" y1="106.97" x2="474.62" y2="106.97" fill="none" stroke="#28af88" stroke-miterlimit="10" stroke-width="3.07"/><line x1="463.93" y1="96.83" x2="463.93" y2="116.75" fill="none" stroke="#28af88" stroke-miterlimit="10" stroke-width="3.07"/><line x1="193.89" y1="41.37" x2="213.63" y2="41.37" fill="none" stroke="#28af88" stroke-miterlimit="10" stroke-width="3.07"/><line x1="202.94" y1="31.23" x2="202.94" y2="51.15" fill="none" stroke="#28af88" stroke-miterlimit="10" stroke-width="3.07"/><line x1="665.13" y1="269.32" x2="675.82" y2="269.32" fill="none" stroke="#28af88" stroke-miterlimit="10" stroke-width="1.67"/><line x1="670.03" y1="263.83" x2="670.03" y2="274.62" fill="none" stroke="#28af88" stroke-miterlimit="10" stroke-width="1.67"/><line x1="529.12" y1="100.96" x2="540.9" y2="100.96" fill="none" stroke="#28af88" stroke-miterlimit="10" stroke-width="1.83"/><line x1="534.52" y1="94.91" x2="534.52" y2="106.79" fill="none" stroke="#28af88" stroke-miterlimit="10" stroke-width="1.83"/><path d="M185.44,769.24l-3.67,2.44a19.71,19.71,0,0,0-16.7-8.56c-11.95,0-21.24,8.67-21.24,21.52s9.29,21.53,21.24,21.53a19.55,19.55,0,0,0,16.67-8.57l3.6,2.63c-4.18,6.3-11.7,10.19-20.27,10.19-14.72,0-25.81-10.66-25.81-25.78s11.09-25.77,25.81-25.77C173.71,758.87,181.45,762.83,185.44,769.24Z" fill="#009639"/><path d="M228.25,792.92c0,10-7.6,17.46-17.64,17.46a17.48,17.48,0,1,1,17.64-17.46Zm-31,0c0,7.88,5.8,13.61,13.39,13.61a13.63,13.63,0,0,0,0-27.25C203,779.28,197.22,785,197.22,792.92Z" fill="#009639"/><path d="M295.42,789.07v20.77h-4.1V790.33c0-6.84-4-11-10.91-11a11,11,0,0,0-11.34,11.23v19.3H265V790.33c0-6.84-4-11-10.87-11a11,11,0,0,0-11.34,11.23v19.3h-4.1V776h4.06v5.94c2.67-4.54,7.42-6.48,12.1-6.48,6.33,0,11.16,2.91,13.17,7.88,2.52-5.54,7.89-7.88,13.14-7.88C289.63,775.43,295.42,780.68,295.42,789.07Z" fill="#009639"/><path d="M313.14,763.8a2.89,2.89,0,0,1-2.95,2.92,2.86,2.86,0,0,1-2.92-2.92,2.92,2.92,0,0,1,2.92-3A3,3,0,0,1,313.14,763.8Zm-.9,46h-4.1V776h4.1Z" fill="#009639"/><path d="M355.72,789.07v20.77h-4.1V790.33c0-6.84-4-11-10.87-11a11,11,0,0,0-11.34,11.23v19.3h-4.1V776h4.06v5.94c2.67-4.54,7.42-6.48,12.1-6.48C350,775.43,355.72,780.68,355.72,789.07Z" fill="#009639"/><path d="M395.76,782.59V776h4.1v31.57c0,11.26-7.81,17.13-17.78,17.13-5.58,0-10.91-1.84-14.26-4.9l2.09-3a19.61,19.61,0,0,0,12.17,4.14c7.59,0,13.68-4.36,13.68-13.22v-4.82A14.8,14.8,0,0,1,382.55,810c-9.54,0-16.81-7.16-16.81-17.31s7.27-17.28,16.81-17.28A14.82,14.82,0,0,1,395.76,782.59Zm-25.85,10.12c0,7.55,5.36,13.46,13.07,13.46s13.1-5.8,13.1-13.46-5.51-13.43-13.1-13.43S369.91,785.22,369.91,792.71Z" fill="#009639"/><path d="M454.58,782.41A21.39,21.39,0,0,0,443.1,779c-5.29,0-9,2.3-9,6.12,0,3.13,2.48,4.85,7.7,5.47l4.32.5c7.06.83,11.12,3.75,11.12,9.11,0,6.41-5.86,10.15-14.57,10.15a23,23,0,0,1-13.93-4.32l1.9-3.06c2.63,2,6.23,3.82,12.06,3.82,6.12,0,10.33-2.09,10.33-6.34,0-3.13-2.59-5-7.81-5.61l-4.35-.47c-7.67-.87-11-4.21-11-9,0-6.23,5.36-9.93,13.17-9.93a23.57,23.57,0,0,1,13.28,3.81Z" fill="#009639"/><path d="M499.58,792.92c0,10-7.6,17.46-17.64,17.46a17.48,17.48,0,1,1,17.64-17.46Zm-31,0c0,7.88,5.8,13.61,13.39,13.61a13.63,13.63,0,0,0,0-27.25C474.35,779.28,468.55,785,468.55,792.92Z" fill="#009639"/><path d="M542.49,792.92c0,10-7.59,17.46-17.64,17.46a17.48,17.48,0,1,1,17.64-17.46Zm-31,0c0,7.88,5.8,13.61,13.39,13.61a13.63,13.63,0,0,0,0-27.25C517.26,779.28,511.46,785,511.46,792.92Z" fill="#009639"/><path d="M583.31,789.07v20.77h-4.1V790.33c0-6.84-4-11-10.87-11A11,11,0,0,0,557,790.54v19.3h-4.1V776H557v5.94c2.66-4.54,7.41-6.48,12.09-6.48C577.55,775.43,583.31,780.68,583.31,789.07Z" fill="#009639"/></g></g></svg>