<svg xmlns="http://www.w3.org/2000/svg" width="64" height="64" viewBox="0 0 64 64"><title>compare</title><g id="077f703e-fd52-4df1-9c2a-ae4bbba5e3be" data-name="compare"><path d="M19.76,51.26A19.26,19.26,0,1,1,39,32,19.28,19.28,0,0,1,19.76,51.26Zm0-37.57A18.31,18.31,0,1,0,38.07,32,18.34,18.34,0,0,0,19.76,13.69Z" fill="#00b087"/><path d="M44.24,51.26A19.26,19.26,0,1,1,63.5,32,19.28,19.28,0,0,1,44.24,51.26Zm0-37.57A18.31,18.31,0,1,0,62.55,32,18.33,18.33,0,0,0,44.24,13.69Z" fill="#00b087"/><path d="M32.3,18.16,32,17.9l-.3.26a19,19,0,0,0,0,28.47l.3-.26.3.26a19,19,0,0,0,0-28.47Z" fill="#00b087"/></g></svg>