<svg xmlns="http://www.w3.org/2000/svg" width="49.59" height="66.13" viewBox="0 0 49.59 66.13"><title>compare-fund</title><g id="Layer_2" data-name="Layer 2"><g id="Layer_3" data-name="Layer 3"><path d="M15.11,30.38a9.45,9.45,0,0,0,9.45-9.45H15.11V11.48a9.45,9.45,0,0,0,0,18.9ZM13.67,13.05v9.32H23a8,8,0,1,1-9.32-9.31Z" fill="#00b087"/><path d="M16.12,10.47v9.45h9.46A9.46,9.46,0,0,0,16.12,10.47Zm1.45,8V12A8,8,0,0,1,24,18.47Z" fill="#00b087"/><path d="M28.93,25.52h1.44v3.33H28.93Z" fill="#00b087"/><path d="M31.84,17.8h1.45V28.85H31.84Z" fill="#00b087"/><path d="M34.76,12.19H36.2V28.85H34.76Z" fill="#00b087"/><path d="M37.68,17.45h1.44v11.4H37.68Z" fill="#00b087"/><path d="M40.59,22.81H42v6H40.59Z" fill="#00b087"/><path d="M15.11,36.71a9.45,9.45,0,1,0,9.45,9.45H15.11ZM23,47.61a8,8,0,1,1-9.32-9.32v9.32Z" fill="#00b087"/><path d="M16.12,35.7v9.45h9.46A9.46,9.46,0,0,0,16.12,35.7Zm1.45,8V37.28A8,8,0,0,1,24,43.7Z" fill="#00b087"/><path d="M28.93,50.75h1.44v3.33H28.93Z" fill="#00b087"/><path d="M31.84,43h1.45v11H31.84Z" fill="#00b087"/><path d="M34.76,37.42H36.2V54.08H34.76Z" fill="#00b087"/><path d="M37.68,42.68h1.44v11.4H37.68Z" fill="#00b087"/><path d="M40.59,48H42v6H40.59Z" fill="#00b087"/><path d="M0,66.13H42l7.57-7.58V0H0Zm42.24-2.27V58.77h5.09ZM1.45,1.45h46.7V57.32H40.79v7.36H1.45Z" fill="#00b087"/></g></g></svg>