<svg xmlns="http://www.w3.org/2000/svg" width="64" height="64" viewBox="0 0 64 64"><title>compare_fund</title><g id="9947753e-72df-4223-9b6f-7f46b82d299c" data-name="compare_fund"><path d="M22,12.74v8.81h8.81A7.93,7.93,0,1,1,22,12.74m.94-1a8.87,8.87,0,1,0,8.87,8.87H22.92V11.74Z" fill="#00b087"/><path d="M24.81,11.79a8,8,0,0,1,6.94,6.94H24.81V11.79m-.94-1h0v8.86h8.88a8.87,8.87,0,0,0-8.88-8.86Z" fill="#00b087"/><path d="M22,37.14V46h8.81A7.93,7.93,0,1,1,22,37.14m.94-1A8.87,8.87,0,1,0,31.79,45H22.92V36.14Z" fill="#00b087"/><path d="M24.81,36.19a8,8,0,0,1,6.94,6.94H24.81V36.19m-.94-1v8.86h8.88a8.87,8.87,0,0,0-8.88-8.86Z" fill="#00b087"/><path d="M35.89,24.92h1.35V28H35.89Z" fill="#00b087"/><path d="M38.62,17.67H40V28H38.62Z" fill="#00b087"/><path d="M41.36,12.41h1.35V28H41.36Z" fill="#00b087"/><path d="M44.1,17.35h1.35V28H44.1Z" fill="#00b087"/><path d="M46.83,22.38h1.33V28H46.83Z" fill="#00b087"/><path d="M35.89,48.6h1.35v3.12H35.89Z" fill="#00b087"/><path d="M38.62,41.32H40V51.65H38.62Z" fill="#00b087"/><path d="M41.36,36.09h1.35V51.72H41.36Z" fill="#00b087"/><path d="M44.1,41h1.35v10.7H44.1Z" fill="#00b087"/><path d="M46.83,46h1.33v5.63H46.83Z" fill="#00b087"/><path d="M48.35,63.5H8.27V.5H55.73V56.11ZM9.21,62.56H48l6.83-6.84V1.44H9.21Z" fill="#00b087"/><path d="M52.93,56.81l-4.3,4.3v-4.3h4.3m2.26-.94h-7.5v7.51l7.5-7.51Z" fill="#00b087"/></g></svg>