<svg xmlns="http://www.w3.org/2000/svg" width="54.52" height="38.56" viewBox="0 0 54.52 38.56"><title>contact-mail</title><g id="2c603cee-e942-44cf-9ce0-7f4489485c44" data-name="Layer 2"><g id="c1962501-28d3-487e-9d03-e32e7e8cb620" data-name="093d84ae-6a81-4aaf-8e86-9857527a7380"><path d="M4.65,0A4.66,4.66,0,0,0,0,4.65V33.91a4.66,4.66,0,0,0,4.65,4.65H49.87a4.66,4.66,0,0,0,4.65-4.65V4.65A4.66,4.66,0,0,0,49.87,0Zm0,1.33H49.87A3.3,3.3,0,0,1,52,2.12L29.61,21.59a3.47,3.47,0,0,1-4.74,0L2.51,2.12a3.3,3.3,0,0,1,2.14-.79Zm-3,1.85L24,22.59a4.88,4.88,0,0,0,6.48,0L52.84,3.18a3.42,3.42,0,0,1,.35,1.47V33.91a3.3,3.3,0,0,1-3.32,3.32H4.65a3.3,3.3,0,0,1-3.32-3.32V4.65a3.28,3.28,0,0,1,.35-1.47Z" fill="#00b087"/></g></g></svg>