<svg xmlns="http://www.w3.org/2000/svg" width="64" height="64" viewBox="0 0 64 64"><title>corporate</title><g id="ab47aebc-bb79-4724-ac76-c377df5731fa" data-name="corprate"><path d="M32,63.5A31.5,31.5,0,1,1,63.5,32,31.53,31.53,0,0,1,32,63.5Zm0-62A30.52,30.52,0,1,0,62.52,32,30.55,30.55,0,0,0,32,1.48Z" fill="#00b087"/><path d="M44.5,15.27a2.43,2.43,0,0,0-2.39,2H34.8a.47.47,0,0,0-.41.41V32.25H30.27a.41.41,0,0,0-.36.45.4.4,0,0,0,.44.36h4V47.62a.43.43,0,0,0,.41.41h7.31a2.43,2.43,0,1,0,0-.81h-6.9V33.06h6.9a2.42,2.42,0,1,0,0-.81h-6.9V18.1h6.9a2.43,2.43,0,1,0,2.39-2.83Zm0,.81a1.62,1.62,0,1,1-1.62,1.62,1.62,1.62,0,0,1,1.62-1.62h0ZM21.85,18.91a3.26,3.26,0,1,0,3.26,3.26A3.26,3.26,0,0,0,21.85,18.91Zm0,.81a2.43,2.43,0,1,1-2.42,2.45,2.43,2.43,0,0,1,2.42-2.45Zm-4,7.28a1.67,1.67,0,0,0-1.23.5,1.59,1.59,0,0,0-.4,1.12c0,.06,3,17.46,3,17.46a.43.43,0,0,0,.4.34h4.56a.44.44,0,0,0,.41-.34l2.94-17.34h0a1.46,1.46,0,0,0-.39-1.24A1.67,1.67,0,0,0,25.87,27Zm0,.81h8.06a.83.83,0,0,1,.65.24.67.67,0,0,1,.16.54h0l-2.9,17H19.89L17,28.6h0a.67.67,0,0,1,.16-.54.91.91,0,0,1,.65-.24ZM44.5,31.07a1.62,1.62,0,1,1-1.62,1.61,1.62,1.62,0,0,1,1.62-1.61h0Zm0,15a1.62,1.62,0,1,1-1.62,1.61A1.6,1.6,0,0,1,44.43,46h.07Z" fill="#00b087"/></g></svg>