<svg xmlns="http://www.w3.org/2000/svg" width="64" height="64" viewBox="0 0 64 64"><title>dashboard</title><g id="08ac2d13-9444-476f-b933-2279e5bbde56" data-name="dashboard"><rect x="0.98" y="19.33" width="62.03" height="0.97" fill="#00b087"/><path d="M58.58,55.52H5.42A4.91,4.91,0,0,1,.5,50.61V13.39A4.91,4.91,0,0,1,5.42,8.48H58.58a4.91,4.91,0,0,1,4.92,4.91V50.61A4.91,4.91,0,0,1,58.58,55.52ZM5.42,9.44a4,4,0,0,0-3.95,4V50.61a4,4,0,0,0,4,4H58.58a4,4,0,0,0,4-4V13.39a4,4,0,0,0-4-4Z" fill="#00b087"/><path d="M41.34,49.32H22.75v-.47A9.33,9.33,0,0,1,32,39.49h0a9.3,9.3,0,0,1,9.31,9.35Zm-17.62-1H40.37a8.34,8.34,0,0,0-8.27-7.89h0A8.35,8.35,0,0,0,23.72,48.35Z" fill="#00b087"/><rect x="19.61" y="31.83" width="0.97" height="13.7" transform="translate(-22.72 30.48) rotate(-51.7)" fill="#00b087"/><rect x="6.74" y="48.35" width="5.76" height="0.97" fill="#00b087"/><rect x="51.27" y="48.06" width="5.76" height="0.97" fill="#00b087"/><rect x="31.52" y="25.5" width="0.97" height="5.76" fill="#00b087"/><rect x="43.67" y="31.07" width="5.76" height="0.97" transform="translate(-8.67 42.23) rotate(-45.08)" fill="#00b087"/><path d="M6.88,17.21a2.55,2.55,0,1,1,2.55-2.55A2.55,2.55,0,0,1,6.88,17.21Zm0-4.13a1.58,1.58,0,1,0,1.58,1.58A1.58,1.58,0,0,0,6.88,13.08Z" fill="#00b087"/><path d="M13.54,17.21a2.55,2.55,0,1,1,2.55-2.55A2.56,2.56,0,0,1,13.54,17.21Zm0-4.13a1.58,1.58,0,1,0,1.58,1.58A1.58,1.58,0,0,0,13.54,13.08Z" fill="#00b087"/><path d="M20.22,17.21a2.55,2.55,0,1,1,2.55-2.55A2.56,2.56,0,0,1,20.22,17.21Zm0-4.13a1.58,1.58,0,1,0,1.58,1.58A1.58,1.58,0,0,0,20.22,13.08Z" fill="#00b087"/></g></svg>