<svg xmlns="http://www.w3.org/2000/svg" width="64" height="64" viewBox="0 0 64 64"><title>description</title><g id="f4ce00c9-1ea1-4f19-86ba-5a6ddf7bc03d" data-name="description"><path d="M63,18.35H1A.53.53,0,1,1,1,17.3H63a.53.53,0,1,1,0,1.05Z" fill="#00b087"/><path d="M63,10H1a.53.53,0,1,1,0-1H63a.53.53,0,1,1,0,1Z" fill="#00b087"/><path d="M63,27.8H1a.53.53,0,1,1,0-1.05H63a.53.53,0,1,1,0,1.05Z" fill="#00b087"/><path d="M63,37.25H1a.53.53,0,1,1,0-1H63a.53.53,0,1,1,0,1Z" fill="#00b087"/><path d="M63,46.7H1a.53.53,0,1,1,0-1.05H63a.53.53,0,1,1,0,1.05Z" fill="#00b087"/><path d="M29.38,55.1H1a.53.53,0,1,1,0-1.05H29.38a.53.53,0,0,1,0,1.05Z" fill="#00b087"/></g></svg>