<svg xmlns="http://www.w3.org/2000/svg" width="232.31" height="270.04" viewBox="0 0 232.31 270.04"><title>doc-icon-gret</title><g id="fba66565-18ee-43c5-bb09-172cc958017d" data-name="Layer 2"><g id="e9aa7283-07b5-4736-839f-683cfa7537ce" data-name="Layer 1"><g opacity="0.8"><rect y="40.04" width="196" height="230" rx="5" fill="#ededed"/><rect x="35.31" y="1" width="196" height="230" rx="2.05" fill="#fff" stroke="#e5e5e5" stroke-miterlimit="10" stroke-width="2"/><path d="M168.31,23H32A15.71,15.71,0,0,0,16.31,38.67V237.33A15.71,15.71,0,0,0,32,253H196.64a15.7,15.7,0,0,0,15.67-15.67V65.67h-44Z" fill="#fff" stroke="#e5e5e5" stroke-miterlimit="10" stroke-width="2"/><line x1="168.31" y1="23" x2="212.31" y2="65.67" fill="#fff" stroke="#e5e5e5" stroke-miterlimit="10" stroke-width="2"/><rect x="34.26" y="144.73" width="108.88" height="10" rx="3" fill="#ededed"/><rect x="112.29" y="163.23" width="80.06" height="10" rx="3" fill="#ededed"/><rect x="34.26" y="163.23" width="69.93" height="10" rx="3" fill="#ededed"/><rect x="150.56" y="144.73" width="41.8" height="10" rx="3" fill="#ededed"/><rect x="82.46" y="204" width="108.88" height="10" rx="3" fill="#ededed"/><rect x="33.25" y="185.5" width="80.06" height="10" rx="3" fill="#ededed"/><rect x="121.41" y="185.5" width="69.93" height="10" rx="3" fill="#ededed"/><rect x="33.25" y="204" width="41.8" height="10" rx="3" fill="#ededed"/><rect x="33.75" y="51.86" width="35.82" height="35.82" rx="3" fill="#ededed"/><rect x="81.96" y="120.95" width="108.88" height="10" rx="3" fill="#ededed"/><rect x="32.74" y="102.45" width="80.06" height="10" rx="3" fill="#ededed"/><rect x="120.91" y="102.45" width="69.93" height="10" rx="3" fill="#ededed"/><rect x="32.74" y="120.95" width="41.8" height="10" rx="3" fill="#ededed"/></g></g></g></svg>