<svg xmlns="http://www.w3.org/2000/svg" width="64" height="64" viewBox="0 0 64 64"><title>documents</title><g id="25789aac-beb9-412d-944a-2c68b5eb77b1" data-name="documents"><g id="5205c5c8-5a4e-4067-85b7-ebe9b6246d77" data-name="Layer 2"><g id="43b1f211-4c47-4c5e-9aaf-bd55feb6bbcd" data-name="Layer 3"><path d="M13.59,32.45H28.72v1.36H13.59Z" fill="#00b087"/><path d="M13.59,41.26H36.17v1.36H13.59Z" fill="#00b087"/><path d="M13.59,50.06H36.17v1.36H13.59Z" fill="#00b087"/><path d="M19.18.5a.69.69,0,0,0-.68.68v9.48H5a.67.67,0,0,0-.67.68h0V62.82A.68.68,0,0,0,5,63.5H44.82a.68.68,0,0,0,.68-.68V53.33H59.05a.63.63,0,0,0,.47-.2.67.67,0,0,0,.2-.48V13.54a.69.69,0,0,0-.21-.5L46.31.68A.7.7,0,0,0,45.83.5ZM5.64,62.14V12h25.3V23.7a.68.68,0,0,0,.21.48.67.67,0,0,0,.47.2H44.14V62.14ZM32.3,23V12.9L43.1,23ZM46.52,2.74l10.8,10.12H46.52ZM58.36,14.22V52H45.5V41.26h4.9V39.9H45.5V32.45h4.9V31.08H45.5V23.7a.67.67,0,0,0-.21-.49L32.09,10.84a.73.73,0,0,0-.47-.17H19.86V1.86H45.17V13.54a.68.68,0,0,0,.66.68Z" fill="#00b087"/></g></g></g></svg>