<svg xmlns="http://www.w3.org/2000/svg" width="54.3" height="49.57" viewBox="0 0 54.3 49.57"><title>education</title><g id="f4271c5a-78a2-4fe0-9227-a3580b630d83" data-name="Layer 2"><g id="e25d151d-cc71-4ceb-889b-8c12a5b5df3c" data-name="Layer 1"><path d="M0,24.31V49.57H54.3V24.31H38.63V18.1l1.65,1.36,4-4.73L27,0,9.76,14.73l4,4.73L15.44,18v6.27ZM1.18,48.39V25.49h14.2v22.9Zm29.76,0H23.13v-7.1h7.81Zm22.18-22.9v22.9H38.63V25.49ZM11.41,14.91,27,1.6,42.65,14.91l-2.49,2.95L27,6.62,13.9,17.8ZM27,8.16l10.41,8.93v31.3H32.12V40.1H21.94v8.29H16.62V17.09Z" fill="#78be20"/><path d="M21.89,33.78H32.12V35H21.89Z" fill="#78be20"/><path d="M5,30.58H6.15V34H5Z" fill="#78be20"/><path d="M10.29,30.58h1.18V34H10.29Z" fill="#78be20"/><path d="M5,39.34H6.15v3.43H5Z" fill="#78be20"/><path d="M10.29,39.34h1.18v3.43H10.29Z" fill="#78be20"/><path d="M42.71,30.58h1.18V34H42.71Z" fill="#78be20"/><path d="M48,30.58h1.19V34H48Z" fill="#78be20"/><path d="M42.71,39.34h1.18v3.43H42.71Z" fill="#78be20"/><path d="M48,39.34h1.19v3.43H48Z" fill="#78be20"/><path d="M27.15,28.27a3.49,3.49,0,1,0-3.49-3.49A3.48,3.48,0,0,0,27.15,28.27Zm0-5.73A2.31,2.31,0,1,1,26.23,27a2.34,2.34,0,0,1,.92-4.48Z" fill="#78be20"/></g></g></svg>