<svg class="empty-icon" xmlns="http://www.w3.org/2000/svg" width="238.31" height="270.04" viewBox="0 0 238.31 270.04"><title>no-transactions</title><g id="dbfc5b5b-473e-4b33-b528-8b8a9f4091f5" data-name="Layer 2"><g id="40a72301-6e0f-44fe-a79b-a52347d78e3e" data-name="Layer 1"><rect y="40.04" width="196" height="230" rx="5" ry="5" fill="#ededed"/><rect x="35.31" y="1" width="196" height="230" rx="2.05" ry="2.05" fill="#fff" stroke="#afafaf" stroke-miterlimit="10" stroke-width="2"/><path d="M168.31,23H32A15.71,15.71,0,0,0,16.31,38.67V237.33A15.71,15.71,0,0,0,32,253H196.64a15.71,15.71,0,0,0,15.67-15.67V65.67h-44Z" fill="#fff" stroke="#afafaf" stroke-miterlimit="10" stroke-width="2"/><line x1="168.31" y1="23" x2="212.31" y2="65.67" fill="#fff" stroke="#afafaf" stroke-miterlimit="10" stroke-width="2"/><rect x="34.26" y="144.73" width="108.88" height="10" rx="3" ry="3" fill="#ededed"/><rect x="112.29" y="163.23" width="80.06" height="10" rx="3" ry="3" fill="#ededed"/><rect x="34.26" y="163.23" width="69.93" height="10" rx="3" ry="3" fill="#ededed"/><rect x="150.56" y="144.73" width="41.8" height="10" rx="3" ry="3" fill="#ededed"/><rect x="82.47" y="204" width="108.88" height="10" rx="3" ry="3" transform="translate(273.81 418) rotate(180)" fill="#ededed"/><rect x="33.24" y="185.5" width="80.06" height="10" rx="3" ry="3" transform="translate(146.55 381) rotate(180)" fill="#ededed"/><rect x="121.42" y="185.5" width="69.93" height="10" rx="3" ry="3" transform="translate(312.76 381) rotate(180)" fill="#ededed"/><rect x="33.24" y="204" width="41.8" height="10" rx="3" ry="3" transform="translate(108.29 418) rotate(180)" fill="#ededed"/><g id="6bc5a7a2-b876-4246-b8ab-45395474df4c" data-name="Layer 2"><g id="f7ccfdf3-6d04-4874-989a-f2c3e6bf66a6" data-name="Layer 1-2"><rect x="114.15" y="103.89" width="32.12" height="3.51" fill="#afafaf"/><rect x="128.33" y="109.85" width="17.91" height="3.51" fill="#afafaf"/><path d="M153.81,83.22v-1a7.23,7.23,0,0,0-7.2-7.26H80.1a7.26,7.26,0,0,0-7.29,7.23V84h0V98.18h0V120.5a7.26,7.26,0,0,0,7.26,7.26h66.48a7.26,7.26,0,0,0,7.26-7.26h0V97.41h0Zm-3.42,37.28a3.77,3.77,0,0,1-3.72,3.75H80.1a3.8,3.8,0,0,1-3.75-3.75V98.18h0V96.32h74v1.09h0Zm-74-27.69v-5.4h74v5.4Zm74-9.59h0v.66h-74V82.26a3.75,3.75,0,0,1,3.75-3.72h66.45a3.75,3.75,0,0,1,3.84,3.66v1Z" fill="#afafaf"/></g></g><circle cx="212.31" cy="113.88" r="25" fill="#fff" stroke="#afafaf" stroke-miterlimit="10" stroke-width="2"/><rect x="197.81" y="110.32" width="29" height="4.67" rx="2.33" ry="2.33" transform="translate(141.84 -117.13) rotate(45)" fill="#afafaf"/><rect x="197.81" y="110.32" width="29" height="4.67" rx="2.33" ry="2.33" transform="translate(442.09 42.18) rotate(135)" fill="#afafaf"/></g></g></svg>