<svg xmlns="http://www.w3.org/2000/svg" width="450" height="459.47" viewBox="0 0 450 459.47"><title>error-generic</title><g id="ffe82a14-8fd4-4dd5-a58d-fbc366a8fe13" data-name="Layer 2"><g id="8a0b9950-7b80-45fc-90ed-13246d640aec" data-name="Layer 1"><path d="M230,191.33l-27.29,4.17L200,177.38l27.29-4.17Zm-25.27,1.41,22.51-3.44-2-13.33-22.51,3.44Z" fill="#00b087"/><path d="M233,211.59l-27.2,4.16L203,197.63l27.19-4.16ZM207.86,213l22.41-3.43-2-13.33-22.41,3.43Z" fill="#00b087"/><path d="M236.13,231.87,208.93,236l-2.74-18,27.19-4.15ZM211,233.27l22.41-3.43-2-13.1L209,220.16Z" fill="#00b087"/><path d="M200.41,195.86,139,205.24l-2.77-18.11,61.4-9.39Zm-59.34,6.62,56.58-8.65-2-13.33L139,189.15Z" fill="#00b087"/><path d="M203.51,216.1l-61.4,9.39-2.77-18.12,61.4-9.38Zm-59.34,6.63,56.58-8.65-2-13.34-56.58,8.66Z" fill="#00b087"/><path d="M206.61,236.38l-61.4,9.39-2.79-18.28,61.39-9.39ZM147.27,243l56.58-8.65-2-13.37-56.58,8.65Z" fill="#00b087"/><path d="M209.72,256.73l-61.4,9.39L145.55,248l61.4-9.39Zm-59.34,6.62L207,254.7l-2-13.3-56.58,8.65Z" fill="#00b087"/><path d="M239.24,252.21,212,256.37l-2.77-18.12,27.2-4.15Zm-25.17,1.4,22.41-3.42-2-13.3L212,240.31Z" fill="#00b087"/><path d="M268.76,247.7l-27.69,4.23-2.77-18.11,27.23-4.17Zm-25.66,1.48,22.9-3.51-2.36-13.25L241,235.87Z" fill="#00b087"/><path d="M265.65,227.35,238,231.59l-2.74-18,27.22-4.16ZM240,228.83l22.93-3.51-2.33-13L238,215.73Z" fill="#00b087"/><path d="M262.54,207.08l-27.68,4.23-2.77-18.12L259.31,189Zm-25.65,1.47L259.82,205l-2.37-13.28-22.6,3.46Z" fill="#00b087"/><path d="M259.41,186.83l-27.65,4.23L229,172.94l27.65-4.22Zm-25.62,1.47,22.93-3.5-2-13.34-23,3.54Z" fill="#00b087"/><path d="M296,296.21,140.5,320,108.94,113.58,240.25,93.5,268.13,114Zm-152.81,20,149.13-22.8L265.16,115.85l-25.77-19L112.6,116.28Z" fill="#00b087"/><path d="M242.48,101.54l15.79,11.6-13.69,2.1-2.1-13.7M238,94.35l3.76,24.57,24.57-3.76L238.12,94.3Z" fill="#00b087"/><path d="M216.59,138.53l-83,12.69a1.62,1.62,0,0,1-1.85-1.35h0a1.59,1.59,0,0,1,1.33-1.81h0l83-12.69a1.56,1.56,0,0,1,1.81,1.26h0v.06a1.59,1.59,0,0,1-1.29,1.84h0Z" fill="#00b087"/><path d="M219.41,157l-83,12.69a1.65,1.65,0,0,1-.5-3.27l83-12.69a1.65,1.65,0,0,1,.5,3.27Z" fill="#00b087"/><path d="M274.12,268.1l-83,12.69a1.63,1.63,0,0,1-1.85-1.36h0a1.6,1.6,0,0,1,1.33-1.82h0l83-12.69a1.59,1.59,0,0,1,1.84,1.29h0a1.62,1.62,0,0,1-1.33,1.85h0Z" fill="#00b087"/><path d="M276,280.32l-55.3,8.46a1.57,1.57,0,1,1-.92-3,1.76,1.76,0,0,1,.45-.07l55.31-8.45a1.57,1.57,0,1,1,.91,3A1.74,1.74,0,0,1,276,280.32Z" fill="#00b087"/><path d="M245.34,120.82V302.76h155V120.82H244.58" fill="#fff" stroke="#28af88" stroke-miterlimit="10" stroke-width="2.9"/><rect x="259.54" y="217.11" width="86.13" height="7.91" rx="2.37" ry="2.37" fill="#ededed"/><rect x="321.27" y="231.75" width="63.33" height="7.91" rx="2.37" ry="2.37" fill="#ededed"/><rect x="259.54" y="231.75" width="55.32" height="7.91" rx="2.37" ry="2.37" fill="#ededed"/><rect x="351.54" y="217.11" width="33.07" height="7.91" rx="2.37" ry="2.37" fill="#ededed"/><rect x="297.67" y="264" width="86.13" height="7.91" rx="2.37" ry="2.37" fill="#ededed"/><rect x="258.74" y="249.36" width="63.33" height="7.91" rx="2.37" ry="2.37" fill="#ededed"/><rect x="328.48" y="249.36" width="55.32" height="7.91" rx="2.37" ry="2.37" fill="#ededed"/><rect x="258.74" y="264" width="33.07" height="7.91" rx="2.37" ry="2.37" fill="#ededed"/><rect x="322.74" y="184.81" width="25.41" height="2.78" fill="#afafaf" stroke="#28af88" stroke-miterlimit="10" stroke-width="0.36"/><rect x="333.96" y="189.52" width="14.17" height="2.78" fill="#afafaf" stroke="#28af88" stroke-miterlimit="10" stroke-width="0.36"/><path d="M354.11,168.46v-.8a5.72,5.72,0,0,0-5.69-5.74H295.8a5.74,5.74,0,0,0-5.76,5.72h0v1.43h0v11.22h0V198a5.74,5.74,0,0,0,5.74,5.74h52.59a5.74,5.74,0,0,0,5.74-5.74h0V179.68h0ZM351.41,198a3,3,0,0,1-3,3H295.8a3,3,0,0,1-3-3V180.29h0v-1.47h58.53v.86h0Zm-58.54-22v-4.27h58.54V176Zm58.54-7.58h0V169H292.87v-1.3a3,3,0,0,1,3-2.95H348.4a3,3,0,0,1,3,2.9h0v.77Z" fill="#afafaf" stroke="#28af88" stroke-miterlimit="10" stroke-width="0.36"/><rect x="32.87" y="231.37" width="387.66" height="222" rx="4.68" ry="4.68" fill="#fff"/><path d="M43.52,229.71H417.4a6.25,6.25,0,0,1,6.21,6.21V451.71a6.25,6.25,0,0,1-6.21,6.21H35a6.25,6.25,0,0,1-6.21-6.21v-249s1.1-8.93,9.51-9.06,28.85,0,28.85,0,8.54-.65,8.54-6.85-.13-16.56-.13-16.56-.39-9.32,8.28-9.19,33.38,0,33.38,0" fill="#fff" stroke="#28af88" stroke-miterlimit="10" stroke-width="3.1"/><line x1="253" y1="106.46" x2="237.32" y2="106.46" fill="none"/><path d="M114.85,164.75H82.7s-3.61.92-3.61,3.31v17.48s-.26,3.35-.74,4.15c-1.59,2.62-5.6,8.27-10.75,8.36-3.81.08-29.38,0-29.38,0s-5.93-1.06-5.93,5.54V225h92.12Z" fill="#ededed" opacity="0.65" style="isolation:isolate"/><circle cx="142.13" cy="76.42" r="4.91" fill="#28af88"/><circle cx="24.21" cy="110.34" r="4.91" fill="#28af88"/><circle cx="60.06" cy="122.28" r="2.63" fill="#28af88"/><circle cx="19.31" cy="153.68" r="2.63" fill="#28af88"/><circle cx="2.63" cy="200.17" r="2.63" fill="#28af88"/><circle cx="292.87" cy="43.32" r="3.82" fill="#28af88"/><circle cx="93.27" cy="15.5" r="1.91" fill="#28af88"/><circle cx="41.19" cy="2.63" r="2.63" fill="#28af88"/><circle cx="65.33" cy="61.6" r="2.63" fill="#28af88"/><circle cx="220.82" cy="67.81" r="2.63" fill="#28af88"/><circle cx="186.67" cy="70.44" r="2.63" fill="#28af88"/><circle cx="358.12" cy="37.41" r="2.63" fill="#28af88"/><circle cx="262.54" cy="60.44" r="2.63" fill="#28af88"/><circle cx="400.39" cy="105.43" r="2.63" fill="#28af88"/><circle cx="351.44" cy="96.52" r="2.63" fill="#28af88"/><circle cx="409.42" cy="36.41" r="3.18" fill="#28af88"/><circle cx="174.84" cy="32.58" r="4.91" fill="#28af88"/><line x1="33.8" y1="48.19" x2="50.25" y2="31.74" fill="none" stroke="#28af88" stroke-miterlimit="10" stroke-width="3.62"/><line x1="32.89" y1="32.19" x2="49.5" y2="48.79" fill="none" stroke="#28af88" stroke-miterlimit="10" stroke-width="3.62"/><line x1="57.36" y1="98.84" x2="68.03" y2="88.17" fill="none" stroke="#28af88" stroke-miterlimit="10" stroke-width="2.35"/><line x1="56.77" y1="88.46" x2="67.54" y2="99.23" fill="none" stroke="#28af88" stroke-miterlimit="10" stroke-width="2.35"/><line x1="93.21" y1="66.81" x2="103.88" y2="56.14" fill="none" stroke="#28af88" stroke-miterlimit="10" stroke-width="2.35"/><line x1="92.62" y1="56.44" x2="103.39" y2="67.2" fill="none" stroke="#28af88" stroke-miterlimit="10" stroke-width="2.35"/><line x1="418.57" y1="197.88" x2="429.23" y2="187.21" fill="none" stroke="#28af88" stroke-miterlimit="10" stroke-width="2.35"/><line x1="417.98" y1="187.51" x2="428.75" y2="198.27" fill="none" stroke="#28af88" stroke-miterlimit="10" stroke-width="2.35"/><line x1="222.74" y1="42.04" x2="227.82" y2="36.96" fill="none" stroke="#28af88" stroke-miterlimit="10" stroke-width="1.12"/><line x1="222.46" y1="37.1" x2="227.59" y2="42.22" fill="none" stroke="#28af88" stroke-miterlimit="10" stroke-width="1.12"/><line x1="382.96" y1="69.4" x2="403.02" y2="69.4" fill="none" stroke="#28af88" stroke-miterlimit="10" stroke-width="3.12"/><line x1="392.16" y1="59.1" x2="392.16" y2="79.34" fill="none" stroke="#28af88" stroke-miterlimit="10" stroke-width="3.12"/><line x1="426.73" y1="125.13" x2="450" y2="125.13" fill="none" stroke="#28af88" stroke-miterlimit="10" stroke-width="3.62"/><line x1="437.4" y1="113.18" x2="437.4" y2="136.66" fill="none" stroke="#28af88" stroke-miterlimit="10" stroke-width="3.62"/><line x1="289.7" y1="68.13" x2="302.27" y2="68.13" fill="none" stroke="#28af88" stroke-miterlimit="10" stroke-width="1.96"/><line x1="295.47" y1="61.67" x2="295.47" y2="74.36" fill="none" stroke="#28af88" stroke-miterlimit="10" stroke-width="1.96"/><line x1="123.48" y1="26.35" x2="136.05" y2="26.35" fill="none" stroke="#28af88" stroke-miterlimit="10" stroke-width="1.96"/><line x1="129.25" y1="19.89" x2="129.25" y2="32.58" fill="none" stroke="#28af88" stroke-miterlimit="10" stroke-width="1.96"/><line x1="423.61" y1="171.53" x2="430.42" y2="171.53" fill="none" stroke="#28af88" stroke-miterlimit="10" stroke-width="1.06"/><line x1="426.73" y1="168.03" x2="426.73" y2="174.9" fill="none" stroke="#28af88" stroke-miterlimit="10" stroke-width="1.06"/><line x1="336.98" y1="64.3" x2="344.49" y2="64.3" fill="none" stroke="#28af88" stroke-miterlimit="10" stroke-width="1.17"/><line x1="340.42" y1="60.44" x2="340.42" y2="68.01" fill="none" stroke="#28af88" stroke-miterlimit="10" stroke-width="1.17"/></g></g></svg>