<svg xmlns="http://www.w3.org/2000/svg" width="49.8" height="49.8" viewBox="0 0 49.8 49.8"><title>eva-icon-web</title><circle cx="24.9" cy="24.9" r="24.9" fill="#00af87"/><path d="M34.9,41.5a1.85,1.85,0,0,1-1.2-.5c-1.8-2.2-4.6-4.6-5.9-4.6H13.9a6.49,6.49,0,0,1-6.5-6.5V18.6a6.49,6.49,0,0,1,6.5-6.5h22a6.49,6.49,0,0,1,6.5,6.5V29.9a6.41,6.41,0,0,1-5.8,6.4,18.37,18.37,0,0,0-.2,3.6,1.65,1.65,0,0,1-.9,1.5C35.3,41.4,35.1,41.5,34.9,41.5Zm-21-26.4a3.54,3.54,0,0,0-3.5,3.5V29.9a3.54,3.54,0,0,0,3.5,3.5h14c1.9,0,4,1.5,5.6,3a4,4,0,0,1,.9-2.4,2,2,0,0,1,1.5-.6,3.54,3.54,0,0,0,3.5-3.5V18.6a3.54,3.54,0,0,0-3.5-3.5Z" fill="#fff"/><path d="M22.6,25.9a1.5,1.5,0,0,1-1.1-.4,4.47,4.47,0,0,0-6.4,0A1.48,1.48,0,1,1,13,23.4a7.54,7.54,0,0,1,10.6,0,1.45,1.45,0,0,1,0,2.1A1.16,1.16,0,0,1,22.6,25.9Z" fill="#fff"/><path d="M35.7,25.9a1.5,1.5,0,0,1-1.1-.4,4.47,4.47,0,0,0-6.4,0,1.48,1.48,0,0,1-2.1-2.1,7.54,7.54,0,0,1,10.6,0,1.45,1.45,0,0,1,0,2.1A1.16,1.16,0,0,1,35.7,25.9Z" fill="#fff"/></svg>