<svg xmlns="http://www.w3.org/2000/svg" width="213" height="213" viewBox="0 0 213 213"><title>eva-icon-two</title><g id="2f15c0d0-0d28-4d00-a193-cabb4dbad181" data-name="Layer 2"><g id="c162811b-17cf-40ef-b9c4-87d6d85b68a3" data-name="Layer 1"><circle cx="106.5" cy="106.5" r="106.5" fill="#00af87"/><path d="M74.93,140.73H40.52V81H74.93V91.37H53.19v13.12H73.41v10.38H53.19v15.4H74.93Z" fill="#fff"/><path d="M119.21,81H132l-20.31,59.74H97.88L77.61,81H90.4l11.24,35.55q.93,3.15,1.94,7.34t1.24,5.82a106.13,106.13,0,0,1,3.07-13.16Z" fill="#fff"/><path d="M169,140.73l-4.33-14.22H142.85l-4.33,14.22H124.87l21.08-60h15.49l21.17,60Zm-7.36-24.84q-6-19.33-6.76-21.86c-.5-1.69-.86-3-1.08-4q-1.35,5.24-7.72,25.87Z" fill="#fff"/></g></g></svg>