<svg xmlns="http://www.w3.org/2000/svg" width="64" height="64" viewBox="0 0 64 64"><title>eva_icon</title><g id="f650db36-426c-4cfb-9c79-5625d5accaf7" data-name="eva_icon"><circle cx="32" cy="32" r="31.5" fill="#00af87"/><path d="M44.65,53a2.34,2.34,0,0,1-1.52-.63c-2.27-2.79-5.82-5.82-7.46-5.82H18.08a8.21,8.21,0,0,1-8.22-8.2V24a8.2,8.2,0,0,1,8.2-8.22H45.92A8.21,8.21,0,0,1,54.14,24V38.33a8.11,8.11,0,0,1-7.34,8.09A23.18,23.18,0,0,0,46.55,51a2.09,2.09,0,0,1-1.14,1.89C45.16,52.87,44.9,53,44.65,53ZM18.08,19.6A4.48,4.48,0,0,0,13.66,24v14.3a4.46,4.46,0,0,0,4.42,4.42H35.8c2.4,0,5.06,1.9,7.08,3.8a5.11,5.11,0,0,1,1.14-3,2.54,2.54,0,0,1,1.9-.76,4.46,4.46,0,0,0,4.42-4.42V24a4.48,4.48,0,0,0-4.42-4.43Z" fill="#fff"/><path d="M29.09,33.27a1.92,1.92,0,0,1-1.39-.51,5.66,5.66,0,0,0-8-.1l-.1.1A1.88,1.88,0,1,1,17,30.1a9.54,9.54,0,0,1,13.41,0,1.84,1.84,0,0,1,.06,2.6l-.06.06A1.5,1.5,0,0,1,29.09,33.27Z" fill="#fff"/><path d="M45.66,33.27a1.94,1.94,0,0,1-1.39-.51,5.66,5.66,0,0,0-8-.1l-.1.1a1.88,1.88,0,1,1-2.65-2.66,9.54,9.54,0,0,1,13.41,0A1.84,1.84,0,0,1,47,32.7l-.06.06A1.5,1.5,0,0,1,45.66,33.27Z" fill="#fff"/></g></svg>