<svg xmlns="http://www.w3.org/2000/svg" width="36.36" height="39.98" viewBox="0 0 36.36 39.98"><title>excel</title><g id="f9fe6bf1-0c50-4d82-89af-4703d6c296eb" data-name="Layer 2"><g id="e5b4bca1-f6fd-47fd-a36c-1e5920cf8368" data-name="Layer 1"><path d="M33,21.5H31.72V11L21.88,0H4.77A4.78,4.78,0,0,0,0,4.77V35.2A4.78,4.78,0,0,0,4.77,40H27a4.78,4.78,0,0,0,4.77-4.78v-.66H33a3.37,3.37,0,0,0,3.36-3.36V24.86A3.37,3.37,0,0,0,33,21.5ZM22.24,2.33l7.39,8.27H22.24ZM30.43,35.2A3.48,3.48,0,0,1,27,38.68H4.77A3.48,3.48,0,0,1,1.29,35.2V4.77A3.48,3.48,0,0,1,4.77,1.29H21v10.6h9.48V21.5H16.29a3.37,3.37,0,0,0-3.36,3.36v6.32a3.37,3.37,0,0,0,3.36,3.36H30.43Zm4.64-4A2.07,2.07,0,0,1,33,33.25H16.28a2.07,2.07,0,0,1-2.06-2.07V24.86a2.07,2.07,0,0,1,2.06-2.07H33a2.07,2.07,0,0,1,2.07,2.07Z" fill="#009639"/><path d="M22.28,25.38h-.86L19.9,27.65l-1.44-2.27h-.93l1.91,2.82-2,3h.87l1.62-2.4,1.56,2.4h.94l-2-3Z" fill="#009639"/><path d="M23.8,25.38H23v5.81h3.84v-.65H23.8Z" fill="#009639"/><path d="M30,27.92c-.94-.21-1.86-.32-1.86-1s.65-1,1.3-1a1.27,1.27,0,0,1,1.44,1.19h.73a1.87,1.87,0,0,0-2.14-1.84c-1.06,0-2.11.53-2.11,1.7s.94,1.34,1.87,1.54,1.85.34,1.85,1.14-.77,1.06-1.47,1.06c-.88,0-1.69-.42-1.69-1.4h-.73c0,1.41,1.09,2,2.39,2,1.06,0,2.27-.5,2.27-1.73S31,28.13,30,27.92Z" fill="#009639"/></g></g></svg>