<svg xmlns="http://www.w3.org/2000/svg" width="64" height="64" viewBox="0 0 64 64"><title>factsheet</title><g id="63db6a2a-394a-4534-a229-494f54f5be37" data-name="factsheet"><path d="M55.73,63.5H8.27V.5H48.35l7.38,7.4Zm-46.49-1H54.76V8.3L47.94,1.47H9.24Z" fill="#00b087"/><path d="M48.65,3l4.18,4.18H48.65V3m-1-2.35v7.5h7.5L47.68.64Z" fill="#00b087"/><path d="M44.86,32.55H19.54a.49.49,0,0,1,0-1H44.86a.49.49,0,1,1,0,1Z" fill="#00b087"/><path d="M44.86,38.18H19.54a.49.49,0,0,1,0-1H44.86a.49.49,0,1,1,0,1Z" fill="#00b087"/><path d="M44.86,43.8H19.54a.48.48,0,0,1-.49-.48.49.49,0,0,1,.49-.49H44.86a.49.49,0,0,1,.49.49A.48.48,0,0,1,44.86,43.8Z" fill="#00b087"/><path d="M36.42,26.9H19.54a.47.47,0,0,1,0-.94H36.42a.47.47,0,0,1,0,.94Z" fill="#00b087"/></g></svg>