<svg xmlns="http://www.w3.org/2000/svg" width="19.57" height="19.55" viewBox="0 0 19.57 19.55"><title>eac</title><g id="Layer_2" data-name="Layer 2"><g id="Layer_3" data-name="Layer 3"><path d="M9.64,19.55a1.12,1.12,0,0,1-.77-.32L.32,10.67h0A1.05,1.05,0,0,1,0,9.91a1.07,1.07,0,0,1,.32-.77L9,.44A1.11,1.11,0,0,1,9.78.13L18.48,0a1.11,1.11,0,0,1,.79.33,1.09,1.09,0,0,1,.29.8l-.13,8.68a1,1,0,0,1-.31.7L10.4,19.23a1.09,1.09,0,0,1-.76.32ZM18.49.68,9.78.8a.45.45,0,0,0-.29.12L.79,9.62a.44.44,0,0,0-.11.29.43.43,0,0,0,.11.28l8.56,8.56a.42.42,0,0,0,.57,0L18.64,10h0a.38.38,0,0,0,.11-.26l.14-8.67h0a.4.4,0,0,0-.4-.43Z" fill="#c1c1c1"></path><path d="M16.61,3a1.4,1.4,0,1,1-2,2,1.4,1.4,0,0,1,2-2" fill="#c1c1c1"></path><path d="M3.31,9.44l.39-.39a.2.2,0,0,1,.27,0l6.53,6.52a.2.2,0,0,1,0,.27l-.4.4a.21.21,0,0,1-.27,0L3.31,9.71a.18.18,0,0,1,0-.27Z" fill="#c1c1c1"></path><path d="M6,6.79l.39-.39a.21.21,0,0,1,.28,0l6.52,6.52a.2.2,0,0,1,0,.27l-.39.39a.21.21,0,0,1-.28,0L6,7.06a.2.2,0,0,1,0-.27Z" fill="#c1c1c1"></path></g></g></svg>