<svg xmlns="http://www.w3.org/2000/svg" width="64" height="64" viewBox="0 0 64 64"><title>filter</title><g id="55c23bb7-fa49-4b48-b5ed-8bb03c0d403e" data-name="filter"><circle cx="52" cy="33" r="4" fill="#00b087"/><path d="M63,18.35H1A.53.53,0,0,1,1,17.3H63a.53.53,0,0,1,0,1.05Z" fill="#00b087"/><circle cx="7.85" cy="17.3" r="4.2" fill="#00b087"/><path d="M63,33.05H1a.53.53,0,0,1,0-1H63a.53.53,0,0,1,0,1Z" fill="#00b087"/><path d="M63,47.75H1a.53.53,0,0,1,0-1H63a.53.53,0,0,1,0,1Z" fill="#00b087"/><circle cx="28.85" cy="46.7" r="4.2" fill="#00b087"/></g></svg>