<svg xmlns="http://www.w3.org/2000/svg" width="64" height="64" viewBox="0 0 64 64"><title>fp</title><g id="6c785f2f-6bd0-4025-b48c-f44d01cd6762" data-name="fp"><path d="M32,63.5A31.5,31.5,0,1,1,63.5,32,31.53,31.53,0,0,1,32,63.5Zm0-62A30.53,30.53,0,1,0,62.53,32,30.57,30.57,0,0,0,32,1.47Z" fill="#00b087"/><path d="M34.32,38.23c.07.06.13.06.26.06s.2,0,.26-.06l1-1,1,1c.06.06.13.06.26.06s.19,0,.26-.06a.32.32,0,0,0,0-.45h0l-1-1,1-1a.31.31,0,0,0,0-.45.32.32,0,0,0-.46,0l-1,1-1-1a.32.32,0,0,0-.46,0,.33.33,0,0,0,0,.45h0l1,1-1.11,1a.32.32,0,0,0,0,.44Z" fill="#00b087"/><path d="M29,34.84a2,2,0,1,0,1.95,1.95A2,2,0,0,0,29,34.84Zm0,3.25a1.3,1.3,0,1,1,1.3-1.3A1.31,1.31,0,0,1,29,38.09Z" fill="#00b087"/><path d="M27.54,29.29a.33.33,0,0,0,0,.45h0l1,1-1,1a.31.31,0,0,0,0,.44h0c.07.07.13.07.26.07s.2,0,.26-.07l1-1,1,1c.06.07.13.07.26.07s.19,0,.26-.07a.3.3,0,0,0,0-.44h0l-1-1,1-1a.32.32,0,0,0,0-.46.34.34,0,0,0-.46,0l-1.1,1-1-1a.31.31,0,0,0-.44,0Z" fill="#00b087"/><path d="M35.75,32.68a2,2,0,1,0-2-1.95A2,2,0,0,0,35.75,32.68Zm0-3.25a1.3,1.3,0,1,1-1.3,1.3A1.31,1.31,0,0,1,35.75,29.43Z" fill="#00b087"/><path d="M37.12,26.17l3-3.07V37a3.84,3.84,0,0,1-3.84,3.84H26.73a.23.23,0,0,0-.19.07,3.21,3.21,0,0,0-3.2-3,3.1,3.1,0,1,0,3.2,3.52.22.22,0,0,0,.19.06h9.59A4.49,4.49,0,0,0,40.81,37V23.17l3,3c.07.06.13.06.26.06s.2,0,.26-.06a.32.32,0,0,0,0-.45h0l-3.39-3.39c-.06-.07-.06-.07-.13-.07a.36.36,0,0,0-.5-.14.4.4,0,0,0-.15.14.24.24,0,0,0-.13.07l-3.39,3.39a.33.33,0,0,0,.46.46ZM23.3,43.68a2.61,2.61,0,1,1,2.61-2.61A2.6,2.6,0,0,1,23.3,43.68Z" fill="#00b087"/><path d="M17.32,22.69a10.93,10.93,0,0,0,3.85-.52,6.21,6.21,0,0,0,3.45-3.32,10.36,10.36,0,0,0,.46-4.5c0-.46-.07-.85-.07-1.24a.3.3,0,0,0-.28-.33h0c-.2,0-.26.07-.26.26a9.5,9.5,0,0,0,.06,1.31A8.92,8.92,0,0,1,24,18.58a5.53,5.53,0,0,1-3.12,2.94,11.77,11.77,0,0,1-4.57.45h-.91a.33.33,0,1,0,0,.66h.91C16.67,22.63,17,22.69,17.32,22.69Z" fill="#00b087"/><path d="M43.28,54.07h-22A8.31,8.31,0,0,1,13,45.76V18.51l.12-.14c1-1.17,2.08-2.2,3.55-3.61,1.11-1.08,2.51-2.43,4.29-4.23l.14-.15h22.2a8.32,8.32,0,0,1,8.31,8.31V45.76A8.32,8.32,0,0,1,43.28,54.07ZM14,18.87V45.76a7.34,7.34,0,0,0,7.33,7.34h22a7.34,7.34,0,0,0,7.34-7.34V18.69a7.34,7.34,0,0,0-7.34-7.34H21.49c-1.73,1.74-3.08,3.05-4.17,4.1C15.93,16.8,14.9,17.79,14,18.87Z" fill="#00b087"/></g></svg>