<svg xmlns="http://www.w3.org/2000/svg" width="64.67" height="64.67" viewBox="0 0 64.67 64.67"><title>fund-icon</title><g id="Layer_2" data-name="Layer 2"><g id="Layer_1-2" data-name="Layer 1"><path d="M32.34,0A32.34,32.34,0,1,0,64.67,32.34,32.35,32.35,0,0,0,32.34,0Zm0,1.35a31,31,0,1,1-31,31A31,31,0,0,1,32.34,1.35ZM41.61,11.9a.55.55,0,0,0-.18,0l-2.69.72A.68.68,0,0,0,39.09,14h0l1.1-.29C35.46,21.45,24.75,30.89,14,33a.67.67,0,1,0,.27,1.32c11.33-2.24,22.16-11.86,27.09-20l.3,1.12a.67.67,0,0,0,1.3-.35h0l-.71-2.68A.67.67,0,0,0,41.61,11.9Zm-2.54,9.66a.67.67,0,0,0-.67.67V34.49H39a2,2,0,0,1,.72.14V22.9h2.7v6.27l1-1-.22.27a1.77,1.77,0,0,1,.62-.54V22.23a.67.67,0,0,0-.68-.67Zm7.39,6.73a.68.68,0,0,0-.51.22.63.63,0,0,0-.19.4v0l-.08.52-.42-.3.13.13a.72.72,0,0,0-1.12,0l.08-.09-1.57,1.57a.22.22,0,0,0-.07.09.71.71,0,0,0,0,.83l.29.41-.52.08h.11a.66.66,0,0,0-.49.2.67.67,0,0,0-.21.5v2.21a.74.74,0,0,0,.22.51.61.61,0,0,0,.35.17h0l.53.09-.31.44,0,0a.71.71,0,0,0,.1.86l1.57,1.56-.08-.09a.72.72,0,0,0,1.12,0l-.14.13.43-.3.08.52v0a.66.66,0,0,0,.19.41.7.7,0,0,0,.51.22h2.2a.7.7,0,0,0,.51-.22.69.69,0,0,0,.19-.39l.08-.51.44.31-.14-.12a.72.72,0,0,0,1.12,0l-.07.09,1.55-1.55.07-.09a.71.71,0,0,0,0-.83l-.3-.42.53-.09h-.11a.72.72,0,0,0,.7-.69V32.85a.68.68,0,0,0-.23-.51.63.63,0,0,0-.34-.18h0l-.52-.08.3-.43,0,0a.65.65,0,0,0,.1-.35.67.67,0,0,0-.2-.51l-1.55-1.57.07.09a.72.72,0,0,0-1.12,0l.14-.13-.44.31-.08-.53v0a.71.71,0,0,0-.19-.42.69.69,0,0,0-.51-.21h-2.2ZM31,29.63h0a.67.67,0,0,0-.68.67v7.18l1.34-1.33h0V31h2.7v3.94a1.79,1.79,0,0,1,1.26-.44h.08V30.32a.67.67,0,0,0-.67-.67Zm16,0h1.12l.17,1.05a.68.68,0,0,0,.78.56.7.7,0,0,0,.28-.12l.87-.62.78.79-.61.88a.67.67,0,0,0,.16.94.57.57,0,0,0,.28.11l1,.17v1.11l-1.06.17a.69.69,0,0,0-.55.78.7.7,0,0,0,.12.28l.62.87-.78.78-.89-.62a.67.67,0,0,0-.94.16.86.86,0,0,0-.11.28l-.17,1H47l-.17-1a.67.67,0,0,0-.78-.55.57.57,0,0,0-.28.11l-.86.61-.79-.78.62-.87a.67.67,0,0,0-.15-.94.77.77,0,0,0-.28-.12l-1.06-.17V33.39l1.06-.17a.69.69,0,0,0,.55-.78.7.7,0,0,0-.12-.28l-.62-.86.79-.79.86.62a.67.67,0,0,0,.94-.15.69.69,0,0,0,.12-.29Zm.56,2.29a2,2,0,1,0,2,2A2,2,0,0,0,47.56,31.93Zm0,1.35a.66.66,0,0,1,.67.68.64.64,0,0,1-.67.66.66.66,0,0,1-.67-.66A.67.67,0,0,1,47.56,33.28ZM22.9,35a.67.67,0,0,0-.67.67V51.87a.67.67,0,0,0,.67.67h4a.67.67,0,0,0,.68-.67V35.7a.67.67,0,0,0-.68-.67Zm12.72.81a.66.66,0,0,0-.71.63l-.23,1.35L33.59,37a.73.73,0,0,0-1,.05L30.21,39.5h0A.63.63,0,0,0,30,40a.58.58,0,0,0,.14.41l.8,1.12-1.38.23h.11a.72.72,0,0,0-.71.71v3.4a.74.74,0,0,0,.21.52.68.68,0,0,0,.41.19h0l1.37.23L30.15,48a.62.62,0,0,0-.14.42.63.63,0,0,0,.2.52h0l2.41,2.39h0a.67.67,0,0,0,.52.21.66.66,0,0,0,.46-.17l1.08-.76.23,1.35a.73.73,0,0,0,.71.63H39a.67.67,0,0,0,.71-.64L40,50.55l1.12.79a.73.73,0,0,0,.45.17.68.68,0,0,0,.52-.22l2.38-2.38v0a.65.65,0,0,0,.2-.51.68.68,0,0,0-.14-.42l-.81-1.13,1.39-.24-.11,0a.73.73,0,0,0,.71-.72v-3.4a.69.69,0,0,0-.21-.51.64.64,0,0,0-.41-.2l-1.36-.22.8-1.12a.68.68,0,0,0,.14-.42.63.63,0,0,0-.2-.51h0L42,37.1a.68.68,0,0,0-.52-.22.66.66,0,0,0-.46.17l0,0L40,37.83l-.23-1.36a.66.66,0,0,0-.19-.4.69.69,0,0,0-.52-.23h-3.4Zm-12,.54h2.69V51.2H23.58Zm12.58.8h2.32l.33,1.94a.68.68,0,0,0,.78.55.77.77,0,0,0,.28-.12l1.59-1.13,1.64,1.65L42,41.67a.68.68,0,0,0,.17.94.69.69,0,0,0,.28.11l1.91.31v2.33l-1.94.32a.68.68,0,0,0-.55.78.77.77,0,0,0,.12.28l1.13,1.59L41.46,50l-1.62-1.14a.67.67,0,0,0-.94.16.57.57,0,0,0-.11.28l-.31,1.93H36.16l-.33-1.92a.68.68,0,0,0-.78-.55.77.77,0,0,0-.28.12L33.2,50l-1.65-1.64,1.13-1.59a.66.66,0,0,0-.16-.94.65.65,0,0,0-.28-.12l-1.93-.32V43l1.93-.33a.67.67,0,0,0,.56-.77.74.74,0,0,0-.12-.29l-1.13-1.57,1.65-1.65,1.57,1.13a.67.67,0,0,0,.94-.15.77.77,0,0,0,.12-.28Zm-21.34.54a.69.69,0,0,0-.68.68V51.87a.68.68,0,0,0,.68.67h4a.67.67,0,0,0,.67-.67V38.4a.68.68,0,0,0-.67-.68Zm.67,1.35h2.7V51.2h-2.7Zm21.84,1.45A3.67,3.67,0,1,0,41,44.2,3.69,3.69,0,0,0,37.33,40.52Zm0,1.34a2.31,2.31,0,0,1,2.31,2.34,2.29,2.29,0,0,1-2.31,2.32A2.32,2.32,0,0,1,35,44.2,2.34,2.34,0,0,1,37.33,41.86Z" fill="#006341"/></g></g></svg>