<svg xmlns="http://www.w3.org/2000/svg" width="64" height="64" viewBox="0 0 64 64"><title>glpbe</title><g id="f0d22a70-bd6e-4119-819b-2a10ab885426" data-name="globe"><path d="M32.08.5A31.44,31.44,0,0,0,6.5,13.68H6.36a31.58,31.58,0,0,0,0,36.64h0a31.4,31.4,0,0,0,51.13,0h0a31.56,31.56,0,0,0,.32-36.61h0A31.42,31.42,0,0,0,32.08.5Zm-.76.78v12H19.61A33.91,33.91,0,0,1,21,10C23.77,5,27.16,1.72,31.32,1.28Zm1.5,0c4,.35,7.58,3.55,10.31,8.81a33.91,33.91,0,0,1,1.43,3.2H32.85Zm-7.06.62A20.78,20.78,0,0,0,19.7,9.35,34.28,34.28,0,0,0,18,13.23H7.75A30.63,30.63,0,0,1,25.76,1.9Zm12.65,0a30.63,30.63,0,0,1,18,11.33H46.17a34.73,34.73,0,0,0-1.7-3.91A20.88,20.88,0,0,0,38.41,1.9ZM6.63,14.75H17.44a51.75,51.75,0,0,0-2.22,10.51H2.12A31.07,31.07,0,0,1,6.63,14.75Zm12.42,0h12.3V25.26H16.71A49.91,49.91,0,0,1,19.05,14.75Zm13.8,0h12.3a49.85,49.85,0,0,1,2.31,10.51H32.82Zm13.88,0H57.54a31.07,31.07,0,0,1,4.51,10.51H49A51.75,51.75,0,0,0,46.73,14.75ZM1.8,26.76H15.1c0,1.7-.24,3.47-.24,5.26a37.8,37.8,0,0,0,.24,5.25H1.8A31.42,31.42,0,0,1,1.8,26.76Zm14.65,0H31.09V37.27H16.45c-.15-1.7-.24-3.46-.24-5.25s.24-3.56.38-5.26Zm16.25,0H47.34c.15,1.7.24,3.47.24,5.26a37.8,37.8,0,0,1-.24,5.25H32.7Zm16.25,0H62.22a31.42,31.42,0,0,1,0,10.51H49.07c0-1.7.24-3.46.24-5.25s-.09-3.56-.24-5.26Zm-46.83,12h13.1a51.08,51.08,0,0,0,2.22,10.51H6.63A31,31,0,0,1,2.12,38.77Zm14.65,0H31.41V49.28H19.08a49.16,49.16,0,0,1-2.34-10.51Zm16.08,0H47.49a49.71,49.71,0,0,1-2.31,10.51H32.85Zm16.1,0H62.08a31,31,0,0,1-4.51,10.51H46.73A51.08,51.08,0,0,0,49,38.77Zm-41.2,12H18a34.94,34.94,0,0,0,1.7,3.87,20.79,20.79,0,0,0,6.12,7.49A30.66,30.66,0,0,1,7.75,50.81Zm11.86,0H31.32v12c-4-.35-7.58-3.55-10.31-8.8A34.3,34.3,0,0,1,19.61,50.81Zm13.24,0H44.56A33.39,33.39,0,0,1,43.13,54c-2.73,5.22-6.33,8.45-10.31,8.8Zm13.35,0H56.45A30.66,30.66,0,0,1,38.38,62.17a20.89,20.89,0,0,0,6.12-7.49,34.73,34.73,0,0,0,1.67-3.87Z" fill="#00b087"/></g></svg>