<svg xmlns="http://www.w3.org/2000/svg" width="50.29" height="50.22" viewBox="0 0 50.29 50.22"><title>goal</title><g id="bc8dd69b-16a9-4c7f-b4d7-5055bdd5c005" data-name="Layer 2"><g id="a643ccfb-2587-404a-8399-4b91a2ca34b3" data-name="Layer 1"><path d="M42.37,0a.51.51,0,0,0-.45.54v7l-.06,0L40.2,9.27v-6A.52.52,0,0,0,40,2.9a.49.49,0,0,0-.42-.12.53.53,0,0,0-.46.53v7l-1.53,1.53v-6a.54.54,0,0,0-.17-.4A.51.51,0,0,0,37,5.37a.53.53,0,0,0-.48.53v6.25a21.87,21.87,0,0,0-30.15.73l0,0A21.88,21.88,0,1,0,40,16.07c-.21-.31-.44-.6-.67-.91a.55.55,0,0,0-.35-.25.5.5,0,0,0-.43.1.52.52,0,0,0-.2.39.5.5,0,0,0,.16.4c.22.29.42.58.62.88a20.82,20.82,0,1,1-32-3l0,0a20.8,20.8,0,0,1,29-.34L31.43,18a14,14,0,1,0,2.26,2.69.53.53,0,0,0-.33-.24.51.51,0,0,0-.4.07.53.53,0,0,0-.24.33.52.52,0,0,0,.08.4,13,13,0,1,1-2.12-2.5l-4.89,4.89a6.14,6.14,0,0,0-3.92-1.42A6.06,6.06,0,0,0,17.56,24,6.11,6.11,0,1,0,27.8,26.87a.55.55,0,0,0-.24-.32.56.56,0,0,0-.4-.06.49.49,0,0,0-.32.24.47.47,0,0,0-.06.4A5.08,5.08,0,1,1,25,24.43l-2.95,2.95a.55.55,0,0,0-.16.38.51.51,0,0,0,.53.53.55.55,0,0,0,.38-.16l3.24-3.26,0,0,.11-.11.07-.09,5.47-5.46a.46.46,0,0,0,.15-.16l5.31-5.31h0l0,0h7a.53.53,0,0,0,0-1.06h-6l1.53-1.53h7a.53.53,0,0,0,.42-.12.53.53,0,0,0,.18-.4.52.52,0,0,0-.18-.4.53.53,0,0,0-.42-.12h-6l1.68-1.68,0,0h7a.52.52,0,0,0,.42-.13.51.51,0,0,0,0-.79.48.48,0,0,0-.42-.12H43V.55A.5.5,0,0,0,42.8.14.49.49,0,0,0,42.37,0Z" fill="#78be20"/></g></g></svg>