<svg xmlns="http://www.w3.org/2000/svg" width="64" height="64" viewBox="0 0 64 64"><title>help_me_choose</title><g id="718223bb-081a-4e55-8854-85ded7f96fdc" data-name="help_me_choose"><path d="M21.26,18.57a8.92,8.92,0,1,1,8.92-8.91A8.92,8.92,0,0,1,21.26,18.57Zm0-16.86a7.95,7.95,0,1,0,8,8A7.95,7.95,0,0,0,21.26,1.71Z" fill="#00b087"/><rect x="15.02" y="9.03" width="12.19" height="0.97" transform="translate(-0.54 17.72) rotate(-45)" fill="#00b087"/><rect x="20.78" y="3.42" width="0.97" height="12.19" transform="translate(-0.5 17.82) rotate(-45)" fill="#00b087"/><path d="M43.74,41a8.91,8.91,0,1,1,8.91-8.91A8.91,8.91,0,0,1,43.74,41Zm0-16.85a7.95,7.95,0,1,0,7.94,7.94A7.95,7.95,0,0,0,43.74,24.19Z" fill="#00b087"/><rect x="37.5" y="31.5" width="12.19" height="0.97" transform="translate(-9.85 40.19) rotate(-45)" fill="#00b087"/><rect x="43.26" y="25.89" width="0.97" height="12.19" transform="translate(-9.81 40.3) rotate(-45)" fill="#00b087"/><path d="M42.62,63.24a8.92,8.92,0,1,1,8.91-8.91A8.93,8.93,0,0,1,42.62,63.24Zm0-16.86a7.95,7.95,0,1,0,7.94,7.95A8,8,0,0,0,42.62,46.38Z" fill="#00b087"/><rect x="36.37" y="53.7" width="12.19" height="0.97" transform="translate(-25.87 45.9) rotate(-45)" fill="#00b087"/><rect x="42.13" y="48.09" width="0.97" height="12.19" transform="translate(-25.83 46.01) rotate(-45)" fill="#00b087"/><path d="M43.56,18.33A8.92,8.92,0,0,1,43.55.5h0a8.92,8.92,0,0,1,0,17.83Zm0-16.86a7.95,7.95,0,1,0,8,8,7.95,7.95,0,0,0-8-7.95Z" fill="#00b087"/><path d="M21,41a8.91,8.91,0,0,1,0-17.82h0A8.91,8.91,0,0,1,21,41Zm0-16.85a7.94,7.94,0,1,0,8,8A7.94,7.94,0,0,0,21,24.19Z" fill="#00b087"/><path d="M20.26,63.5a8.92,8.92,0,0,1,0-17.83h0a8.92,8.92,0,0,1,0,17.83Zm0-16.86a7.95,7.95,0,1,0,8,8,7.94,7.94,0,0,0-7.95-8Z" fill="#00b087"/></g></svg>