<svg xmlns="http://www.w3.org/2000/svg" width="38.79" height="58.75" viewBox="0 0 38.79 58.75"><title>help-me-choose</title><g id="Layer_2" data-name="Layer 2"><g id="Layer_1-2" data-name="Layer 1"><path d="M13.23,6.9,11.1,9l2.13,2.13-1.42,1.42L9.68,10.45,7.55,12.58,6.13,11.16,8.26,9,6.13,6.9,7.55,5.48,9.68,7.61l2.13-2.13Z" fill="#00b087"/><rect x="21.73" y="1" width="16.07" height="16.07" rx="8.03" ry="8.03" fill="none" stroke="#00b087" stroke-miterlimit="10" stroke-width="2"/><rect x="1.65" y="1" width="16.07" height="16.07" rx="8.03" ry="8.03" fill="none" stroke="#00b087" stroke-miterlimit="10" stroke-width="2"/><path d="M33.31,26.64l-2.13,2.13,2.13,2.13-1.42,1.42-2.13-2.13-2.13,2.13L26.21,30.9l2.13-2.13-2.13-2.13,1.42-1.42,2.13,2.13,2.13-2.13Z" fill="#00b087"/><rect x="21.73" y="20.73" width="16.07" height="16.07" rx="8.03" ry="8.03" fill="none" stroke="#00b087" stroke-miterlimit="10" stroke-width="2"/><rect x="1.65" y="20.73" width="16.07" height="16.07" rx="8.03" ry="8.03" fill="none" stroke="#00b087" stroke-miterlimit="10" stroke-width="2"/><path d="M32.67,47.58l-2.13,2.13,2.13,2.13-1.42,1.42-2.13-2.13L27,53.26l-1.42-1.42,2.13-2.13-2.13-2.13L27,46.16l2.13,2.13,2.13-2.13Z" fill="#00b087"/><rect x="21.08" y="41.68" width="16.07" height="16.07" rx="8.03" ry="8.03" fill="none" stroke="#00b087" stroke-miterlimit="10" stroke-width="2"/><rect x="1" y="41.68" width="16.07" height="16.07" rx="8.03" ry="8.03" fill="none" stroke="#00b087" stroke-miterlimit="10" stroke-width="2"/></g></g></svg>