<svg xmlns="http://www.w3.org/2000/svg" width="299.46" height="299.46" viewBox="0 0 299.46 299.46"><title>icon-selected</title><g id="bdcb3215-91b1-49e4-af0f-d8cb5dfe39a3" data-name="Layer 2"><g id="53c03070-0ba9-4739-9f4b-7312d4a92738" data-name="Layer 1"><path d="M221.94,98.75a13.73,13.73,0,0,0-19.42.25l-78.7,78.67L90,143.86a12.39,12.39,0,0,0-1-1,13.91,13.91,0,0,0-18.6,20.68L114.2,207a13,13,0,0,0,9.66,4.14,13.61,13.61,0,0,0,9.66-4.14l88.66-88.33h0c5.17-5.17,5.17-14.15,0-19.66C222.11,98.91,222,98.83,221.94,98.75Z" fill="#fff"/><path d="M150,0h-.29A149.73,149.73,0,1,0,299.46,149.73h0A149.58,149.58,0,0,0,150,0Zm72.17,118.66h0L133.52,207a13.61,13.61,0,0,1-9.66,4.14A13,13,0,0,1,114.2,207L70.38,163.52A13.91,13.91,0,0,1,89,142.84a12.39,12.39,0,0,1,1,1l33.81,33.81L202.52,99a13.73,13.73,0,0,1,19.42-.25c.08.08.17.16.25.25C227.36,104.51,227.36,113.49,222.19,118.66Z" fill="#78be20"/></g></g></svg>