<svg xmlns="http://www.w3.org/2000/svg" width="40" height="29.09" viewBox="0 0 40 29.09"><title>id</title><g id="b2ac4d79-54d2-4bb5-a390-e3e34bd6d4ac" data-name="Layer 2"><g id="b8cd1a1d-2b66-4053-92df-8ad0eddd0ed3" data-name="Layer 1"><path d="M20,0a2.73,2.73,0,0,0-2.73,2.73V4.55H3.18A3.18,3.18,0,0,0,0,7.73V25.91a3.19,3.19,0,0,0,3.18,3.18H36.82A3.19,3.19,0,0,0,40,25.91V7.73a3.18,3.18,0,0,0-3.18-3.18H22.73V2.73A2.73,2.73,0,0,0,20,0Zm0,.91a1.8,1.8,0,0,1,1.82,1.82V7.27a1.82,1.82,0,0,1-3.64,0V2.73A1.8,1.8,0,0,1,20,.91ZM3.18,5.45H17.27V7.27a2.73,2.73,0,0,0,5.46,0V5.45H36.82a2.26,2.26,0,0,1,2.27,2.28V25.91a2.25,2.25,0,0,1-2.27,2.27H3.18A2.25,2.25,0,0,1,.91,25.91V7.73A2.26,2.26,0,0,1,3.18,5.45Zm8.18,5a2.73,2.73,0,1,0,2.73,2.73A2.73,2.73,0,0,0,11.36,10.45Zm0,.91a1.82,1.82,0,1,1-1.81,1.82A1.81,1.81,0,0,1,11.36,11.36Zm10.46,0a.47.47,0,0,0-.46.46.46.46,0,0,0,.46.45H35a.45.45,0,0,0,.45-.45.46.46,0,0,0-.45-.46Zm0,5a.47.47,0,0,0-.46.46.46.46,0,0,0,.46.45H35a.45.45,0,0,0,.45-.45.46.46,0,0,0-.45-.46ZM11.36,17.73a8.23,8.23,0,0,0-4.43,1.19A3.76,3.76,0,0,0,5,22v.77a.47.47,0,0,0,.45.45H17.27a.47.47,0,0,0,.46-.45V22a3.76,3.76,0,0,0-1.93-3A8.24,8.24,0,0,0,11.36,17.73Zm0,.91a7.33,7.33,0,0,1,3.94,1.05A2.84,2.84,0,0,1,16.82,22v.31H5.91V22a2.84,2.84,0,0,1,1.52-2.27A7.31,7.31,0,0,1,11.36,18.64Zm10.46,2.72a.47.47,0,0,0-.46.46.46.46,0,0,0,.46.45H35a.45.45,0,0,0,.45-.45.46.46,0,0,0-.45-.46Z" fill="#009639"/></g></g></svg>