<svg xmlns="http://www.w3.org/2000/svg" width="64" height="64" viewBox="0 0 64 64"><title>individuals</title><g id="53bbd2be-2722-4baa-ba92-ddaf9331178a" data-name="individuals"><path d="M31.51,50.55a10.46,10.46,0,0,1-4.57-1l-6.57-3.18a3.44,3.44,0,0,0-3.11.06l-1.42.77A2.32,2.32,0,0,1,14,47.3,2.37,2.37,0,0,1,12.61,46L9.42,38.09a2.31,2.31,0,0,1,1-2.9C12.7,34,16.87,32,19.61,31.85h.07a10.61,10.61,0,0,1,8.94,3.57c.94,1.1,4.08,1.82,8.62,2a3,3,0,0,1,2.14,1,3,3,0,0,1,.71,2.28A3,3,0,0,1,37,43.33c-4,0-9.26-.15-11.84-1.07l-.14-.06-.91-.32-.06,0,1.13.58c1.93.68,5.81,1.05,11.17,1.05h.8a3,3,0,0,0,2.18-.92,3.19,3.19,0,0,0,.91-2.21,2.51,2.51,0,0,0-.07-.64l-.09-.36,10.12-5.6a2.85,2.85,0,0,1,1.58-.46,3,3,0,0,1,2.36,1.17,3,3,0,0,1,.53,2.32,2.91,2.91,0,0,1-1.32,1.93L37.11,49A10.46,10.46,0,0,1,31.51,50.55ZM18.88,45a4.4,4.4,0,0,1,1.91.43l6.58,3.19a9.57,9.57,0,0,0,9.22-.51L52.86,37.9a2,2,0,0,0,.89-1.3,2,2,0,0,0-.36-1.55,2.06,2.06,0,0,0-2.66-.47l-9.52,5.28a4,4,0,0,1,0,.5,4.19,4.19,0,0,1-1.18,2.89,4,4,0,0,1-2.87,1.21h-.81c-5.55,0-9.43-.38-11.54-1.12l-1.09-.52a1,1,0,0,1-.68-.94,1,1,0,0,1,1-1,1.07,1.07,0,0,1,.29.06c.43.14.76.26,1,.37l.13.05c1.93.69,5.9,1,11.5,1a2.08,2.08,0,0,0,2.1-1.77A2,2,0,0,0,38.65,39a2,2,0,0,0-1.44-.68c-3.46-.12-7.88-.61-9.32-2.31a9.62,9.62,0,0,0-8.24-3.23h-.07C17,33,13.06,34.9,10.91,36a1.34,1.34,0,0,0-.59,1.69l3.19,7.89a1.39,1.39,0,0,0,.8.76,1.29,1.29,0,0,0,1.07-.08l1.42-.76A4.39,4.39,0,0,1,18.88,45Z" fill="#00b087"/><path d="M35.51,38.16a.55.55,0,0,1-.29-.08.62.62,0,0,1-.26-.55l0-6a6.17,6.17,0,0,0-1.22-.27l-.41-.07a5.19,5.19,0,0,1-2.92-1.47,12.83,12.83,0,0,1-3-6.25,1.09,1.09,0,0,1,.3-1,1,1,0,0,1,1-.3A13.76,13.76,0,0,1,35,25.33,4.63,4.63,0,0,0,34.23,24l-.22-.3a4.91,4.91,0,0,1-1-3A13.61,13.61,0,0,1,35.17,14a1.09,1.09,0,0,1,.94-.52h0A1.06,1.06,0,0,1,37,14a12.78,12.78,0,0,1,2.25,6.56,5.15,5.15,0,0,1-1,3.11L38,24a5.4,5.4,0,0,0-.84,1.46v2.89c.14-.16.29-.33.45-.49a16.53,16.53,0,0,1,7.6-3.9.83.83,0,0,1,.24,0,1.07,1.07,0,0,1,.85.42,1.11,1.11,0,0,1,.22.92c-.57,2.36-1.49,5.35-3.67,7.53a6,6,0,0,1-3.43,1.73l-.49.08a7.44,7.44,0,0,0-1.79.44l-.17,2a.94.94,0,0,1-.28.68A1,1,0,0,1,36,38a.43.43,0,0,0-.13,0A.87.87,0,0,1,35.51,38.16Zm-7-15.09s-.06,0-.08,0a.16.16,0,0,0,0,.13A11.84,11.84,0,0,0,31.15,29a4.1,4.1,0,0,0,2.39,1.2l.4.07a6.31,6.31,0,0,1,1.75.46l.29.13,0,6.18h0L36,37l.22-2.61.25-.12a7.93,7.93,0,0,1,2.31-.63l.47-.08a5,5,0,0,0,2.91-1.45c2-2,2.88-4.84,3.41-7.08,0,0,0-.05,0-.09a.12.12,0,0,0-.08-.05,15.52,15.52,0,0,0-7.17,3.65,4.89,4.89,0,0,0-1.16,1.78l-.94,2.62,0-7.72a6.07,6.07,0,0,1,1-1.8l.23-.32a4.17,4.17,0,0,0,.84-2.55,12,12,0,0,0-2.11-6.06s-.09-.06-.09-.05a.12.12,0,0,0-.11.05h0a12.66,12.66,0,0,0-2,6.24,4,4,0,0,0,.82,2.48l.22.28a5.43,5.43,0,0,1,1,1.74l0,.14v3.38L35.07,27a4.36,4.36,0,0,0-.73-1,12.78,12.78,0,0,0-5.84-3Z" fill="#00b087"/><path d="M32,63.5A31.5,31.5,0,1,1,63.5,32,31.53,31.53,0,0,1,32,63.5Zm0-62A30.53,30.53,0,1,0,62.53,32,30.57,30.57,0,0,0,32,1.47Z" fill="#00b087"/></g></svg>