<svg xmlns="http://www.w3.org/2000/svg" width="64" height="64" viewBox="0 0 64 64"><title>interactive</title><g id="e44654ca-5f33-47d9-9701-0d04efd7661f" data-name="interactive"><path d="M15.41,27.56c.09.34.2.68.31,1l-4.57,1.69c-.17-.51-.33-1-.47-1.58l4.73-1.13m.36-.59-5.69,1.36a20.09,20.09,0,0,0,.78,2.58l5.49-2A16.73,16.73,0,0,1,15.77,27Z" fill="#00b087"/><path d="M11.19,15.75l4.56,1.71c-.11.33-.22.68-.31,1l-4.73-1.16c.14-.53.3-1.06.48-1.57m-.29-.64a24.48,24.48,0,0,0-.79,2.57l5.68,1.39a18.14,18.14,0,0,1,.59-1.9L10.9,15.11Z" fill="#00b087"/><path d="M10,22.19l4.86.3c0,.19,0,.38,0,.58s0,.33,0,.49L10,23.83c0-.26,0-.51,0-.76s0-.6,0-.88m-.46-.52c0,.46,0,.93,0,1.4h0c0,.43,0,.86,0,1.28L15.34,24c0-.31,0-.63,0-.95s0-.7,0-1l-5.84-.36Z" fill="#00b087"/><path d="M17.47,32.24c.19.31.39.6.59.89l-3.87,3c-.32-.45-.63-.91-.92-1.37l4.2-2.48m.16-.67-5,3a22.37,22.37,0,0,0,1.51,2.23l4.65-3.56a15.43,15.43,0,0,1-1.12-1.65Z" fill="#00b087"/><path d="M49.15,24.91l4.86.37c-.06.54-.13,1.09-.23,1.63L49,26c.05-.35.1-.7.14-1.05m-.45-.53a16.36,16.36,0,0,1-.27,2l5.74,1.14a21.54,21.54,0,0,0,.37-2.66l-5.84-.45Z" fill="#00b087"/><path d="M18.9,5.32l2.81,4c-.28.21-.55.43-.83.66L17.61,6.34q.64-.54,1.29-1M19,4.63A22.48,22.48,0,0,0,16.92,6.3l3.92,4.35a16.83,16.83,0,0,1,1.55-1.24L19,4.63Z" fill="#00b087"/><path d="M47.86,29.85l4.53,1.79c-.16.38-.33.76-.51,1.13l-4.33-2.24c.11-.23.21-.45.31-.68m-.27-.64c-.2.52-.44,1-.69,1.53l5.2,2.69A22.46,22.46,0,0,0,53,31.37l-5.45-2.16Z" fill="#00b087"/><path d="M14.26,10l3.86,3c-.21.29-.41.59-.6.89l-4.18-2.51c.29-.46.6-.91.92-1.36m-.09-.69a21.71,21.71,0,0,0-1.51,2.22h0l5,3a18.4,18.4,0,0,1,1.12-1.65L14.17,9.26Z" fill="#00b087"/><path d="M47.53,7.34c.39.38.76.78,1.13,1.2l-3.75,3.12a10.57,10.57,0,0,0-.73-.77l3.35-3.55m0-.7-4,4.26a15.58,15.58,0,0,1,1.37,1.45L49.35,8.6a20,20,0,0,0-1.84-2Z" fill="#00b087"/><path d="M42.23,3.48c.48.25,1,.52,1.43.82L41,8.38a10.63,10.63,0,0,0-.93-.53l2.16-4.37M42,2.82,39.42,8.07a16.36,16.36,0,0,1,1.73,1l3.19-4.9A22.25,22.25,0,0,0,42,2.82Z" fill="#00b087"/><path d="M36,1.35c.53.1,1.07.22,1.6.36L36.3,6.39l-1-.23L36,1.35M35.62.78,34.7,6.56c.65.11,1.31.26,1.94.43l1.6-5.63A23.56,23.56,0,0,0,35.62.78Z" fill="#00b087"/><path d="M53.69,18.74c.11.55.2,1.09.27,1.63l-4.85.48c0-.35-.11-.7-.17-1.05l4.75-1.06m.38-.59-5.71,1.27a16.63,16.63,0,0,1,.31,2l5.83-.57a21.67,21.67,0,0,0-.43-2.66Z" fill="#00b087"/><path d="M24.68,2.24,26.2,6.87q-.49.18-1,.39L23.15,2.85c.52-.23,1-.43,1.53-.61M25,1.62a22.34,22.34,0,0,0-2.5,1L25,7.91a16.14,16.14,0,0,1,1.85-.73L25,1.62Zm1.82,5.56Z" fill="#00b087"/><path d="M31.12,1l.09,4.87c-.34,0-.7,0-1.06.08l-.67-4.83C30,1.07,30.57,1,31.12,1M31.61.5a23.81,23.81,0,0,0-2.68.21l.8,5.8a16.35,16.35,0,0,1,2-.16h0L31.61.5Z" fill="#00b087"/><path d="M51.47,12.58c.26.47.5,1,.73,1.48l-4.49,1.88c-.15-.33-.31-.64-.47-.95l4.23-2.41m.18-.68-5.08,2.9a18.37,18.37,0,0,1,.88,1.78l5.4-2.26a21.77,21.77,0,0,0-1.2-2.42Z" fill="#00b087"/><path d="M31.88,18.77c2.77,0,2.8,4,2.8,4.2v5.11L34.5,39.82,35,40V31c.22,0,2.52-.16,2.73-.16a3.73,3.73,0,0,1,1.11.17,2.26,2.26,0,0,1,1.39,1.85l.14,7.72L41,41V34c.27,0,2.16-.46,2.42-.46a3.73,3.73,0,0,1,1.11.17A2.49,2.49,0,0,1,46,35.81l.08,5.82L47,42V37c.29,0,1.83-.16,2.11-.16a3.68,3.68,0,0,1,1.11.16c1.52.47,1.54,2.82,1.54,2.93V52.19A10.09,10.09,0,0,1,50.41,56a6.15,6.15,0,0,0-1.5,4.32,16.21,16.21,0,0,1,0,2.19H33.09a11.31,11.31,0,0,0-.32-3C32.4,58.4,30.07,54.05,30,54v0l0,0L30,53.84c-1.31-2.17-4.51-7.42-6.06-9.37a53.33,53.33,0,0,0-4.64-4.89c.28-.59,1.41-2.76,3.2-2.76h.19c1.11.09,2.85,1.22,4.77,3.1l1.67,1.64V23c0-1.17.51-4.2,2.8-4.2m0-1c-2.77,0-3.78,3.1-3.78,5.18V39.23c-1.38-1.35-3.61-3.24-5.38-3.38h-.27c-2.72,0-4.12,3.38-4.18,3.53h0a.73.73,0,0,0,.18.81,53.6,53.6,0,0,1,4.67,4.9c1.81,2.28,6,9.35,6.06,9.39.64,1.2,2.38,4.51,2.65,5.35a10.89,10.89,0,0,1,.27,2.94.73.73,0,0,0,.21.52.7.7,0,0,0,.51.22H49.17a.72.72,0,0,0,.72-.64,15.57,15.57,0,0,0,0-2.6,5.21,5.21,0,0,1,1.29-3.65,10.86,10.86,0,0,0,1.55-4.3.37.37,0,0,0,0-.11V39.93h0c0-.25,0-3.18-2.23-3.86a4.67,4.67,0,0,0-1.4-.21A19.3,19.3,0,0,0,46,36l1,6,0-6.28a3.45,3.45,0,0,0-2.14-2.95,4.67,4.67,0,0,0-1.4-.21A11.58,11.58,0,0,0,41,33v8l.22-8.26a3.34,3.34,0,0,0-2.09-2.67,4.67,4.67,0,0,0-1.4-.21A18.4,18.4,0,0,0,35,30V40l.66-11.91V23c0-1.92-.8-5.18-3.78-5.18Z" fill="#00b087"/></g></svg>