<svg xmlns="http://www.w3.org/2000/svg" width="64" height="64" viewBox="0 0 64 64"><title>invest</title><g id="2b84fcf0-a996-4f84-9480-baead5a0814e" data-name="invest"><path d="M18.48,26.16a.43.43,0,0,1-.33-.14L9.7,17.83,1.32,26a.49.49,0,0,1-.68,0,.48.48,0,0,1,0-.69l9-8.81,9.13,8.85a.48.48,0,0,1,0,.68A.47.47,0,0,1,18.48,26.16Z" fill="#00b087"/><path d="M9.73,50.11a.48.48,0,0,1-.48-.48V17.44A.47.47,0,0,1,9.73,17a.48.48,0,0,1,.49.48V49.63A.49.49,0,0,1,9.73,50.11Z" fill="#00b087"/><path d="M59.81,13.23H26.11a3.7,3.7,0,1,1,0-7.39h33.7a3.7,3.7,0,0,1,0,7.39ZM26.11,6.81a2.73,2.73,0,1,0,0,5.45h33.7a2.73,2.73,0,0,0,0-5.45Z" fill="#00b087"/><path d="M59.81,19.65H26.11a3.7,3.7,0,1,1,0-7.39h33.7a3.7,3.7,0,0,1,0,7.39Zm-33.7-6.42a2.73,2.73,0,1,0,0,5.45h33.7a2.73,2.73,0,0,0,0-5.45Z" fill="#00b087"/><path d="M59.81,26.07H26.11a3.7,3.7,0,1,1,0-7.39h33.7a3.7,3.7,0,0,1,0,7.39Zm-33.7-6.42a2.73,2.73,0,1,0,0,5.45h33.7a2.73,2.73,0,0,0,0-5.45Z" fill="#00b087"/><path d="M59.81,32.48H26.11a3.69,3.69,0,1,1,0-7.38h33.7a3.69,3.69,0,0,1,0,7.38Zm-33.7-6.41a2.73,2.73,0,1,0,0,5.45h33.7a2.73,2.73,0,0,0,0-5.45Z" fill="#00b087"/><path d="M59.81,38.9H26.11a3.69,3.69,0,1,1,0-7.38h33.7a3.69,3.69,0,0,1,0,7.38Zm-33.7-6.42a2.73,2.73,0,1,0,0,5.45h33.7a2.73,2.73,0,0,0,0-5.45Z" fill="#00b087"/><path d="M59.81,45.32H26.11a3.7,3.7,0,1,1,0-7.39h33.7a3.7,3.7,0,0,1,0,7.39ZM26.11,38.9a2.73,2.73,0,1,0,0,5.45h33.7a2.73,2.73,0,0,0,0-5.45Z" fill="#00b087"/><path d="M59.81,51.74H26.11a3.7,3.7,0,1,1,0-7.39h33.7a3.7,3.7,0,0,1,0,7.39Zm-33.7-6.42a2.73,2.73,0,1,0,0,5.45h33.7a2.73,2.73,0,0,0,0-5.45Z" fill="#00b087"/><path d="M59.81,58.16H26.11a3.7,3.7,0,1,1,0-7.39h33.7a3.7,3.7,0,0,1,0,7.39Zm-33.7-6.42a2.73,2.73,0,1,0,0,5.45h33.7a2.73,2.73,0,0,0,0-5.45Z" fill="#00b087"/></g></svg>