<svg xmlns="http://www.w3.org/2000/svg" width="64" height="64" viewBox="0 0 64 64"><title>invest_now</title><g id="d695121a-5e12-4fc8-9cd8-6f0e181ba01b" data-name="invest_now"><path d="M55.74,63.5a.64.64,0,0,1-.43-.18L47,55l-8.34,8.3a.6.6,0,0,1-.85-.85h0l8.34-8.3-8.34-8.3a.59.59,0,0,1,0-.84.6.6,0,0,1,.85,0h0L47,53.33,55.31,45a.6.6,0,0,1,.85,0,.59.59,0,0,1,0,.84l-8.33,8.3,8.34,8.3a.6.6,0,0,1,0,.84A.61.61,0,0,1,55.74,63.5ZM10,62.14A.6.6,0,0,1,9.64,61c8.12-5.22,14.18-11.59,18-18.91a44.23,44.23,0,0,0,4.83-19.39A55.16,55.16,0,0,0,29,2.62l-4.84,9.25a.6.6,0,1,1-1.08-.53L28.49,1.07A.59.59,0,0,1,28.74.7a.6.6,0,0,1,.73-.13l10,6.06a.6.6,0,0,1-.62,1L30.24,2.43a56.75,56.75,0,0,1,3.42,20.24,45.29,45.29,0,0,1-4.95,19.91C24.81,50.15,18.6,56.71,10.28,62A.76.76,0,0,1,10,62.14Zm8.72-22.55a.61.61,0,0,1-.43-.17l-8.33-8.3L1.57,39.4a.61.61,0,0,1-.85-.07.59.59,0,0,1,0-.77l8.34-8.3L.71,22a.6.6,0,1,1,.78-.91l.07.07,8.35,8.32,8.34-8.3a.6.6,0,0,1,.85.07.62.62,0,0,1,0,.77l-8.35,8.3,8.35,8.3a.6.6,0,0,1,0,.84.58.58,0,0,1-.43.18Zm34.82-8a10,10,0,1,1,10-10h0A10.08,10.08,0,0,1,53.49,31.55Zm0-18.8a8.81,8.81,0,1,0,8.85,8.8h0A8.86,8.86,0,0,0,53.49,12.75Z" fill="#00b087"/></g></svg>