<svg xmlns="http://www.w3.org/2000/svg" width="56.19" height="66.9" viewBox="0 0 56.19 66.9"><title>invest-icon</title><g id="Layer_2" data-name="Layer 2"><g id="Layer_3" data-name="Layer 3"><path d="M51.69,0H22.36a4.51,4.51,0,0,0-4.5,4.5V5.81A4.47,4.47,0,0,0,19.41,9.2a4.45,4.45,0,0,0-1.55,3.38V13.9a4.45,4.45,0,0,0,1.55,3.38,4.49,4.49,0,0,0-1.55,3.39V22a4.45,4.45,0,0,0,1.55,3.38,4.49,4.49,0,0,0-1.55,3.39v1.31a4.49,4.49,0,0,0,1.55,3.39,4.45,4.45,0,0,0-1.55,3.38v1.32a4.45,4.45,0,0,0,1.55,3.38,4.48,4.48,0,0,0-1.55,3.38v1.32a4.45,4.45,0,0,0,1.55,3.38A4.49,4.49,0,0,0,17.86,53v1.31a4.49,4.49,0,0,0,1.55,3.39,4.45,4.45,0,0,0-1.55,3.38V62.4a4.51,4.51,0,0,0,4.5,4.5H51.69a4.5,4.5,0,0,0,4.5-4.5V61.08a4.48,4.48,0,0,0-1.54-3.38,4.51,4.51,0,0,0,1.54-3.39V53a4.51,4.51,0,0,0-1.54-3.39,4.48,4.48,0,0,0,1.54-3.38V44.91a4.49,4.49,0,0,0-1.54-3.38,4.49,4.49,0,0,0,1.54-3.38V36.83a4.48,4.48,0,0,0-1.54-3.38,4.51,4.51,0,0,0,1.54-3.39V28.75a4.51,4.51,0,0,0-1.54-3.39A4.48,4.48,0,0,0,56.19,22V20.67a4.5,4.5,0,0,0-1.54-3.39,4.48,4.48,0,0,0,1.54-3.38V12.58A4.48,4.48,0,0,0,54.65,9.2a4.51,4.51,0,0,0,1.54-3.39V4.5A4.49,4.49,0,0,0,51.69,0ZM54,61.1v1.32a2.27,2.27,0,0,1-2.27,2.27H22.36a2.27,2.27,0,0,1-2.27-2.27V61.1a2.27,2.27,0,0,1,2.27-2.26H51.69A2.26,2.26,0,0,1,54,61.1ZM54,53v1.31A2.27,2.27,0,0,1,51.7,56.6H22.36a2.27,2.27,0,0,1-2.27-2.27V53a2.27,2.27,0,0,1,2.27-2.27H51.69A2.27,2.27,0,0,1,54,53Zm0-8.09v1.31a2.27,2.27,0,0,1-2.27,2.27H22.36a2.27,2.27,0,0,1-2.27-2.27V44.93a2.27,2.27,0,0,1,2.27-2.27H51.69A2.28,2.28,0,0,1,54,44.93Zm0-8.09v1.32a2.27,2.27,0,0,1-2.27,2.27H22.36a2.27,2.27,0,0,1-2.27-2.27V36.85a2.27,2.27,0,0,1,2.27-2.27H51.69A2.26,2.26,0,0,1,54,36.84Zm0-8.08v1.31a2.27,2.27,0,0,1-2.27,2.27H22.36a2.27,2.27,0,0,1-2.27-2.26V28.76a2.27,2.27,0,0,1,2.27-2.27H51.69A2.28,2.28,0,0,1,54,28.76Zm0-8.09V22a2.27,2.27,0,0,1-2.27,2.27H22.36A2.27,2.27,0,0,1,20.09,22V20.67a2.27,2.27,0,0,1,2.27-2.26H51.69A2.26,2.26,0,0,1,54,20.67Zm0-8.08V13.9a2.27,2.27,0,0,1-2.27,2.27H22.36a2.27,2.27,0,0,1-2.27-2.27V12.59a2.27,2.27,0,0,1,2.27-2.27H51.69A2.27,2.27,0,0,1,54,12.59ZM22.36,8.09a2.27,2.27,0,0,1-2.27-2.27V4.5a2.27,2.27,0,0,1,2.27-2.27H51.69A2.27,2.27,0,0,1,54,4.5V5.81a2.26,2.26,0,0,1-2.27,2.27Z" fill="#00b087"/><path d="M7.82,16.5a1,1,0,0,0-.36-.24h0A1.11,1.11,0,0,0,7,16.17a1.06,1.06,0,0,0-.4.08h0a1.12,1.12,0,0,0-.37.24L.33,22.42A1.1,1.1,0,0,0,.33,24a1.09,1.09,0,0,0,.79.33A1.12,1.12,0,0,0,1.91,24l4-4V49.63a1.12,1.12,0,1,0,2.23,0V20l4,4a1.11,1.11,0,0,0,1.57-1.57Z" fill="#00b087"/></g></g></svg>