<svg xmlns="http://www.w3.org/2000/svg" width="64" height="64" viewBox="0 0 64 64"><title>learn</title><g id="44d7a536-dd1d-40b4-93f7-8976ae88dd2d" data-name="learn"><path d="M55.73,63.5H8.27V.5H48.35l7.38,7.39Zm-46.49-1H54.76V8.3L47.94,1.48H9.24Z" fill="#00b087"/><path d="M48.65,3l4.18,4.17H48.65V3m-1-2.36v7.5h7.5L47.68.64Z" fill="#00b087"/><path d="M44.86,37.24H19.54a.49.49,0,0,1,0-1H44.86a.49.49,0,0,1,0,1Z" fill="#00b087"/><path d="M44.86,42.87H19.54a.49.49,0,0,1,0-1H44.86a.49.49,0,1,1,0,1Z" fill="#00b087"/><path d="M44.86,48.49H19.54a.48.48,0,0,1-.49-.48.49.49,0,0,1,.49-.49H44.86a.49.49,0,0,1,.49.49A.48.48,0,0,1,44.86,48.49Z" fill="#00b087"/><path d="M36.42,31.59H19.54a.47.47,0,0,1,0-.94H36.42a.47.47,0,1,1,0,.94Z" fill="#00b087"/><path d="M24,1.3V23.39l-4.4-3.25-.45-.34-.44.35L14.3,23.59,14.39,1.3H24M24.7.57h-11l-.1,24.53,5.57-4.38,5.57,4.12V.57Z" fill="#00b087"/></g></svg>