<svg xmlns="http://www.w3.org/2000/svg" width="61.78" height="59.04" viewBox="0 0 61.78 59.04"><title>linkedin</title><g id="f3626b2c-b293-4da6-a436-f67fbcaf5753" data-name="Layer 2"><g id="8c5153bb-4c8f-46ed-bd78-d2629e686996" data-name="Layer 1"><path id="63a1a9ac-11cd-476a-973a-8b72e5ee21c0" data-name="LinkedIn" d="M61.78,36.2V59H48.54V37.73c0-5.36-1.91-9-6.71-9A7.24,7.24,0,0,0,35,33.56a9.05,9.05,0,0,0-.44,3.23V59H21.35s.18-36.1,0-39.84H34.6v5.65l-.09.13h.09v-.13a13.14,13.14,0,0,1,11.93-6.58C55.25,18.27,61.78,24,61.78,36.2ZM7.5,0C3,0,0,3,0,6.88s2.88,6.89,7.32,6.89h.09c4.62,0,7.49-3.06,7.49-6.89S12,0,7.5,0ZM.79,59H14V19.2H.79Z" fill="#00b087"/></g></g></svg>