<svg xmlns="http://www.w3.org/2000/svg" width="64" height="64" viewBox="0 0 64 64"><title>location</title><g id="5ecd1977-f5e7-44b6-9870-7f0a8a73a781" data-name="location"><path d="M32,63.5,13.05,38.76a23.94,23.94,0,0,1,0-28.92,23.89,23.89,0,0,1,37.9,0h0a23.94,23.94,0,0,1,0,28.92Zm0-62a22.67,22.67,0,0,0-18.19,9,23,23,0,0,0,0,27.75L32,61.91,50.19,38.18a23,23,0,0,0,0-27.75h0A22.67,22.67,0,0,0,32,1.46Zm0,35A12.69,12.69,0,1,1,44.69,23.74,12.7,12.7,0,0,1,32,36.42ZM32,12A11.73,11.73,0,1,0,43.72,23.74,11.74,11.74,0,0,0,32,12Z" fill="#00b087"/></g></svg>