<svg xmlns="http://www.w3.org/2000/svg" width="8.82mm" height="8.82mm" viewBox="0 0 25 25"><title>login-link</title><g id="e57cbae7-64af-44a6-b72c-765c004c72fe" data-name="Layer 2"><g id="bfff9dab-21da-4b7a-9dc6-1faa9469be59" data-name="Layer 1"><rect width="25" height="25" fill="#039648"/><path d="M16.06,11h-.84V9.23a2.73,2.73,0,0,0-5.46,0V11H8.93a1,1,0,0,0-1,1v5.46a1,1,0,0,0,1,1h7.14a1,1,0,0,0,1-1V12a1.06,1.06,0,0,0-1.05-1ZM10.24,9.23a2.26,2.26,0,0,1,4.51,0V11H10.24Zm6.37,8.23a.56.56,0,0,1-.55.56H8.93a.57.57,0,0,1-.56-.56V12a.57.57,0,0,1,.56-.56h7.14a.57.57,0,0,1,.56.56v5.46Zm-4.12-4.12a.8.8,0,0,0-.24,1.56V16h.48V14.9a.78.78,0,0,0,.56-.76A.79.79,0,0,0,12.49,13.34Zm0,1.13a.32.32,0,0,1-.32-.32.33.33,0,0,1,.32-.32.32.32,0,0,1,.32.32A.32.32,0,0,1,12.49,14.47Z" fill="#fff"/></g></g></svg>