<svg xmlns="http://www.w3.org/2000/svg" width="64" height="64" viewBox="0 0 64 64"><title>logo</title><g id="de37f06c-5114-4344-b873-256deab66baa" data-name="logo"><path d="M7.21,58.84c-3.6,0-5.25-1.42-6-2.7-2.25-4,.9-11.7,8.4-20.77,12.15-14.55,32-28,44.33-30,5.62-.9,8,.82,8.85,2.47,2.25,4-.9,11.7-8.4,20.78-12.15,14.55-32,28.05-44.33,30A19.33,19.33,0,0,1,7.21,58.84ZM56.82,5.75A18.48,18.48,0,0,0,54.05,6C41.9,8,22.21,21.34,10.1,35.82c-7.35,8.77-10.5,16.27-8.32,20C3,57.94,5.83,58.69,10,58,22.1,56,41.82,42.64,53.9,28.17c7.35-8.78,10.5-16.28,8.32-20C61.32,6.57,59.45,5.75,56.82,5.75Z" fill="#00b087"/><path d="M56.37,61.25a21.34,21.34,0,0,1-6.9-1.5c-13.42-5.1-32.24-21.6-42-36.75C2,14.45.35,7.78,2.9,4.63c1.95-2.4,5.93-2.48,11.63-.3,13.42,5.1,32.24,21.6,42,36.75C62,49.63,63.65,56.3,61.1,59.45A6,6,0,0,1,56.37,61.25ZM7.63,3.34c-1.88,0-3.38.53-4.2,1.65-2.33,2.85-.6,9.53,4.65,17.7h0c9.67,15.08,28.34,31.5,41.69,36.53,5.33,2,9.23,2,10.88-.15,2.32-2.85.6-9.53-4.65-17.7C46.32,26.29,27.65,9.87,14.3,4.84A20.4,20.4,0,0,0,7.63,3.34Z" fill="#00b087"/><circle cx="32" cy="31.99" r="10.42" fill="#00b087"/><circle cx="44.6" cy="8.44" r="2.17" fill="#00b087"/><circle cx="10.09" cy="26.29" r="2.17" fill="#00b087"/></g></svg>