<svg xmlns="http://www.w3.org/2000/svg" width="64" height="64" viewBox="0 0 64 64"><title>mail</title><g id="fdb9f8fb-a423-45f2-bdcd-ff73ecec7eb6" data-name="mail"><path d="M32,38.62a3.58,3.58,0,0,1-2.16-.71h0L.5,15.74l0-.26a4.3,4.3,0,0,1,1.22-2.73,4.08,4.08,0,0,1,2.93-1.2H59.33a4.1,4.1,0,0,1,2.92,1.2,4.28,4.28,0,0,1,1.23,2.73l0,.26L34.16,37.91A3.65,3.65,0,0,1,32,38.62Zm-1.56-1.5a2.61,2.61,0,0,0,3.12,0L62.47,15.29a3.15,3.15,0,0,0-3.13-2.76H4.66a3,3,0,0,0-2.22.91,3.32,3.32,0,0,0-.91,1.85Z" fill="#00b087"/><path d="M4.63,52.45A4.1,4.1,0,0,1,.59,49L.52,43V18.52l19.66,14.9h0l.3.21,9,6.82a4.17,4.17,0,0,0,5,0l9.31-7,0,0L45.72,32l.43-.4L63.48,18.52V44.39l0,4.53a4.18,4.18,0,0,1-1.14,2.33,4,4,0,0,1-3,1.2H4.63ZM1.5,20.5v24l.06,4.41a3.14,3.14,0,0,0,.88,1.65,2.94,2.94,0,0,0,2.22.91H59.34a3.18,3.18,0,0,0,2.25-.91,3.14,3.14,0,0,0,.86-1.72l0-5.85V20.5L47.26,32l.06,0-3.49,2.58h0l-8.73,6.6a5.16,5.16,0,0,1-6.17,0L16.78,32.12Z" fill="#00b087"/></g></svg>