<svg xmlns="http://www.w3.org/2000/svg" width="37.33" height="57.7" viewBox="0 0 37.33 57.7"><title>manage-investors</title><g id="Layer_2" data-name="Layer 2"><g id="Layer_1-2" data-name="Layer 1"><path d="M31.76,25.69V13.19a13.13,13.13,0,1,0-26.25-.07v3.6a3.53,3.53,0,0,0,7.06,0v-3.6a6.13,6.13,0,0,1,12.26,0v8.12a18,18,0,0,0-6.13-1.06A18.76,18.76,0,1,0,37.33,38.94,18.52,18.52,0,0,0,31.76,25.69ZM1.55,38.94A17.09,17.09,0,1,1,18.64,56,17.12,17.12,0,0,1,1.55,38.94ZM18.64,5.45a7.74,7.74,0,0,0-7.74,7.74v3.59a1.92,1.92,0,1,1-3.84,0V13.19a11.52,11.52,0,1,1,23,0V24.27A18.23,18.23,0,0,0,26.31,22V13.19A7.65,7.65,0,0,0,18.64,5.45Z" fill="#00b087"/><path d="M18.64,29.41a5.88,5.88,0,0,0-5.89,5.88A6,6,0,0,0,15,39.93v5A3.66,3.66,0,0,0,18.7,48.6,3.62,3.62,0,0,0,22.35,45v-5a5.87,5.87,0,0,0-3.71-10.52Zm2,9.66V45a2,2,0,0,1-4,0V39.07l-.37-.25a4.33,4.33,0,0,1-1.92-3.53,4.28,4.28,0,0,1,8.55,0A4.08,4.08,0,0,1,21,38.82Z" fill="#00b087"/></g></g></svg>