<svg xmlns="http://www.w3.org/2000/svg" width="64" height="64" viewBox="0 0 64 64"><title>manager</title><g id="0a6433d1-47ed-4312-955c-c2a7605f111c" data-name="manager"><path d="M56,.5A4.07,4.07,0,1,1,52,4.57,4.07,4.07,0,0,1,56,.5h0Z" fill="#00b087"/><path d="M56,28.45A4.07,4.07,0,1,1,52,32.52,4.07,4.07,0,0,1,56,28.45h0Z" fill="#00b087"/><path d="M56,55.36A4.07,4.07,0,1,1,52,59.43,4.07,4.07,0,0,1,56,55.36h0Z" fill="#00b087"/><path d="M14.81,19.21a6.51,6.51,0,1,1,6.5-6.5A6.51,6.51,0,0,1,14.81,19.21Zm0-12a5.49,5.49,0,1,0,5.49,5.49A5.49,5.49,0,0,0,14.81,7.22Z" fill="#00b087"/><path d="M10.61,57.84a1.28,1.28,0,0,1-1.24-1C3.89,24.72,3.89,24.64,3.89,24.58a3.5,3.5,0,0,1,.87-2.41,3.71,3.71,0,0,1,2.65-1.08H22.2a3.55,3.55,0,0,1,2.61,1.06h0a3.25,3.25,0,0,1,.85,2.71L20.25,56.79A1.3,1.3,0,0,1,19,57.84ZM7.34,22.1a2.59,2.59,0,0,0-1.84.77,2.44,2.44,0,0,0-.6,1.7C5,25,8.5,45.7,10.37,56.62a.25.25,0,0,0,.25.2H19a.26.26,0,0,0,.25-.21l5.42-31.89a2.21,2.21,0,0,0-.58-1.84,2.62,2.62,0,0,0-1.88-.76H7.34Z" fill="#00b087"/><path d="M54.52,4.58H38.26a.51.51,0,0,1,0-1H54.52a.51.51,0,0,1,0,1Z" fill="#00b087"/><path d="M38.26,60.45a.5.5,0,0,1-.5-.5V4.07a.5.5,0,0,1,.5-.51.51.51,0,0,1,.51.51V60A.5.5,0,0,1,38.26,60.45Z" fill="#00b087"/><rect x="38.26" y="59.44" width="16.25" height="1.02" fill="#00b087"/><path d="M53.5,33H30.14a.5.5,0,0,1-.51-.5.51.51,0,0,1,.51-.51H53.5a.51.51,0,0,1,.51.51A.5.5,0,0,1,53.5,33Z" fill="#00b087"/></g></svg>