<svg xmlns="http://www.w3.org/2000/svg" width="64" height="64" viewBox="0 0 64 64"><title>manage_investors</title><g id="cbd46042-2d9c-4989-95ab-005104de9fa4" data-name="manage_investors"><path d="M33.3,45.63v7.16H30.7V45.63a3.77,3.77,0,1,1,2.6,0Z" fill="#00b087"/><path d="M48.54,63.5H15.46a6.7,6.7,0,0,1-6.69-6.69V32a6.7,6.7,0,0,1,6.69-6.69H41.85V15.46a9.85,9.85,0,1,0-19.7,0v1.38A1.18,1.18,0,0,1,21,18H18.22A1.18,1.18,0,0,1,17,16.84V15.46a15,15,0,0,1,29.92,0v9.85h1.58A6.7,6.7,0,0,1,55.23,32V56.81A6.7,6.7,0,0,1,48.54,63.5ZM15.46,26.28A5.73,5.73,0,0,0,9.74,32V56.81a5.72,5.72,0,0,0,5.72,5.72H48.54a5.72,5.72,0,0,0,5.72-5.72V32a5.73,5.73,0,0,0-5.72-5.72H46.47A.49.49,0,0,1,46,25.8V15.46a14,14,0,0,0-28,0v1.38a.2.2,0,0,0,.21.2H21a.21.21,0,0,0,.21-.2V15.46a10.82,10.82,0,1,1,21.64,0V25.8a.48.48,0,0,1-.48.48Z" fill="#00b087"/></g></svg>