<svg xmlns="http://www.w3.org/2000/svg" width="25.4" height="40" viewBox="0 0 25.4 40"><title>marriage</title><g id="b89c6a37-833f-41e4-97d2-27ff8b3a289e" data-name="Layer 2"><g id="a2664257-594c-4e69-99db-f4c662011612" data-name="Layer 1"><path d="M22.22,0h-19A3.18,3.18,0,0,0,0,3.17V29.1a3.19,3.19,0,0,0,3.17,3.18H9.1l-.16,7a.67.67,0,0,0,.43.63l.26.11a.84.84,0,0,0,.48-.21l2.59-2.22,2.59,2.22a.63.63,0,0,0,.74.1.68.68,0,0,0,.43-.63l-.16-7h5.92A3.19,3.19,0,0,0,25.4,29.1V3.17A3.19,3.19,0,0,0,22.22,0Zm-9,36.56a.79.79,0,0,0-.95,0L10,38.47l.26-8.94a5.33,5.33,0,0,0,4.93,0l.21,8.89ZM12.8,29.1a4.34,4.34,0,1,1,4.34-4.34A4.36,4.36,0,0,1,12.8,29.1Zm11.54,0a2,2,0,0,1-2,2.12H16.24l0-2.22a5.38,5.38,0,0,0,.74-7.62,5.24,5.24,0,0,0-4.13-2,5.4,5.4,0,0,0-5.39,5.34,5.34,5.34,0,0,0,1.85,4,.33.33,0,0,0,0,.21v2.23h-6a2,2,0,0,1-2.11-2v-26A2.12,2.12,0,0,1,3.17,1.06h19a2.12,2.12,0,0,1,2.12,2.11Z" fill="#c1c1c1"/><path d="M9.26,8.25h6.88a.5.5,0,0,0,.53-.52.47.47,0,0,0-.43-.53h-7a.47.47,0,0,0-.53.42v.11a.5.5,0,0,0,.53.52Z" fill="#c1c1c1"/><path d="M19.42,13H6.08a.46.46,0,0,0-.52.42v.11a.49.49,0,0,0,.52.52H19.31a.5.5,0,0,0,.53-.52.47.47,0,0,0-.42-.53Z" fill="#c1c1c1"/></g></g></svg>