<svg xmlns="http://www.w3.org/2000/svg" width="235.62" height="59.27" viewBox="0 0 235.62 59.27"><title>medium-risk</title><rect y="17.3" width="47.21" height="27.75" fill="#b7d88e"/><rect x="47.21" y="17.3" width="47.21" height="27.75" fill="#6ebd5f"/><rect x="94.01" width="47.21" height="45.05" fill="#f4d03f"/><rect x="141.21" y="17.3" width="47.21" height="27.75" fill="#f89624"/><rect x="188.42" y="17.3" width="47.21" height="27.75" fill="#f26a21"/><path d="M7,56.8H1.25v-8.4H2v7.7H7Z" transform="translate(-0.05)" fill="#666766"/><path d="M13.7,54a2.86,2.86,0,0,1-2.94,2.91,2.91,2.91,0,1,1,0-5.82A2.86,2.86,0,0,1,13.7,54ZM8.53,54a2.23,2.23,0,1,0,2.23-2.27A2.19,2.19,0,0,0,8.53,54Z" transform="translate(-0.05)" fill="#666766"/><path d="M21.69,56.11l1.91-4.95h.71L22.1,56.8h-.8l-1.86-4.93L17.59,56.8h-.8l-2.21-5.64h.73l1.91,4.94,1.85-4.94h.77Z" transform="translate(-0.05)" fill="#666766"/><path d="M210.49,52.23h5.41V48.41h.73v8.4h-.73V52.92h-5.41V56.8h-.73v-8.4h.73Z" transform="translate(-0.05)" fill="#666766"/><path d="M219.81,49.13a.48.48,0,0,1-.49.49.48.48,0,0,1-.49-.49.49.49,0,0,1,.49-.5A.49.49,0,0,1,219.81,49.13Zm-.15,7.67H219V51.16h.68Z" transform="translate(-0.05)" fill="#666766"/><path d="M226.4,52.26v-1.1h.68v5.26a2.72,2.72,0,0,1-3,2.85,3.59,3.59,0,0,1-2.37-.82l.35-.5a3.26,3.26,0,0,0,2,.69,2.09,2.09,0,0,0,2.28-2.2v-.8a2.46,2.46,0,0,1-2.2,1.19,2.88,2.88,0,0,1,0-5.76A2.47,2.47,0,0,1,226.4,52.26Zm-4.3,1.68a2.18,2.18,0,1,0,2.18-2.24A2.15,2.15,0,0,0,222.09,53.95Z" transform="translate(-0.05)" fill="#666766"/><path d="M229.94,52.14a2.27,2.27,0,0,1,2-1.07,2.18,2.18,0,0,1,2.38,2.27V56.8h-.68V53.55a1.67,1.67,0,0,0-1.81-1.83,1.82,1.82,0,0,0-1.89,1.87V56.8h-.68V48.17h.68Z" transform="translate(-0.05)" fill="#666766"/></svg>