<svg xmlns="http://www.w3.org/2000/svg" width="64" height="64" viewBox="0 0 64 64"><title>morningstar</title><g id="1cae9015-b855-4a0a-9673-cb15a1c9a970" data-name="medium_to_high_risk"><g id="eb56f1f6-792e-4b10-887b-ad7990f024ca" data-name="Layer 2"><g id="3c91cd2d-5416-466d-9d15-1fdb11237fab" data-name="Layer 3"><polygon points="32.17 25.77 33.3 25.77 33.3 38.26 32.17 38.26 32.17 25.77 32.17 25.77" fill="#e93d42"/><polygon points="47.82 25.77 51.45 25.77 51.45 26.81 50.22 26.81 50.22 38.26 49.08 38.26 49.08 26.81 47.82 26.81 47.82 25.77 47.82 25.77" fill="#e93d42"/><polygon points="31.13 25.77 31.13 38.26 29.94 38.26 28.23 30.67 28.23 38.26 27.12 38.26 27.12 25.77 28.14 25.77 30.01 34.04 30.01 25.77 31.13 25.77 31.13 25.77" fill="#e93d42"/><polygon points="6.41 25.77 6.41 38.26 5.29 38.26 5.29 27.55 3.91 38.26 2.98 38.26 1.63 27.55 1.63 38.26 0.5 38.26 0.5 25.77 2.4 25.77 3.49 33.3 4.52 25.77 6.41 25.77 6.41 25.77" fill="#e93d42"/><path d="M20.25,38.27a7.23,7.23,0,1,0-11.66,0h1.5a6.09,6.09,0,1,1,8.65,0Z" fill="#e93d42"/><path d="M54.06,34.32l-.76-6.89-.7,6.9Zm1.5,3.94H54.45l-.29-2.81H52.5l-.27,2.81H51.09l1.28-12.49h1.74Z" fill="#e93d42"/><path d="M42,36.68c0,.56-.33.85-.71.85a.75.75,0,0,1-.71-.85V27.24c0-.57.34-.85.71-.85s.71.29.71.85v2.82h1.15V27.73c0-1.58-.63-2.34-1.9-2.34a1.84,1.84,0,0,0-1.86,2v8.79c0,1.61.62,2.39,1.89,2.39s1.87-.77,1.87-2.42V31.65H41v1.09h1v3.94Z" fill="#e93d42"/><path d="M46.67,36.38V33.13l-2.6-2V27.55c0-1.43.64-2.16,1.9-2.16s1.85.73,1.86,2.34v2.33H46.66V27.24c0-.57-.32-.85-.7-.85s-.7.29-.7.85v3.4l2.57,1.94v3.76c0,1.46-.65,2.26-1.88,2.26s-1.88-.75-1.88-2.18V33.48h1.19v3.21c0,.56.33.85.7.85s.71-.29.71-.85v-.31Z" fill="#e93d42"/><path d="M23.56,26.75v5H24c.74,0,1.08-.34,1.08-1.06V28.1c0-1-.23-1.35-1-1.35Zm2.87,11.51H25.29a3.6,3.6,0,0,1-.23-1.34v-3.4a.65.65,0,0,0-.57-.74h-.93v5.49H22.44V25.77H23.9c1.63,0,2.26.59,2.26,2.19V30.3c0,1.05-.17,1.49-1,1.79h0c.78.23.95.52,1,1.51v2.76a5.33,5.33,0,0,0,.26,1.9Z" fill="#e93d42"/><path d="M57,26.75v5h.39c.74,0,1.08-.34,1.08-1.06V28.1c0-1-.23-1.35-1-1.35Zm2.87,11.51H58.71a3.6,3.6,0,0,1-.23-1.34v-3.4a.67.67,0,0,0-.58-.74H57v5.49H55.87V25.77h1.46c1.64,0,2.27.59,2.27,2.19V30.3c0,1.05-.18,1.49-1,1.79h0c.78.23.95.52,1,1.51v2.76a5.56,5.56,0,0,0,.26,1.9Z" fill="#e93d42"/><polygon points="38.33 25.77 38.33 38.26 37.15 38.26 35.44 30.67 35.44 38.26 34.32 38.26 34.32 25.77 35.35 25.77 37.22 34.04 37.22 25.77 38.33 25.77 38.33 25.77" fill="#e93d42"/><path d="M60.83,27a1.26,1.26,0,1,1,1.26,1.26A1.25,1.25,0,0,1,60.83,27Zm-.15,0a1.41,1.41,0,1,0,1.41-1.41h0A1.41,1.41,0,0,0,60.68,27Z" fill="#e93d42"/><path d="M61.78,27h.42c.17,0,.29-.05.29-.24s-.12-.24-.29-.24h-.42Zm-.18-.64h.63a.39.39,0,0,1,.44.4.35.35,0,0,1-.31.4h0l.38.59h-.22l-.37-.59h-.36v.59H61.6Z" fill="#e93d42"/></g></g></g></svg>