<svg version="1.1" xmlns="http://www.w3.org/2000/svg" xmlns:xlink="http://www.w3.org/1999/xlink" viewBox="0 0 32 32">
  <path d="M7 29.8c-.2 0-.5 0-.7-.1-.7-.3-1.1-.9-1.1-1.7v-3H5c-2.7 0-5-2.2-5-4.9v-6.5C0 11 2.3 8.8 5 8.8h15.6c2.7 0 4.9 2.2 4.9 4.8v6.5c0 2.7-2.2 4.9-4.9 4.9h-7.7l-4.6 4.4c-.4.3-.9.4-1.3.4zM5 10.5c-1.8 0-3.2 1.4-3.2 3.1v6.5c0 1.7 1.5 3.1 3.2 3.1h2V28.1l5.1-4.9h8.4c1.7 0 3.1-1.4 3.1-3.1v-6.5c0-1.7-1.4-3.1-3.1-3.1H5z"/>
  <path d="M27.5 17.1l-.2-1.7c1.6-.2 2.9-1.6 2.9-3.1V7.1c0-1.7-1.6-3.2-3.4-3.2h-13c-1.6 0-2.8 1.2-2.9 2.9l-1.7-.2c.2-2.6 2.2-4.5 4.7-4.5h13C29.7 2.1 32 4.4 32 7v5.1c0 2.5-2 4.7-4.5 5zM6.2 18h13v1.8h-13zM6.2 14h13v1.8h-13z"/>
</svg>