<svg xmlns="http://www.w3.org/2000/svg" width="50" height="49.5" viewBox="0 0 50 49.5"><title>new-eva</title><g id="e2171c21-0a00-416c-b2a4-70558ca66e57" data-name="Layer 2"><g id="aeaaf9f9-97e6-4c5e-a631-14301a6da1e9" data-name="Layer 1"><rect width="50" height="49.5" fill="#009639"/><path d="M16.57,37.63a1.67,1.67,0,0,1-.66-.09,1.64,1.64,0,0,1-1-1.6V33.13h-.19A4.69,4.69,0,0,1,10,28.53v-6.1a4.68,4.68,0,0,1,4.69-4.51H29.33a4.59,4.59,0,0,1,4.6,4.51v6.1a4.61,4.61,0,0,1-4.6,4.6H22.11l-4.32,4.13A2.09,2.09,0,0,1,16.57,37.63ZM14.69,19.52a2.94,2.94,0,0,0-3,2.91v6.1a3,3,0,0,0,3,2.91h1.88V36l4.79-4.6h7.88a2.93,2.93,0,0,0,2.91-2.91v-6.1a2.92,2.92,0,0,0-2.91-2.91Z" fill="#fff"/><path d="M35.81,25.71l-.19-1.59a3.11,3.11,0,0,0,2.72-2.91V16.33a3.19,3.19,0,0,0-3.19-3H23A2.72,2.72,0,0,0,20.23,16l-1.6-.18A4.44,4.44,0,0,1,23,11.63H35.25A4.77,4.77,0,0,1,40,16.23V21A4.82,4.82,0,0,1,35.81,25.71Zm-20,.85H28v1.69H15.82Zm0-3.76H28v1.69H15.82Z" fill="#fff"/></g></g></svg>