<svg xmlns="http://www.w3.org/2000/svg" width="97.64mm" height="20.1mm" viewBox="0 0 276.78 56.98"><title>nfp-logo</title><g id="7615672d-2337-42f7-a925-63677f7604f5" data-name="Layer 2"><g id="fb6fc542-3ca7-481c-8680-f54e11f43d78" data-name="Layer 1"><path d="M36.15,43.06H26.77L12.16,23.13V43.06H2.53V7.6H11.9L26.52,27.54V7.6h9.63Z" transform="translate(-2.07 -7.6)" fill="#006341"/><path d="M72.72,43.06H45V7.6H72.72v8.56H54.64v4.69H71.46v8.56H54.64V34.5H72.72Z" transform="translate(-2.07 -7.6)" fill="#006341"/><path d="M115.13,25.33c0,10.69-7.3,17.73-18.39,17.73H81.08V7.6H96.74C107.83,7.6,115.13,14.64,115.13,25.33ZM90.71,16.44V34.22h5.77c5.83,0,8.64-3.77,8.64-8.89s-2.81-8.89-8.64-8.89Z" transform="translate(-2.07 -7.6)" fill="#006341"/><path d="M138.64,7.6c9.52,0,13.75,3.9,13.75,10.18a8.24,8.24,0,0,1-4.71,7.48,8.28,8.28,0,0,1,5.42,7.62c0,6.28-4.18,10.18-13.55,10.18H122.73V7.6Zm-6.29,7.85v5.9h6.06c2.66,0,4-1,4-3s-1.34-2.94-4-2.94Zm0,13.71v6.08l6.67,0c2.76,0,4.17-1,4.17-3.06s-1.41-3-4.17-3Z" transform="translate(-2.07 -7.6)" fill="#006341"/><path d="M195.22,43.06H185l-2.36-6.76H169.41l-2.33,6.76H157L170.45,7.6H181.8ZM172.4,27.71h7.27l-3.62-10.48Z" transform="translate(-2.07 -7.6)" fill="#006341"/><path d="M235.3,43.06h-9.37L211.31,23.13V43.06h-9.62V7.6h9.37l14.61,19.94V7.6h9.63Z" transform="translate(-2.07 -7.6)" fill="#006341"/><path d="M256.53,29.49h-2.74V43.06h-9.62V7.6h9.62V20.92h2.79L265.52,7.6h11.7L264.38,24.9l14,18.16H266.53Z" transform="translate(-2.07 -7.6)" fill="#006341"/><path d="M12.45,57.79H4.53V64.3H2.07V49.05H13v2.33H4.53v4.07h7.92Z" transform="translate(-2.07 -7.6)" fill="#006341"/><path d="M20.36,64.3H17.9V49.05h2.46Z" transform="translate(-2.07 -7.6)" fill="#006341"/><path d="M39.34,64.3H37.12l-8.51-11v11H26.14V49.05h2.22l8.52,11v-11h2.46Z" transform="translate(-2.07 -7.6)" fill="#006341"/><path d="M58.5,64.3H55.85l-1.5-3.89H47.44L45.93,64.3H43.37l6-15.25h3.07ZM48.34,58.08h5.1L50.89,51.5Z" transform="translate(-2.07 -7.6)" fill="#006341"/><path d="M75.73,64.3H73.51L65,53.26v11H62.53V49.05h2.22l8.52,11v-11h2.46Z" transform="translate(-2.07 -7.6)" fill="#006341"/><path d="M95,52l-2,1.37a5.06,5.06,0,0,0-4.26-2.2,5.55,5.55,0,0,0,0,11.09A5,5,0,0,0,92.92,60l2,1.47a7.42,7.42,0,0,1-6.25,3.08,7.91,7.91,0,1,1,0-15.82A7.22,7.22,0,0,1,95,52Z" transform="translate(-2.07 -7.6)" fill="#006341"/><path d="M102.3,64.3H99.83V49.05h2.47Z" transform="translate(-2.07 -7.6)" fill="#006341"/><path d="M121.45,64.3H118.8l-1.5-3.89h-6.91l-1.5,3.89h-2.56l6-15.25h3.07ZM111.3,58.08h5.09l-2.55-6.58Z" transform="translate(-2.07 -7.6)" fill="#006341"/><path d="M136.39,64.3H125.48V49.05h2.46V62h8.45Z" transform="translate(-2.07 -7.6)" fill="#006341"/><path d="M149.94,58.31v6h-2.46V49.05h5.92c3.51,0,5.4,1.77,5.4,4.63s-1.89,4.63-5.4,4.63Zm0-6.94V56h3.39c2,0,2.91-.74,2.91-2.31s-.92-2.31-2.91-2.31Z" transform="translate(-2.07 -7.6)" fill="#006341"/><path d="M174.44,64.3h-10.9V49.05H166V62h8.44Z" transform="translate(-2.07 -7.6)" fill="#006341"/><path d="M192.38,64.3h-2.65l-1.5-3.89h-6.91l-1.51,3.89h-2.55l6-15.25h3.07Zm-10.16-6.22h5.1l-2.55-6.58Z" transform="translate(-2.07 -7.6)" fill="#006341"/><path d="M209.61,64.3h-2.22l-8.51-11v11h-2.46V49.05h2.22l8.52,11v-11h2.46Z" transform="translate(-2.07 -7.6)" fill="#006341"/><path d="M228.59,64.3h-2.22l-8.51-11v11h-2.46V49.05h2.22l8.52,11v-11h2.46Z" transform="translate(-2.07 -7.6)" fill="#006341"/><path d="M245.49,64.3H234.37V49.05h11v2.31h-8.52v4.11h8.23v2.3h-8.23V62h8.66Z" transform="translate(-2.07 -7.6)" fill="#006341"/><path d="M257.13,49.05c3.51,0,5.4,1.57,5.4,4.41,0,2.59-2,4.31-5.09,4.42l5,6.42h-3.05l-4.86-6.42h-1.24V64.3h-2.47V49.05Zm-3.81,2.31v4.29h3.74c2,0,2.91-.72,2.91-2.19s-1-2.1-2.91-2.1Z" transform="translate(-2.07 -7.6)" fill="#006341"/><path d="M277.43,52.43a7.89,7.89,0,0,0-4.28-1.31c-2,0-3.44.88-3.44,2.28s1.19,1.75,3.17,2l1.06.14c2.47.34,4.91,1.37,4.91,4.2,0,3.1-2.81,4.8-6.11,4.8a9.85,9.85,0,0,1-6.13-2l1.34-2a7.67,7.67,0,0,0,4.78,1.68c2,0,3.56-.85,3.56-2.25,0-1.2-1.19-1.76-3.43-2.06l-1.19-.17c-2.26-.31-4.52-1.38-4.52-4.21,0-3.06,2.72-4.76,6-4.76a9.6,9.6,0,0,1,5.51,1.64Z" transform="translate(-2.07 -7.6)" fill="#006341"/></g></g></svg>