<svg xmlns="http://www.w3.org/2000/svg" width="450" height="460" viewBox="0 0 450 460">
  <g fill="none" fill-rule="evenodd">
    <g fill="#00B087" transform="translate(108 93)">
      <path fill-rule="nonzero" d="M122 98.33L94.71 102.5 92 84.38 119.29 80.21 122 98.33zM96.73 99.74L119.24 96.3 117.24 82.97 94.73 86.41 96.73 99.74zM125 118.59L97.8 122.75 95.03 104.63 122.22 100.47 125 118.59zM99.86 120L122.27 116.57 120.27 103.24 97.86 106.67 99.86 120zM128.13 138.87L100.93 143 98.19 125 125.38 120.85 128.13 138.87zM103 140.27L125.41 136.84 123.41 123.74 101 127.16 103 140.27zM92.41 102.86L31 112.24 28.23 94.13 89.63 84.74 92.41 102.86zM33.07 109.48L89.65 100.83 87.65 87.5 31 96.15 33.07 109.48zM95.51 123.1L34.11 132.49 31.34 114.37 92.74 104.99 95.51 123.1zM36.17 129.73L92.75 121.08 90.75 107.74 34.17 116.4 36.17 129.73zM98.61 143.38L37.21 152.77 34.42 134.49 95.81 125.1 98.61 143.38zM39.27 150L95.85 141.35 93.85 127.98 37.27 136.63 39.27 150zM101.72 163.73L40.32 173.12 37.55 155 98.95 145.61 101.72 163.73zM42.38 170.35L99 161.7 97 148.4 40.42 157.05 42.38 170.35zM131.24 159.21L104 163.37 101.23 145.25 128.43 141.1 131.24 159.21zM106.07 160.61L128.48 157.19 126.48 143.89 104 147.31 106.07 160.61zM160.76 154.7L133.07 158.93 130.3 140.82 157.53 136.65 160.76 154.7zM135.1 156.18L158 152.67 155.64 139.42 133.03 142.87 135.1 156.18zM157.65 134.35L130 138.59 127.26 120.59 154.48 116.43 157.65 134.35zM132 135.83L154.93 132.32 152.6 119.32 130 122.73 132 135.83zM154.54 114.08L126.86 118.31 124.09 100.19 151.31 96 154.54 114.08zM128.89 115.55L151.82 112 149.45 98.72 126.85 102.18 128.89 115.55zM151.41 93.83L123.76 98.06 121 79.94 148.65 75.72 151.41 93.83zM125.79 95.3L148.72 91.8 146.72 78.46 123.75 82 125.79 95.3z"/>
      <path fill-rule="nonzero" d="M188,203.21 L32.5,227 L0.94,20.58 L132.25,0.5 L160.13,21 L188,203.21 Z M35.19,223.21 L184.32,200.41 L157.16,22.85 L131.39,3.85 L4.6,23.28 L35.19,223.21 Z"/>
      <path fill-rule="nonzero" d="M134.48,8.54 L150.27,20.14 L136.58,22.24 L134.48,8.54 Z M130,1.35 L133.76,25.92 L158.33,22.16 L130.12,1.3 L130,1.35 Z"/>
      <path d="M108.59 45.53L25.59 58.22C25.1641827 58.2859676 24.7296291 58.1795741 24.3824502 57.9243508 24.0352714 57.6691274 23.8040767 57.2861059 23.74 56.86 23.6084724 55.9931641 24.2034576 55.1834474 25.07 55.05L108.07 42.36C108.478553 42.2874272 108.899185 42.3806139 109.238859 42.6189489 109.578533 42.857284 109.809258 43.2211262 109.88 43.63 109.875321 43.6497264 109.875321 43.6702736 109.88 43.69 109.95245 44.1064969 109.856052 44.5346994 109.612111 44.8799696 109.36817 45.2252398 108.996772 45.4591488 108.58 45.53L108.59 45.53zM111.41 64L28.41 76.69C27.5070144 76.8280712 26.6630712 76.2079856 26.525 75.305 26.3869288 74.4020144 27.0070144 73.5580712 27.91 73.42L110.91 60.73C111.812986 60.5919288 112.656929 61.2120144 112.795 62.115 112.933071 63.0179856 112.312986 63.8619288 111.41 64zM166.12 175.1L83.12 187.79C82.2344952 187.921617 81.4085621 187.314445 81.27 186.43 81.1381846 185.561004 81.7320253 184.74838 82.6 184.61L165.6 171.92C166.016497 171.84755 166.444699 171.943948 166.78997 172.187889 167.13524 172.43183 167.369149 172.803228 167.44 173.22 167.508764 173.646219 167.403467 174.082198 167.14775 174.430048 166.892032 174.777899 166.507324 175.008473 166.08 175.07L166.12 175.1zM168 187.32L112.7 195.78C111.871573 196.034051 110.994051 195.568427 110.74 194.74 110.485949 193.911573 110.951573 193.034051 111.78 192.78 111.926335 192.737276 112.077601 192.713746 112.23 192.71L167.54 184.26C168.075898 184.097444 168.657811 184.233135 169.066538 184.615958 169.475265 184.998782 169.64871 185.570579 169.521538 186.115958 169.394366 186.661338 168.985898 187.097444 168.45 187.26 168.304226 187.304175 168.152256 187.324438 168 187.32z"/>
    </g>
    <polyline fill="#FFF" stroke="#28AF88" stroke-width="2.9" points="245.34 120.82 245.34 302.76 400.34 302.76 400.34 120.82 244.58 120.82"/>
    <rect width="86.13" height="7.91" x="259.54" y="217.11" fill="#EDEDED" rx="2.37"/>
    <rect width="63.33" height="7.91" x="321.27" y="231.75" fill="#EDEDED" rx="2.37"/>
    <rect width="55.32" height="7.91" x="259.54" y="231.75" fill="#EDEDED" rx="2.37"/>
    <rect width="33.07" height="7.91" x="351.54" y="217.11" fill="#EDEDED" rx="2.37"/>
    <rect width="86.13" height="7.91" x="297.67" y="264" fill="#EDEDED" rx="2.37"/>
    <rect width="63.33" height="7.91" x="258.74" y="249.36" fill="#EDEDED" rx="2.37"/>
    <rect width="55.32" height="7.91" x="328.48" y="249.36" fill="#EDEDED" rx="2.37"/>
    <rect width="33.07" height="7.91" x="258.74" y="264" fill="#EDEDED" rx="2.37"/>
    <g fill="#AFAFAF" stroke="#28AF88" stroke-width=".36" transform="translate(290 161)">
      <rect width="25.41" height="2.78" x="32.74" y="23.81"/>
      <rect width="14.17" height="2.78" x="43.96" y="28.52"/>
      <path fill-rule="nonzero" d="M64.11,7.46 L64.11,6.66 C64.1210755,3.50481085 61.5751653,0.936528858 58.42,0.92 L5.8,0.92 C4.27765455,0.914686419 2.81555059,1.51434462 1.73533904,2.5870547 C0.655127492,3.65976478 0.0452950987,5.11765448 0.04,6.64 L0.04,8.07 L0.04,19.29 L0.04,37 C0.04,40.1701145 2.60988554,42.74 5.78,42.74 L58.37,42.74 C61.5401145,42.74 64.11,40.1701145 64.11,37 L64.11,18.68 L64.11,7.46 Z M61.41,37 C61.41,38.6568542 60.0668542,40 58.41,40 L5.8,40 C4.14314575,40 2.8,38.6568542 2.8,37 L2.8,19.29 L2.8,17.82 L61.33,17.82 L61.33,18.68 L61.41,37 Z M2.87,15 L2.87,10.73 L61.41,10.73 L61.41,15 L2.87,15 Z M61.41,7.42 L61.41,8 L2.87,8 L2.87,6.7 C2.89729203,5.0627046 4.23247717,3.74977255 5.87,3.75 L58.4,3.75 C60.0185747,3.74910055 61.3460478,5.03232454 61.4,6.65 L61.4,7.44 L61.41,7.42 Z"/>
    </g>
    <rect width="387.66" height="222" x="32.87" y="231.37" fill="#FFF" rx="4.68"/>
    <path fill="#FFF" stroke="#28AF88" stroke-width="3.1" d="M43.52,229.71 L417.4,229.71 C420.822865,229.726417 423.593583,232.497135 423.61,235.92 L423.61,451.71 C423.593583,455.132865 420.822865,457.903583 417.4,457.92 L35,457.92 C31.5771349,457.903583 28.8064169,455.132865 28.79,451.71 L28.79,202.71 C28.79,202.71 29.89,193.78 38.3,193.65 C46.71,193.52 67.15,193.65 67.15,193.65 C67.15,193.65 75.69,193 75.69,186.8 C75.69,180.6 75.56,170.24 75.56,170.24 C75.56,170.24 75.17,160.92 83.84,161.05 C92.51,161.18 117.22,161.05 117.22,161.05"/>
    <text fill="#009639" font-family="MarkPro-Book, Mark Pro" font-size="70" font-weight="300">
      <tspan x="111.76" y="370">Offline</tspan>
    </text>
    <path fill="#FFF" d="M253,106.46 L237.32,106.46"/>
    <path fill="#EDEDED" d="M114.85,164.75 L82.7,164.75 C82.7,164.75 79.09,165.67 79.09,168.06 L79.09,185.54 C79.09,185.54 78.83,188.89 78.35,189.69 C76.76,192.31 72.75,197.96 67.6,198.05 C63.79,198.13 38.22,198.05 38.22,198.05 C38.22,198.05 32.29,196.99 32.29,203.59 L32.29,225 L124.41,225 L114.85,164.75 Z" opacity=".65"/>
    <circle cx="142.13" cy="76.42" r="4.91" fill="#28AF88"/>
    <circle cx="24.21" cy="110.34" r="4.91" fill="#28AF88"/>
    <circle cx="60.06" cy="122.28" r="2.63" fill="#28AF88"/>
    <circle cx="19.31" cy="153.68" r="2.63" fill="#28AF88"/>
    <circle cx="2.63" cy="200.17" r="2.63" fill="#28AF88"/>
    <circle cx="292.87" cy="43.32" r="3.82" fill="#28AF88"/>
    <circle cx="93.27" cy="15.5" r="1.91" fill="#28AF88"/>
    <circle cx="41.19" cy="2.63" r="2.63" fill="#28AF88"/>
    <circle cx="65.33" cy="61.6" r="2.63" fill="#28AF88"/>
    <circle cx="220.82" cy="67.81" r="2.63" fill="#28AF88"/>
    <circle cx="186.67" cy="70.44" r="2.63" fill="#28AF88"/>
    <circle cx="358.12" cy="37.41" r="2.63" fill="#28AF88"/>
    <circle cx="262.54" cy="60.44" r="2.63" fill="#28AF88"/>
    <circle cx="400.39" cy="105.43" r="2.63" fill="#28AF88"/>
    <circle cx="351.44" cy="96.52" r="2.63" fill="#28AF88"/>
    <circle cx="409.42" cy="36.41" r="3.18" fill="#28AF88"/>
    <circle cx="174.84" cy="32.58" r="4.91" fill="#28AF88"/>
    <path stroke="#28AF88" stroke-width="3.62" d="M33.8 48.19L50.25 31.74M32.89 32.19L49.5 48.79"/>
    <path stroke="#28AF88" stroke-width="2.35" d="M57.36 98.84L68.03 88.17M56.77 88.46L67.54 99.23M93.21 66.81L103.88 56.14M92.62 56.44L103.39 67.2M418.57 197.88L429.23 187.21M417.98 187.51L428.75 198.27"/>
    <path stroke="#28AF88" stroke-width="1.12" d="M222.74 42.04L227.82 36.96M222.46 37.1L227.59 42.22"/>
    <path stroke="#28AF88" stroke-width="3.12" d="M382.96 69.4L403.02 69.4M392.16 59.1L392.16 79.34"/>
    <path stroke="#28AF88" stroke-width="3.62" d="M426.73 125.13L450 125.13M437.4 113.18L437.4 136.66"/>
    <path stroke="#28AF88" stroke-width="1.96" d="M289.7 68.13L302.27 68.13M295.47 61.67L295.47 74.36M123.48 26.35L136.05 26.35M129.25 19.89L129.25 32.58"/>
    <path stroke="#28AF88" stroke-width="1.06" d="M423.61 171.53L430.42 171.53M426.73 168.03L426.73 174.9"/>
    <path stroke="#28AF88" stroke-width="1.17" d="M336.98 64.3L344.49 64.3M340.42 60.44L340.42 68.01"/>
  </g>
</svg>
