<svg xmlns="http://www.w3.org/2000/svg" width="8.82mm" height="8.82mm" viewBox="0 0 25 25"><title>online</title><g id="aa02e444-0bb1-4d77-81f2-e5f7db0a532d" data-name="Layer 2"><g id="e06a9fb9-bb52-432d-b9f6-e50f176c47d2" data-name="Layer 1"><rect width="25" height="25" fill="#039648"/><path d="M20.93,10.11A11.48,11.48,0,0,0,12.5,6.5,11.63,11.63,0,0,0,4.32,9.86l-.25.25a.4.4,0,0,0,0,.57.4.4,0,0,0,.27.11.35.35,0,0,0,.28-.13l.23-.25a10.82,10.82,0,0,1,15.45.23.4.4,0,0,0,.57,0,.36.36,0,0,0,0-.55Z" fill="#fff"/><path d="M12.5,13a4.35,4.35,0,0,0-3.68,2,.39.39,0,0,0,.11.55.49.49,0,0,0,.23.06.38.38,0,0,0,.34-.19,3.6,3.6,0,0,1,6,0,.38.38,0,0,0,.55.11.38.38,0,0,0,.11-.55,4.49,4.49,0,0,0-3.7-2Z" fill="#fff"/><path d="M12.5,9.75a8,8,0,0,0-6.06,2.77.4.4,0,0,0,0,.57.44.44,0,0,0,.27.09.35.35,0,0,0,.3-.13A7.19,7.19,0,0,1,18,13a.4.4,0,1,0,.61-.53A8,8,0,0,0,12.5,9.75Z" fill="#fff"/><path d="M13.49,17.51a1,1,0,0,1-2,0,1,1,0,0,1,2,0" fill="#fff"/></g></g></svg>