<svg xmlns="http://www.w3.org/2000/svg" width="36.36" height="40" viewBox="0 0 36.36 40"><title>pdf-tax</title><g id="e9305403-ecbb-4034-841a-16284ac2ed1f" data-name="Layer 2"><g id="a5e7e9d8-e46c-451d-bfde-869fbf5df374" data-name="Layer 1"><path d="M33,21.5H31.72V11L21.88,0H4.77A4.79,4.79,0,0,0,0,4.77V35.2A4.78,4.78,0,0,0,4.76,40H27a4.78,4.78,0,0,0,4.77-4.78v-.66H33a3.38,3.38,0,0,0,3.36-3.36V24.86A3.38,3.38,0,0,0,33,21.5ZM22.24,2.33l7.39,8.27H22.24ZM30.43,35.2A3.49,3.49,0,0,1,27,38.68H4.77A3.48,3.48,0,0,1,1.29,35.2V4.77A3.48,3.48,0,0,1,4.77,1.29H21v10.6h9.48V21.5H16.29a3.38,3.38,0,0,0-3.36,3.36v6.32a3.38,3.38,0,0,0,3.36,3.36H30.43Zm4.64-4A2.06,2.06,0,0,1,33,33.25H16.28a2.07,2.07,0,0,1-2.06-2.07V24.86a2.07,2.07,0,0,1,2.06-2.07H33a2.07,2.07,0,0,1,2.07,2.07Z" fill="#009639"/><path d="M22.81,28.53a1.94,1.94,0,0,1-1.89,2,1.45,1.45,0,0,1-1.15-.5v2h-1v-5.5h1V27a1.43,1.43,0,0,1,1.17-.54A1.94,1.94,0,0,1,22.81,28.53Zm-3.09,0a1,1,0,1,0,1-1.07A1,1,0,0,0,19.72,28.53Z" fill="#009639"/><path d="M26.47,27v-2.3h1v5.79h-1v-.42a1.44,1.44,0,0,1-1.17.52,2.06,2.06,0,0,1,0-4.1A1.45,1.45,0,0,1,26.47,27Zm-2,1.54a1,1,0,1,0,1-1.07A1,1,0,0,0,24.51,28.53Z" fill="#009639"/><path d="M31.23,27.52H30v3H29v-3h-.73v-.93H29v-.48a1.34,1.34,0,0,1,1.39-1.52,2.11,2.11,0,0,1,1.2.35l-.42.82a1.34,1.34,0,0,0-.66-.19c-.3,0-.46.18-.46.55v.47h1.21Z" fill="#009639"/></g></g></svg>