<svg xmlns="http://www.w3.org/2000/svg" width="64" height="64" viewBox="0 0 64 64"><title>people_alt</title><g id="57aa2d6e-4994-4189-b90a-fa2723ad5bee" data-name="people_alt"><rect x="18.71" y="46.8" width="0.55" height="0.55" fill="#00b087"/><rect x="44.74" y="46.8" width="0.55" height="0.55" fill="#00b087"/><path d="M58.49,23.24a8.29,8.29,0,1,0-8.36,8.25h.15A8.28,8.28,0,0,0,58.49,23.24Z" fill="none"/><path d="M22.07,23.24a8.28,8.28,0,1,0-8.36,8.25h.15A8.27,8.27,0,0,0,22.07,23.24Z" fill="none"/><path d="M50.13,32H44.59a7.1,7.1,0,0,0-4.89,2,7.65,7.65,0,0,1,5.59,7.35V46.8H63V39.13A7.12,7.12,0,0,0,55.83,32h-5.7Z" fill="none"/><path d="M40.28,25.45a8.28,8.28,0,1,0-8.36,8.24h.15A8.27,8.27,0,0,0,40.28,25.45Z" fill="none"/><path d="M24.3,34a7.1,7.1,0,0,0-4.89-2H8.17a7.12,7.12,0,0,0-7.12,7.09V46.8H18.71V41.34A7.65,7.65,0,0,1,24.3,34Z" fill="none"/><path d="M13.86,32h0Z" fill="#00b087"/><path d="M13.79,31.49h0Z" fill="#00b087"/><path d="M22.62,23.24a8.83,8.83,0,1,0-11.89,8.25h3a8.29,8.29,0,1,1,.15,0h3A8.82,8.82,0,0,0,22.62,23.24Z" fill="#00b087"/><path d="M.5,39.13v8.22H18.71V46.8H1.05V39.13A7.12,7.12,0,0,1,8.17,32h5.55a9,9,0,0,1-3-.55H8.17A7.66,7.66,0,0,0,.5,39.13Z" fill="#00b087"/><path d="M19.41,31.49H16.85a9,9,0,0,1-3,.55h5.55a7.1,7.1,0,0,1,4.89,2q.32-.09.63-.15A7.64,7.64,0,0,0,19.41,31.49Z" fill="#00b087"/><path d="M13.86,32a9,9,0,0,0,3-.55H10.73a9,9,0,0,0,3,.55Z" fill="#00b087"/><path d="M32.07,34.25h0Z" fill="#00b087"/><path d="M32,33.7h0Z" fill="#00b087"/><path d="M28.94,33.69h3a8.29,8.29,0,1,1,.15,0h3a8.84,8.84,0,1,0-6.12,0Z" fill="#00b087"/><path d="M39.7,34c-.15.14-.3.3-.44.45a7.11,7.11,0,0,1,5.48,6.9V46.8h.55V41.34A7.65,7.65,0,0,0,39.7,34Z" fill="#00b087"/><path d="M19.26,41.34a7.11,7.11,0,0,1,5.48-6.9c-.14-.15-.29-.31-.44-.45a7.65,7.65,0,0,0-5.59,7.35V46.8h.55Z" fill="#00b087"/><path d="M24.93,33.84c.15.15.3.32.44.49a6.77,6.77,0,0,1,1-.08h5.54a8.67,8.67,0,0,1-3-.56H26.38A7.75,7.75,0,0,0,24.93,33.84Z" fill="#00b087"/><path d="M37.62,34.25a6.77,6.77,0,0,1,1,.08c.14-.17.29-.34.44-.49a7.67,7.67,0,0,0-1.45-.15H35.06a8.77,8.77,0,0,1-3,.56Z" fill="#00b087"/><polygon points="44.74 49.01 19.26 49.01 19.26 47.35 18.71 47.35 18.71 49.56 45.29 49.56 45.29 47.35 44.74 47.35 44.74 49.01" fill="#00b087"/><path d="M24.74,34.44l.63-.11c-.14-.17-.29-.34-.44-.49q-.32.06-.63.15C24.45,34.13,24.6,34.29,24.74,34.44Z" fill="#00b087"/><path d="M32.07,34.25a8.77,8.77,0,0,0,3-.56H28.94a8.67,8.67,0,0,0,3,.56Z" fill="#00b087"/><path d="M50.21,32h0Z" fill="#00b087"/><path d="M50.21,31.49h0Z" fill="#00b087"/><path d="M59,23.24a8.84,8.84,0,1,0-11.89,8.25h3a8.29,8.29,0,1,1,.15,0h3A8.82,8.82,0,0,0,59,23.24Z" fill="#00b087"/><path d="M55.83,31.49H53.27a9,9,0,0,1-3,.55h5.55A7.12,7.12,0,0,1,63,39.13V46.8H45.29v.55H63.5V39.13A7.66,7.66,0,0,0,55.83,31.49Z" fill="#00b087"/><path d="M39.07,33.84q.32.06.63.15a7.1,7.1,0,0,1,4.89-2h5.54a8.9,8.9,0,0,1-3-.55H44.59A7.64,7.64,0,0,0,39.07,33.84Z" fill="#00b087"/><path d="M39.26,34.44c.14-.15.29-.31.44-.45q-.31-.09-.63-.15c-.15.15-.3.32-.44.49C38.84,34.36,39.05,34.39,39.26,34.44Z" fill="#00b087"/><path d="M50.28,32a9,9,0,0,0,3-.55H47.15a8.9,8.9,0,0,0,3,.55Z" fill="#00b087"/></g></svg>