<svg xmlns="http://www.w3.org/2000/svg" width="88.87" height="62" viewBox="0 0 88.87 62"><title>people-alt</title><g id="Layer_2" data-name="Layer 2"><g id="Layer_3" data-name="Layer 3"><path d="M19.63,0a9.3,9.3,0,1,0,9.3,9.3A9.32,9.32,0,0,0,19.63,0Zm49.6,0a9.3,9.3,0,1,0,9.3,9.3A9.32,9.32,0,0,0,69.23,0ZM19.63,2.07A7.23,7.23,0,1,1,12.4,9.3,7.22,7.22,0,0,1,19.63,2.07Zm24.8,0A11.37,11.37,0,1,0,55.8,13.43,11.38,11.38,0,0,0,44.43,2.07Zm24.8,0A7.23,7.23,0,1,1,62,9.3,7.22,7.22,0,0,1,69.23,2.07ZM44.43,4.13a9.3,9.3,0,1,1-9.3,9.3A9.29,9.29,0,0,1,44.43,4.13ZM20.67,23.77A29.27,29.27,0,0,0,6.26,27.19C2.51,29.35,0,32.51,0,36.17V50.63a1.08,1.08,0,0,0,1,1H21.7V61a1.07,1.07,0,0,0,1,1h43.4a1.08,1.08,0,0,0,1-1v-9.3H87.83a1.09,1.09,0,0,0,1-1V36.17c0-3.66-2.52-6.82-6.27-9a29.23,29.23,0,0,0-14.4-3.42c-8.52,0-15.82,2.87-19,7.52a39,39,0,0,0-9.49,0c-3.2-4.65-10.51-7.52-19-7.52Zm0,2.06c7.42,0,13.73,2.5,16.69,5.82a28.2,28.2,0,0,0-8.78,3C24.45,37,21.7,40.4,21.7,44.43V49.6H2.07V36.17C2.07,33.46,4,30.9,7.3,29a27.26,27.26,0,0,1,13.37-3.14Zm47.53,0A27.26,27.26,0,0,1,81.57,29c3.35,1.93,5.23,4.49,5.23,7.2V49.6H67.17V44.43c0-4-2.76-7.46-6.88-9.78a28.2,28.2,0,0,0-8.78-3c3-3.32,9.26-5.82,16.69-5.82ZM44.43,33.07a31,31,0,0,1,14.86,3.39c3.72,2.09,5.81,4.88,5.81,8v15.5H23.77V44.43c0-3.09,2.09-5.88,5.81-8A30.93,30.93,0,0,1,44.43,33.07Z" fill="#00b087"/></g></g></svg>