<svg xmlns="http://www.w3.org/2000/svg" width="55.48" height="56.7" viewBox="0 0 55.48 56.7"><title>phone</title><g id="d4e1fe9c-1b2c-4374-8166-dc05f4a7a8f0" data-name="Layer 2"><g id="8c4a5370-a5bd-4bad-a946-c5ca603372fc" data-name="093d84ae-6a81-4aaf-8e86-9857527a7380"><path d="M48.39,8.3a28.35,28.35,0,1,0,0,40.1,28.9,28.9,0,0,0,4-4.95h0a9.29,9.29,0,0,0,1.44-4.87,7.57,7.57,0,0,0-2.24-5.46,9,9,0,0,0-2.5-1.82,7,7,0,0,0-2.22-.65,3.93,3.93,0,0,0-.11-.81,15.32,15.32,0,0,0-4.16-7.25,10.67,10.67,0,0,0-7.32-3.12H21.8a10.63,10.63,0,0,0-7.31,3.12,15.29,15.29,0,0,0-4.17,7.26,3.92,3.92,0,0,0,.83,3.52,3.28,3.28,0,0,0,2.45,1.14h4.88a4,4,0,0,0,3-1.43,5,5,0,0,0,1.2-3.29v-.54H34.33v.54a4.94,4.94,0,0,0,1.2,3.29,4,4,0,0,0,3,1.43h4.88a3.25,3.25,0,0,0,2.45-1.14,3.88,3.88,0,0,0,.57-.91,5,5,0,0,1,1.8.49,7.46,7.46,0,0,1,2,1.46A5.81,5.81,0,0,1,52,38.58a7.32,7.32,0,0,1-1.17,3.89A26.52,26.52,0,1,1,47.1,9.6a26.27,26.27,0,0,1,6.59,10.92A.92.92,0,0,0,55.44,20a28.25,28.25,0,0,0-7-11.68ZM44.52,32.16a1.45,1.45,0,0,1-1.08.52H38.56a2.19,2.19,0,0,1-1.66-.8,3.16,3.16,0,0,1-.75-2.08V28.34a.92.92,0,0,0-.26-.65.93.93,0,0,0-.65-.27H21.8a.93.93,0,0,0-.65.27.92.92,0,0,0-.26.65V29.8a3.16,3.16,0,0,1-.75,2.08,2.19,2.19,0,0,1-1.66.8H13.6a1.45,1.45,0,0,1-1.08-.52A2.06,2.06,0,0,1,12,30.81a2.37,2.37,0,0,1,.06-.52,13.56,13.56,0,0,1,3.65-6.38A8.86,8.86,0,0,1,21.8,21.3H35.24a8.82,8.82,0,0,1,6,2.61A13.57,13.57,0,0,1,45,30.29a2.37,2.37,0,0,1,.06.52,2.06,2.06,0,0,1-.49,1.35Z" fill="#00b087"/></g></g></svg>