<svg xmlns="http://www.w3.org/2000/svg" width="19" height="19" viewBox="0 0 19 19"><title>point-style</title><g id="73b9c6c4-004e-4bbb-b13f-7085cee16bf2" data-name="Layer 2"><g id="c66d69b0-9d19-4f06-8897-1615d7300120" data-name="Layer 1"><circle cx="9.5" cy="9.5" r="2.57" fill="#fff"/><path d="M9.5,8.43A1.07,1.07,0,1,1,8.43,9.5,1.07,1.07,0,0,1,9.5,8.43m0-3A4.07,4.07,0,1,0,13.57,9.5,4.07,4.07,0,0,0,9.5,5.43Z" fill="#00b087"/><g opacity="0.39"><path d="M9.5,1A8.5,8.5,0,1,1,1,9.5,8.51,8.51,0,0,1,9.5,1m0-1A9.5,9.5,0,1,0,19,9.5,9.5,9.5,0,0,0,9.5,0Z" fill="#00b087"/></g></g></g></svg>