<svg xmlns="http://www.w3.org/2000/svg" width="64" height="64" viewBox="0 0 64 64"><title>portfolio</title><g id="9535392c-77e2-46a5-9d62-4a97d387d7ba" data-name="portfolio"><rect x="5.75" y="22.55" width="52.5" height="34.65" fill="none"/><polygon points="63.5 5.75 0.5 5.75 0.5 22.55 4.7 22.55 4.7 21.5 1.55 21.5 1.55 6.8 62.45 6.8 62.45 21.5 59.3 21.5 59.3 22.55 63.5 22.55 63.5 5.75" fill="#00b087"/><rect x="5.75" y="21.5" width="52.5" height="1.05" fill="#00b087"/><polygon points="58.25 57.2 5.75 57.2 5.75 22.55 4.7 22.55 4.7 58.25 59.3 58.25 59.3 22.55 58.25 22.55 58.25 57.2" fill="#00b087"/><rect x="58.25" y="21.5" width="1.05" height="1.05" fill="#00b087"/><rect x="4.7" y="21.5" width="1.05" height="1.05" fill="#00b087"/><path d="M46.7,44.6H18.35V33.05H46.7ZM19.4,43.55H45.65V34.1H19.4Z" fill="#00b087"/></g></svg>