<svg xmlns="http://www.w3.org/2000/svg" width="62.59" height="62.59" viewBox="0 0 62.59 62.59"><title>products</title><g id="Layer_2" data-name="Layer 2"><g id="Layer_3" data-name="Layer 3"><path d="M27.91,0H0V27.91H27.91ZM24.53,24.53H3.38V3.38H24.53Z" fill="#00b087"/><path d="M34.68,27.91H62.59V0H34.68ZM38.06,3.38H59.21V24.53H38.06Z" fill="#00b087"/><path d="M27.91,34.68H0V62.59H27.91ZM24.53,59.21H3.38V38.06H24.53Z" fill="#00b087"/><path d="M48.64,34.68a14,14,0,1,0,14,14A14,14,0,0,0,48.64,34.68Zm0,24.53A10.58,10.58,0,1,1,59.21,48.64,10.58,10.58,0,0,1,48.64,59.21Z" fill="#00b087"/></g></g></svg>