<svg xmlns="http://www.w3.org/2000/svg" width="64" height="64" viewBox="0 0 64 64"><title>Product</title><g id="d8e319f1-900e-4ccd-bce2-44a82c4ffe80" data-name="product"><g id="bb4f1502-3d1e-4d91-83cc-2f971a513c3e" data-name="Layer 3"><path d="M29.11,29.09H.5V.5H29.11Zm-27.64-1H28.14V1.47H1.47Z" fill="#00b087"/><path d="M63.45,29.09H34.84V.5H63.45Zm-27.64-1H62.48V1.47H35.81Z" fill="#00b087"/><path d="M29.11,63.41H.5V34.82H29.11Zm-27.64-1H28.14V35.79H1.47Z" fill="#00b087"/><path d="M49.15,63.5A14.34,14.34,0,1,1,63.5,49.16,14.36,14.36,0,0,1,49.15,63.5Zm0-27.71A13.37,13.37,0,1,0,62.53,49.16,13.39,13.39,0,0,0,49.15,35.79Z" fill="#00b087"/></g></g></svg>