<svg xmlns="http://www.w3.org/2000/svg" width="54.17" height="49.64" viewBox="0 0 54.17 49.64"><title>retirement</title><g id="b26ff1ca-e849-4ebd-8785-1c8199e3b783" data-name="Layer 2"><g id="e26abf19-c962-4cb0-9138-e6b36201fa11" data-name="Layer 1"><path d="M16.56,4.49a4,4,0,1,0-3.95,4,4,4,0,0,0,3.95-4m21.94,0a3.95,3.95,0,1,0-4,4,4,4,0,0,0,4-4M48,36.37c-1-.55-1.4-.88-1.4-1.65v-.21A1.71,1.71,0,0,1,48,32.7ZM49.2,40.2l.08,0c.85.49,1.38.79,1.38,1.67v.32a1.71,1.71,0,0,1-1.46,1.82ZM53.67,35v-.47c0-2.58-1.86-4-4.47-4.14V27.68a1.93,1.93,0,0,0-1.67-2,2,2,0,0,0,.25-1.74L44.37,13.37a3,3,0,0,0-.27-.68,5,5,0,0,0-4.48-2.95H29.49S25.81,9.6,24.55,14L23,19.47,21.46,14c-1.26-4.44-4.94-4.3-4.94-4.3H8.68S5,9.6,3.74,14L.58,24.26a1.6,1.6,0,0,0,1.16,2.09,1.61,1.61,0,0,0,2.05-1l3.08-9.93h1.5l-4.49,19h4V47.15a2,2,0,1,0,3.94,0V34.43h1.66V47.15a2,2,0,1,0,3.94,0V34.42h3.9l-4.44-19h1.49l3,9.83a1.47,1.47,0,0,0,.23.49,1.59,1.59,0,0,0,1.4.69,1.55,1.55,0,0,0,1.39-.68,1.4,1.4,0,0,0,.26-.55l3-9.78h1.37V46.76a2.33,2.33,0,1,0,4.65,0V29.33h1.71V46.76a2.33,2.33,0,1,0,4.65,0V15.38h1.53L44.66,25a2.27,2.27,0,0,0,.37.73,2,2,0,0,0-1.4,1.94v.39a.59.59,0,1,0,1.17,0v-.39a.83.83,0,0,1,.88-.89h1.47a.82.82,0,0,1,.88.89v2.75c-2.66.22-4.41,1.72-4.41,4.21A3.61,3.61,0,0,0,45.45,38L48,39.53V44a1.81,1.81,0,0,1-1.44-1.8v-.88a.66.66,0,0,0-.71-.59H44.33a.66.66,0,0,0-.71.59v.88c0,2.54,1.85,4,4.41,4.14V48.5a.59.59,0,1,0,1.17,0V46.37c2.67-.19,4.47-1.62,4.47-4.14,0-2-.31-2.82-2.16-3.87L49.2,37.05V32.69a1.76,1.76,0,0,1,1.51,1.82V35a.67.67,0,0,0,.71.6H53a.67.67,0,0,0,.7-.6" fill="none" stroke="#78be20" stroke-miterlimit="10"/></g></g></svg>