<svg xmlns="http://www.w3.org/2000/svg" width="80" height="100" viewBox="0 0 80 100"><g fill-rule="evenodd"><path fill-rule="nonzero" d="M47.266,14.062 C29.766,14.062 15.547,28.281 15.547,45.781 C15.547,63.281 29.766,77.5 47.266,77.5 C64.766,77.5 79.063,63.281 79.063,45.781 C79.063,28.281 64.766,14.062 47.266,14.062 Z M48.4379,75.156 L48.4379,71.0935 C48.4379,70.4685 47.89102,69.9216 47.266,69.9216 C46.64098,69.9216 46.0941,70.46848 46.0941,71.0935 L46.0941,75.156 C30.7821,74.531 18.5161,62.265 17.8911,46.953 L21.8755,46.953 C22.5005,46.953 23.0474,46.40612 23.0474,45.7811 C23.0474,45.15608 22.50052,44.6092 21.8755,44.6092 L17.8911,44.6092 C18.5161,29.3752 30.7821,17.0312 46.0941,16.4062 L46.0941,20.3906 C46.0941,21.0156 46.64098,21.5625 47.266,21.5625 C47.89102,21.5625 48.4379,21.01562 48.4379,20.3906 L48.4379,16.4062 C63.7499,17.0312 76.0159,29.2972 76.6409,44.6092 L72.6565,44.6092 C72.0315,44.6092 71.4846,45.15608 71.4846,45.7811 C71.4846,46.40612 72.03148,46.953 72.6565,46.953 L76.6409,46.953 C76.0159,62.265 63.7499,74.609 48.4379,75.156 Z" fill="#00b087"/><path fill-rule="nonzero" d="M62.422,28.906 L49.141,42.344 C48.59412,42.0315 47.9691,41.87525 47.3441,41.87525 C45.1566,41.87525 43.3597,43.67215 43.3597,45.85965 C43.3597,46.48465 43.51595,47.10965 43.82845,47.65655 L41.56285,49.84405 C41.0941,50.3128 41.0941,51.01595 41.56285,51.48465 C41.79723,51.71903 42.10973,51.87527 42.42223,51.87527 C42.73473,51.87527 43.04723,51.797145 43.20348,51.56277 L45.46908,49.37527 C46.01596,49.68777 46.64098,49.84402 47.34408,49.84402 C49.53158,49.84402 51.32848,48.04712 51.32848,45.85962 C51.32848,45.1565 51.17223,44.60962 50.85973,44.06272 L64.21873,30.62472 C64.68748,30.15597 64.68748,29.45282 64.21873,28.98412 C63.67185,28.43724 62.89063,28.43724 62.42183,28.905995 L62.422,28.906 Z M47.266,47.422 C46.40662,47.422 45.6254,46.71888 45.6254,45.7814 C45.6254,44.84392 46.32852,44.1408 47.266,44.1408 C48.20348,44.1408 48.9066,44.84392 48.9066,45.7814 C48.9066,46.71888 48.20348,47.422 47.266,47.422 Z" fill="#00b087"/><path d="M41.406,91.641 L36.1716,97.266 C35.70285,97.73475 35.78098,98.516 36.249725,98.9066 C36.484105,99.14098 36.796605,99.2191 37.030975,99.2191 C37.343475,99.2191 37.655975,99.06285 37.890355,98.82848 L45.624755,90.62538 C46.015375,90.23476 46.015375,89.53158 45.70288,89.06288 L38.90598,80.54728 C38.51536,80.07853 37.73408,79.92228 37.26538,80.39103 C36.79663,80.78165 36.64038,81.56293 37.10913,82.03163 L42.96853,89.37543 C24.84353,87.81293 9.60953,75.15643 4.92153,57.50043 C-1.40657,34.53143 12.34343,10.78143 35.39053,4.60943 C44.45303,2.18753 53.82853,2.73443 62.49953,6.17193 C63.12453,6.40631 63.74953,6.093805 63.98393,5.54693 C64.21831,4.92193 63.905805,4.29693 63.35893,4.06253 C54.21833,0.31253 44.29693,-0.23437 34.76493,2.34373 C10.46793,8.82813 -3.98507,33.90573 2.49893,58.20273 C7.42083,76.40573 22.88993,89.60873 41.40493,91.64073 L41.406,91.641 Z" fill="#00b087"/></g></svg>
