<svg xmlns="http://www.w3.org/2000/svg" width="64" height="64" viewBox="0 0 64 64"><title>search</title><g id="6cafa684-0e0f-43b2-9ce9-3ca0ec7263f9" data-name="search"><path d="M60.43,63.5a3.07,3.07,0,0,1-2.18-.9L41.65,46A25.46,25.46,0,1,1,26,.5h0A25.45,25.45,0,0,1,46,41.68l16.6,16.6a3.06,3.06,0,0,1-2.17,5.22ZM41.72,44.7,58.94,61.92a2.17,2.17,0,0,0,3,0,2.11,2.11,0,0,0,.61-1.48A2.08,2.08,0,0,0,61.92,59L44.7,41.75l.28-.34A24.49,24.49,0,0,0,26,1.47h0A24.5,24.5,0,1,0,41.38,45Z" fill="#00b087"/><path d="M26,46.27A20.3,20.3,0,1,1,46.27,26,20.33,20.33,0,0,1,26,46.27ZM26,6.64A19.33,19.33,0,1,0,45.3,26,19.35,19.35,0,0,0,26,6.64Z" fill="#00b087"/></g></svg>