<svg xmlns="http://www.w3.org/2000/svg" width="64" height="64" viewBox="0 0 64 64"><title>spinner</title><g id="d273fa13-201d-4809-a5b9-0250161932b7" data-name="spinner"><path d="M32.91,1.5a29.7,29.7,0,0,1,5.93.76l-2.37,9a22.26,22.26,0,0,0-3.56-.48V1.5M23,2.84l2.48,8.9a22.39,22.39,0,0,0-3.33,1.37l-4.68-8A30.05,30.05,0,0,1,23,2.84M48,6a30.58,30.58,0,0,1,4.76,3.63L46.26,16.2A21.64,21.64,0,0,0,43.41,14L48,6M9.63,11.23l6.53,6.53A24.92,24.92,0,0,0,14,20.59L6,16a33.31,33.31,0,0,1,3.63-4.74m49.24,6.23A29.74,29.74,0,0,1,61.17,23l-8.91,2.48a24.24,24.24,0,0,0-1.36-3.33l8-4.68M2.26,25.15l9,2.31A23.29,23.29,0,0,0,10.74,31l-9.24.06a30.45,30.45,0,0,1,.76-5.93M62.5,32.91a31.07,31.07,0,0,1-.76,6L52.8,36.55a20.92,20.92,0,0,0,.47-3.64H62.5M11.74,38.52a22,22,0,0,0,1.36,3.33l-8,4.62a29,29,0,0,1-2.3-5.58l8.9-2.37m38.17,5,8,4.62a31.34,31.34,0,0,1-3.68,4.76l-6.52-6.53a21.85,21.85,0,0,0,2.18-2.85M17.67,47.79A21,21,0,0,0,20.52,50l-4.62,8a34.75,34.75,0,0,1-4.75-3.63l6.52-6.52M41.78,50.9l4.62,8a31.45,31.45,0,0,1-5.53,2.34l-2.42-9a22,22,0,0,0,3.33-1.36M27.46,52.78a23,23,0,0,0,3.56.48V62.5a30.25,30.25,0,0,1-5.93-.76l2.37-9M32,.5h-.07V11.7H32a21.48,21.48,0,0,1,5.18.7L40.05,1.55a31,31,0,0,0-8-1ZM23.67,1.62a30.89,30.89,0,0,0-7.56,3.15l5.67,9.66h0a21.32,21.32,0,0,1,4.9-2l-3-10.78Zm24,3-5.6,9.73a20.92,20.92,0,0,1,4.2,3.22l7.91-8a32.08,32.08,0,0,0-6.51-5ZM9.6,9.81a34.82,34.82,0,0,0-5,6.51l9.73,5.6h0a24.36,24.36,0,0,1,3.15-4.2L9.6,9.81Zm49.63,6.3-9.66,5.67a21.32,21.32,0,0,1,2,4.9l10.78-3a29.8,29.8,0,0,0-3.15-7.56ZM1.55,24a31.12,31.12,0,0,0-1,8.12L11.7,32a21.58,21.58,0,0,1,.7-5.25L1.55,24Zm62,8H52.3V32a19,19,0,0,1-.7,5.25l10.85,2.87h0a31.51,31.51,0,0,0,1-8.12v-.07ZM12.4,37.32,1.62,40.19a30.27,30.27,0,0,0,3.15,7.63l9.66-5.6a21.32,21.32,0,0,1-2-4.9Zm37.17,4.83a20.92,20.92,0,0,1-3.22,4.2l7.91,7.91a32.41,32.41,0,0,0,5-6.51l-9.73-5.6ZM17.65,46.42,9.74,54.33a34.82,34.82,0,0,0,6.51,5l5.6-9.66a20.92,20.92,0,0,1-4.2-3.22Zm24.5,3.15a21.32,21.32,0,0,1-4.9,2l2.94,10.85h0a32.78,32.78,0,0,0,7.56-3.22l-5.6-9.66Zm-15.4,2L23.88,62.45a31.12,31.12,0,0,0,8.12,1V52.3a21.58,21.58,0,0,1-5.25-.7Zm27.51,2.66Z" fill="#00b087"/></g></svg>