<svg class="empty-icon" xmlns="http://www.w3.org/2000/svg" width="238.31" height="270.04" viewBox="0 0 238.31 270.04"><title>no-statements</title><rect y="40.04" width="196" height="230" rx="5" ry="5" fill="#ededed"></rect><rect x="35.31" y="1" width="196" height="230" rx="2.05" ry="2.05" fill="#fff" stroke="#afafaf" stroke-miterlimit="10" stroke-width="2"></rect><path d="M168.31,23H32A15.71,15.71,0,0,0,16.31,38.67V237.33A15.71,15.71,0,0,0,32,253H196.64a15.71,15.71,0,0,0,15.67-15.67V65.67h-44Z" fill="#fff" stroke="#afafaf" stroke-miterlimit="10" stroke-width="2"></path><line x1="168.31" y1="23" x2="212.31" y2="65.67" fill="#fff" stroke="#afafaf" stroke-miterlimit="10" stroke-width="2"></line><rect x="34.26" y="144.73" width="108.88" height="10" rx="3" ry="3" fill="#ededed"></rect><rect x="112.29" y="163.23" width="80.06" height="10" rx="3" ry="3" fill="#ededed"></rect><rect x="34.26" y="163.23" width="69.93" height="10" rx="3" ry="3" fill="#ededed"></rect><rect x="150.56" y="144.73" width="41.8" height="10" rx="3" ry="3" fill="#ededed"></rect><rect x="82.47" y="204" width="108.88" height="10" rx="3" ry="3" transform="translate(273.81 418) rotate(180)" fill="#ededed"></rect><rect x="33.24" y="185.5" width="80.06" height="10" rx="3" ry="3" transform="translate(146.55 381) rotate(180)" fill="#ededed"></rect><rect x="121.42" y="185.5" width="69.93" height="10" rx="3" ry="3" transform="translate(312.76 381) rotate(180)" fill="#ededed"></rect><rect x="33.24" y="204" width="41.8" height="10" rx="3" ry="3" transform="translate(108.29 418) rotate(180)" fill="#ededed"></rect><rect x="33.75" y="51.86" width="35.82" height="35.82" rx="3" ry="3" fill="#ededed"></rect><rect x="81.96" y="120.96" width="108.88" height="10" rx="3" ry="3" transform="translate(272.8 251.91) rotate(180)" fill="#ededed"></rect><rect x="32.74" y="102.46" width="80.06" height="10" rx="3" ry="3" transform="translate(145.54 214.91) rotate(180)" fill="#ededed"></rect><rect x="120.91" y="102.46" width="69.93" height="10" rx="3" ry="3" transform="translate(311.75 214.91) rotate(180)" fill="#ededed"></rect><rect x="32.74" y="120.96" width="41.8" height="10" rx="3" ry="3" transform="translate(107.28 251.91) rotate(180)" fill="#ededed"></rect><circle cx="212.31" cy="113.88" r="25" fill="#fff" stroke="#afafaf" stroke-miterlimit="10" stroke-width="2"></circle><rect x="197.81" y="110.32" width="29" height="4.67" rx="2.33" ry="2.33" transform="translate(141.84 -117.13) rotate(45)" fill="#afafaf"></rect><rect x="197.81" y="110.32" width="29" height="4.67" rx="2.33" ry="2.33" transform="translate(442.09 42.18) rotate(135)" fill="#afafaf"></rect></svg>