<svg xmlns="http://www.w3.org/2000/svg" width="16.65" height="20" viewBox="0 0 16.65 20"><title>statments</title><g id="Layer_2" data-name="Layer 2"><g id="Layer_1-2" data-name="Layer 1"><path d="M13.85,0H0V20H16.65V2.8ZM14,.77l1.88,1.91H14ZM.49,19.54V.46H13.54V3.14h2.64V19.57H.49Z" fill="#00b087"/><path d="M11.38,6.4H1.94v8.71H14.86V6.4Zm-2.52.46h2.53v1.6H8.86Zm2.52,3.66H8.86V8.92h2.52Zm0,2.06H8.86V11h2.52Zm-9-5.72h6v1.6h-6Zm0,2.06h6v1.6h-6Zm0,2.06h6v1.6h-6Zm6,3.67h-6v-1.6h6Zm3,0H8.86v-1.6h2.52Zm3,0H11.81v-1.6h2.53Zm0-2.07H11.81V11h2.53Zm0-2.06H11.81V8.92h2.53Zm0-3.66v1.6H11.81V6.86Z" fill="#00b087"/><path d="M10.4,16.46h4.18v.46H10.4Z" fill="#00b087"/><path d="M1.91,2.15h8.21v.47H1.91Z" fill="#00b087"/><path d="M1.91,3.48H8.09v.46H1.91Z" fill="#00b087"/><path d="M12,17.6h2.55v.46H12Z" fill="#00b087"/></g></g></svg>