<svg xmlns="http://www.w3.org/2000/svg" width="64" height="64" viewBox="0 0 64 64"><title>switch</title><g id="e55ba85f-2c8c-45ab-9024-74afb2511276" data-name="switch"><path d="M17.28,36a.47.47,0,0,1-.35-.15L.5,18.33,17,.65a.49.49,0,0,1,.68,0,.5.5,0,0,1,0,.69l-15.88,17L17.63,35.2a.49.49,0,0,1,0,.68A.5.5,0,0,1,17.28,36Z" fill="#c1c1c1c1"/><path d="M62.84,18.74H1.7a.47.47,0,0,1-.48-.48.48.48,0,0,1,.48-.49H62.84a.49.49,0,0,1,.48.49A.48.48,0,0,1,62.84,18.74Z" fill="#c1c1c1c1"/><path d="M46.65,63.5a.48.48,0,0,1-.35-.82l15.88-17L46.37,28.81a.5.5,0,0,1,0-.69.49.49,0,0,1,.68,0L63.5,45.67,47,63.35A.47.47,0,0,1,46.65,63.5Z" fill="#c1c1c1c1"/><path d="M62.3,46.23H1.16a.49.49,0,0,1-.48-.49.48.48,0,0,1,.48-.48H62.3a.47.47,0,0,1,.48.48A.48.48,0,0,1,62.3,46.23Z" fill="#c1c1c1c1"/></g></svg>