<svg xmlns="http://www.w3.org/2000/svg" width="63" height="63" viewBox="0 0 63 63"><title>tax</title><g id="ad912566-874b-4ea5-8fbc-4de54ff63330" data-name="Layer 2"><g id="09b72249-3be8-4f04-b459-f10bba9f8aad" data-name="Layer 1"><path d="M31.5,63A31.5,31.5,0,1,1,63,31.5,31.5,31.5,0,0,1,31.5,63Zm0-62A30.53,30.53,0,1,0,62,31.53v0A30.57,30.57,0,0,0,31.5,1Z" fill="#c1c1c1"/><polygon points="40.66 20.17 42.05 20.47 22.34 42.83 20.95 42.53 40.66 20.17" fill="#c1c1c1"/><path d="M24.22,27.34a6.51,6.51,0,0,1-6.51-6.46h0a6.49,6.49,0,0,1,6.46-6.51h0a6.49,6.49,0,0,1,0,13Zm-5.54-6.46a5.52,5.52,0,0,0,11,0v-.06a5.53,5.53,0,0,0-5.51-5.49h0a5.53,5.53,0,0,0-5.49,5.54Z" fill="#c1c1c1"/><path d="M38.7,48.63a6.5,6.5,0,0,1,0-13h0a6.5,6.5,0,0,1,0,13Zm0-12a5.52,5.52,0,1,0,5.52,5.52h0A5.53,5.53,0,0,0,38.7,36.63Z" fill="#c1c1c1"/></g></g></svg>