<svg xmlns="http://www.w3.org/2000/svg" width="232.31" height="270.04" viewBox="0 0 232.31 270.04"><title>tax-cert-icon</title><g id="e5ff5bd0-8661-4f35-be80-493199359133" data-name="Layer 2"><g id="afdd0e72-fc1c-4c30-89f7-2e1f884ffc66" data-name="Layer 1"><rect y="40.04" width="196" height="230" rx="5" ry="5" fill="#ededed"/><rect x="35.31" y="1" width="196" height="230" rx="2.05" ry="2.05" fill="#fff" stroke="#78be20" stroke-miterlimit="10" stroke-width="2"/><path d="M168.31,23H32A15.71,15.71,0,0,0,16.31,38.67V237.33A15.71,15.71,0,0,0,32,253H196.64a15.7,15.7,0,0,0,15.67-15.67V65.67h-44Z" fill="#fff" stroke="#78be20" stroke-miterlimit="10" stroke-width="2"/><line x1="168.31" y1="23" x2="212.31" y2="65.67" fill="none" stroke="#78be20" stroke-miterlimit="10" stroke-width="2"/><rect x="34.26" y="144.73" width="108.88" height="10" rx="3" ry="3" fill="#ededed"/><rect x="112.29" y="163.23" width="80.06" height="10" rx="3" ry="3" fill="#ededed"/><rect x="34.26" y="163.23" width="69.93" height="10" rx="3" ry="3" fill="#ededed"/><rect x="150.56" y="144.73" width="41.8" height="10" rx="3" ry="3" fill="#ededed"/><rect x="82.46" y="204" width="108.88" height="10" rx="3" ry="3" fill="#ededed"/><rect x="33.25" y="185.5" width="80.06" height="10" rx="3" ry="3" fill="#ededed"/><rect x="121.41" y="185.5" width="69.93" height="10" rx="3" ry="3" fill="#ededed"/><rect x="33.25" y="204" width="41.8" height="10" rx="3" ry="3" fill="#ededed"/><rect x="33.75" y="51.86" width="35.82" height="35.82" rx="3" ry="3" fill="#ededed"/><rect x="81.96" y="120.95" width="108.88" height="10" rx="3" ry="3" fill="#ededed"/><rect x="32.74" y="102.45" width="80.06" height="10" rx="3" ry="3" fill="#ededed"/><rect x="120.91" y="102.45" width="69.93" height="10" rx="3" ry="3" fill="#ededed"/><rect x="32.74" y="120.95" width="41.8" height="10" rx="3" ry="3" fill="#ededed"/></g></g></svg>