<svg xmlns="http://www.w3.org/2000/svg" width="64" height="64" viewBox="0 0 64 64"><title>tax_free</title><g id="99881a8a-c925-4c50-9771-3b9ebe2f4b3c" data-name="tax_free"><polygon points="61.36 33.78 63.16 33.78 44.68 58.15 42.87 58.15 61.36 33.78" fill="#00b087"/><path d="M47.51,42.94a5.06,5.06,0,0,1-5.06-5h0a5,5,0,0,1,5-5.06h0a5,5,0,0,1,0,10.07Zm0-9.09h0a4.06,4.06,0,0,0-4,4.07h0a4.06,4.06,0,1,0,4-4.07Z" fill="#00b087"/><path d="M58.47,59.06a5,5,0,1,1,0-10.07h0a5,5,0,0,1,5,5,5,5,0,0,1-5,5Zm0-9.09a4.06,4.06,0,0,0,0,8.11A4.06,4.06,0,0,0,62.52,54,4.06,4.06,0,0,0,58.46,50Z" fill="#00b087"/><path d="M18.66,59.53C6.78,59.53.5,50,.5,32S6.78,4.47,18.66,4.47,36.82,14,36.82,32,30.54,59.53,18.66,59.53Zm0-54.08C7.26,5.45,1.48,14.38,1.48,32S7.26,58.55,18.66,58.55,35.84,49.62,35.84,32,30.06,5.45,18.66,5.45Z" fill="#00b087"/></g></svg>