<svg xmlns="http://www.w3.org/2000/svg" width="64" height="64" viewBox="0 0 64 64"><title>team</title><g id="2b737e86-c7c5-418d-a4f7-7ab2f7547ad9" data-name="team"><path d="M40,14.74a8,8,0,1,0-8.07,8h.14A8,8,0,0,0,40,14.74Z" fill="none"/><path d="M50.58,40.3H45.23a6.86,6.86,0,0,0-5.35,2.56,7.39,7.39,0,0,1,5,7v4.74H63V47.15a6.88,6.88,0,0,0-6.88-6.85H50.58Z" fill="none"/><path d="M19.69,37.46v0H24a8.25,8.25,0,0,1-.58-3,8.54,8.54,0,1,1,16.5,3h4.35v0a8.44,8.44,0,0,1-.73-10.42,6.89,6.89,0,0,0-6.15-3.81H26.57a6.88,6.88,0,0,0-6.15,3.81,8.47,8.47,0,0,1-.73,10.41Z" fill="none"/><path d="M24.12,42.86a6.86,6.86,0,0,0-5.35-2.56H7.91A6.88,6.88,0,0,0,1,47.15v7.41H19.16V49.82A7.39,7.39,0,0,1,24.12,42.86Z" fill="none"/><path d="M24.66,42.69a7.52,7.52,0,0,1,1.91-.26H29A8.59,8.59,0,0,1,24.26,38h-5.1v0a8.53,8.53,0,0,1-2.86,1.77h2.47A7.4,7.4,0,0,1,24.66,42.69Z" fill="none"/><path d="M44.84,38H39.73A8.52,8.52,0,0,1,35,42.43h2.48a7.52,7.52,0,0,1,1.91.26,7.4,7.4,0,0,1,5.89-2.92H47.7A8.67,8.67,0,0,1,44.84,38Z" fill="none"/><path d="M13.41,40.3h0Z" fill="#00b087"/><path d="M19.69,36.63v.83a8.47,8.47,0,0,0,.73-10.41,6.46,6.46,0,0,0-.27.6,7.87,7.87,0,0,1-.46,9Z" fill="#00b087"/><path d="M19.16,37.25a8,8,0,0,1-5.75,2.52H16.3A8.53,8.53,0,0,0,19.16,38Z" fill="#00b087"/><path d="M5.34,31.8A8,8,0,0,1,19.8,27.11c.08-.18.16-.36.26-.54a8.52,8.52,0,1,0-9.68,13.2h2.89A8,8,0,0,1,5.34,31.8Z" fill="#00b087"/><path d="M1,54.56V47.15A6.88,6.88,0,0,1,7.91,40.3h5.36a8.62,8.62,0,0,1-2.89-.53H7.91A7.41,7.41,0,0,0,.5,47.15v8H19.16v-.54Z" fill="#00b087"/><path d="M24.12,42.86a5.6,5.6,0,0,1,.54-.17,7.4,7.4,0,0,0-5.89-2.92H16.3a8.66,8.66,0,0,1-2.89.53h5.36A6.86,6.86,0,0,1,24.12,42.86Z" fill="#00b087"/><path d="M13.34,39.77h0Z" fill="#00b087"/><path d="M13.41,40.3a8.66,8.66,0,0,0,2.89-.53H10.38a8.62,8.62,0,0,0,2.89.53Z" fill="#00b087"/><path d="M32.07,42.43H35A8.52,8.52,0,0,0,39.73,38h-.59A8,8,0,0,1,32.07,42.43Z" fill="#00b087"/><path d="M24.86,38h-.6A8.59,8.59,0,0,0,29,42.43h2.89A8,8,0,0,1,24.86,38Z" fill="#00b087"/><path d="M24,34.47a8,8,0,0,1,16,0,7.84,7.84,0,0,1-.61,3H40a8.53,8.53,0,1,0-16.5-3,8.25,8.25,0,0,0,.58,3h.56A7.84,7.84,0,0,1,24,34.47Z" fill="#00b087"/><path d="M32,43h0Z" fill="#00b087"/><path d="M32,42.44h0Z" fill="#00b087"/><path d="M37.43,42.43H35a8.37,8.37,0,0,1-2.88.54h5.36a7.5,7.5,0,0,1,1.58.18c.1-.15.21-.31.33-.46A7.52,7.52,0,0,0,37.43,42.43Z" fill="#00b087"/><path d="M26.57,42.43a7.52,7.52,0,0,0-1.91.26c.12.15.23.31.33.46A7.5,7.5,0,0,1,26.57,43h5.36A8.38,8.38,0,0,1,29,42.43Z" fill="#00b087"/><path d="M24.46,43.3c-.11-.15-.22-.3-.34-.44a7.39,7.39,0,0,0-5,7v4.74h.53V49.82A6.86,6.86,0,0,1,24.46,43.3Z" fill="#00b087"/><path d="M39.88,42.86c-.12.14-.23.29-.34.44a6.86,6.86,0,0,1,4.77,6.52v4.74h.53V49.82A7.39,7.39,0,0,0,39.88,42.86Z" fill="#00b087"/><polygon points="44.31 57.23 19.69 57.23 19.69 55.1 19.16 55.1 19.16 57.76 44.84 57.76 44.84 55.1 44.31 55.1 44.31 57.23" fill="#00b087"/><path d="M24.12,42.86c.12.14.23.29.34.44.17-.06.35-.1.53-.15-.1-.15-.21-.31-.33-.46A5.6,5.6,0,0,0,24.12,42.86Z" fill="#00b087"/><rect x="19.16" y="54.56" width="0.53" height="0.53" fill="#00b087"/><path d="M32.07,42.43H29a8.38,8.38,0,0,0,2.89.54h.14A8.37,8.37,0,0,0,35,42.43Z" fill="#00b087"/><path d="M24,14.74a8,8,0,1,1,8.07,8H35a8.54,8.54,0,1,0-5.91,0h2.89A8,8,0,0,1,24,14.74Z" fill="#00b087"/><path d="M32.07,23.24h0Z" fill="#00b087"/><path d="M44.84,38v0c-.18-.17-.36-.36-.53-.54v0H40c-.07.18-.15.36-.23.54Z" fill="#00b087"/><path d="M19.69,37.5v0c-.17.19-.35.37-.53.54v0h5.1c-.08-.18-.15-.36-.22-.54Z" fill="#00b087"/><path d="M26.57,23.24h5.36A8.62,8.62,0,0,1,29,22.71H26.57a7.4,7.4,0,0,0-6.51,3.86l.36.48A6.88,6.88,0,0,1,26.57,23.24Z" fill="#00b087"/><path d="M37.43,23.24a6.89,6.89,0,0,1,6.15,3.81c.11-.17.24-.32.36-.48a7.41,7.41,0,0,0-6.51-3.86H35a8.6,8.6,0,0,1-2.88.53Z" fill="#00b087"/><path d="M32,22.71h0Z" fill="#00b087"/><path d="M19.69,37.46v-.83a6.4,6.4,0,0,1-.53.62V38C19.34,37.83,19.52,37.65,19.69,37.46Z" fill="#00b087"/><path d="M20.15,27.65a6.46,6.46,0,0,1,.27-.6l-.36-.48c-.1.18-.18.36-.26.54C19.92,27.28,20,27.46,20.15,27.65Z" fill="#00b087"/><path d="M39.14,38h.59c.08-.18.16-.36.23-.54h-.57A5.29,5.29,0,0,1,39.14,38Z" fill="#00b087"/><path d="M24.6,37.5H24c.07.18.14.36.22.54h.6C24.77,37.86,24.68,37.69,24.6,37.5Z" fill="#00b087"/><path d="M32.07,23.24A8.6,8.6,0,0,0,35,22.71H29a8.62,8.62,0,0,0,2.89.53Z" fill="#00b087"/><path d="M50.66,40.3h0Z" fill="#00b087"/><path d="M44.84,37.26V38a8.67,8.67,0,0,0,2.86,1.76h2.88A8,8,0,0,1,44.84,37.26Z" fill="#00b087"/><path d="M50.66,23.83a8,8,0,0,1,.07,15.94h2.88a8.5,8.5,0,1,0-9.67-13.2,5.36,5.36,0,0,1,.26.54A8,8,0,0,1,50.66,23.83Z" fill="#00b087"/><path d="M44.31,37.47v-.84a7.86,7.86,0,0,1-.47-9,4.41,4.41,0,0,0-.26-.59,8.44,8.44,0,0,0,.73,10.42Z" fill="#00b087"/><path d="M44.84,38v-.75a8,8,0,0,1-.53-.63v.84C44.48,37.65,44.66,37.84,44.84,38Z" fill="#00b087"/><path d="M43.84,27.64l.36-.53a5.36,5.36,0,0,0-.26-.54c-.12.16-.25.31-.36.48A4.41,4.41,0,0,1,43.84,27.64Z" fill="#00b087"/><path d="M63.5,47.15a7.41,7.41,0,0,0-7.41-7.38H53.61a8.6,8.6,0,0,1-2.88.53h5.36A6.88,6.88,0,0,1,63,47.15v7.41H44.84v.54H63.5Z" fill="#00b087"/><path d="M50.66,39.77h0Z" fill="#00b087"/><path d="M39.34,42.69a5.6,5.6,0,0,1,.54.17,6.86,6.86,0,0,1,5.35-2.56h5.35a8.6,8.6,0,0,1-2.88-.53H45.23A7.4,7.4,0,0,0,39.34,42.69Z" fill="#00b087"/><rect x="44.31" y="54.56" width="0.53" height="0.53" fill="#00b087"/><path d="M39,43.15c.18.05.36.09.53.15.11-.15.22-.3.34-.44a5.6,5.6,0,0,0-.54-.17C39.22,42.84,39.11,43,39,43.15Z" fill="#00b087"/><path d="M50.66,39.77h-3a8.6,8.6,0,0,0,2.88.53h.15a8.6,8.6,0,0,0,2.88-.53h-3Z" fill="#00b087"/></g></svg>