<svg xmlns="http://www.w3.org/2000/svg" width="64" height="64" viewBox="0 0 64 64"><title>together</title><g id="6cd69c20-d5ba-4550-897b-6d43c9770ba3" data-name="together"><path d="M18.38,46.58a9.26,9.26,0,1,1,9.29-9.26A9.28,9.28,0,0,1,18.38,46.58Zm0-17.54a8.28,8.28,0,1,0,8.31,8.28A8.31,8.31,0,0,0,18.38,29Z" fill="#00b087"/><path d="M30.87,63.5H5.9V54.23c0-4.76,3.27-8.63,7.3-8.63H23.56c4,0,7.31,3.87,7.31,8.63Zm-24-1h23V54.23c0-4.22-2.84-7.66-6.33-7.66H13.2c-3.49,0-6.33,3.44-6.33,7.66Z" fill="#00b087"/><path d="M44.4,46.58a9.26,9.26,0,1,1,9.29-9.26A9.28,9.28,0,0,1,44.4,46.58ZM44.4,29a8.28,8.28,0,1,0,8.31,8.28A8.31,8.31,0,0,0,44.4,29Z" fill="#00b087"/><path d="M58.1,63.5H30.39V54.23a8.38,8.38,0,0,1,8.09-8.63H50a8.37,8.37,0,0,1,8.08,8.63Zm-26.73-1H57.13V54.23A7.41,7.41,0,0,0,50,46.57H38.48a7.41,7.41,0,0,0-7.11,7.66Z" fill="#00b087"/><path d="M56,1.48a.69.69,0,0,1,.69.69V24a.69.69,0,0,1-.69.69H34.08a.69.69,0,0,1-.69-.69v-5.6c0-2.61-1.55-3.78-3.08-3.78a3.77,3.77,0,0,0-2.47,1,3.61,3.61,0,0,1-2.37,1c-1.44,0-2.94-1.08-3-3.51.11-2.42,1.61-3.51,3-3.51a3.61,3.61,0,0,1,2.37,1,3.78,3.78,0,0,0,2.47,1c1.53,0,3.08-1.17,3.08-3.78V2.17a.69.69,0,0,1,.69-.69H56m0-1H34.09a1.67,1.67,0,0,0-1.67,1.67V7.78c0,1.88-1,2.8-2.11,2.8a2.82,2.82,0,0,1-1.82-.76h0a4.59,4.59,0,0,0-3-1.21c-2,0-3.91,1.56-4,4.49.12,2.93,2,4.49,4,4.49a4.58,4.58,0,0,0,3-1.2,2.78,2.78,0,0,1,1.82-.77c1.14,0,2.1.93,2.11,2.81V24a1.66,1.66,0,0,0,1.66,1.67H56A1.66,1.66,0,0,0,57.61,24V2.17A1.66,1.66,0,0,0,56,.5Z" fill="#00b087"/><path d="M29.92,1.48a.69.69,0,0,1,.69.69v5.6c0,.64-.18,1-.3,1a1.06,1.06,0,0,1-.62-.31A6.43,6.43,0,0,0,25.47,6.8c-3.29,0-5.69,2.56-5.84,6.21v.17c.15,3.66,2.55,6.22,5.83,6.22a6.41,6.41,0,0,0,4.22-1.66,1,1,0,0,1,.63-.31c.12,0,.29.35.3,1V24a.69.69,0,0,1-.7.69H8.05A.69.69,0,0,1,7.36,24V2.17a.69.69,0,0,1,.69-.69H29.92m0-1H8.06A1.67,1.67,0,0,0,6.39,2.17V24A1.66,1.66,0,0,0,8.05,25.7H29.91A1.67,1.67,0,0,0,31.58,24v-5.6c0-1.22-.49-2-1.27-2A2,2,0,0,0,29,17a5.47,5.47,0,0,1-3.58,1.41c-2.73,0-4.73-2.17-4.86-5.29v-.06c.13-3.11,2.12-5.29,4.86-5.29A5.43,5.43,0,0,1,29,9.19a2,2,0,0,0,1.27.56c.79,0,1.27-.76,1.28-2V2.17h0A1.66,1.66,0,0,0,29.92.5ZM24.31.5Z" fill="#00b087"/></g></svg>