<svg xmlns="http://www.w3.org/2000/svg" width="64" height="64" viewBox="0 0 64 64"><title>twitter</title><g id="e3261f25-172a-4e11-901e-c0409c8b5a4f" data-name="twitter"><path d="M63.5,12.46a25,25,0,0,1-7.42,2,13,13,0,0,0,5.68-7.14,26.07,26.07,0,0,1-8.2,3.13A12.94,12.94,0,0,0,31.2,19.33a12.45,12.45,0,0,0,.34,2.94A36.7,36.7,0,0,1,4.9,8.76,13,13,0,0,0,8.9,26,12.88,12.88,0,0,1,3.05,24.4v.16A12.92,12.92,0,0,0,13.42,37.23a13.11,13.11,0,0,1-5.85.22,13,13,0,0,0,12.07,9A25.92,25.92,0,0,1,3.59,52,24.3,24.3,0,0,1,.5,51.78a36.53,36.53,0,0,0,19.82,5.81c23.77,0,36.77-19.7,36.77-36.77,0-.57,0-1.12,0-1.67a25.82,25.82,0,0,0,6.45-6.69Z" fill="#00b087"/></g></svg>