<svg xmlns="http://www.w3.org/2000/svg" width="60.62" height="62" viewBox="0 0 60.62 62"><title>unit-trust</title><g id="Layer_2" data-name="Layer 2"><g id="Layer_1-2" data-name="Layer 1"><path d="M42.92,0a.9.9,0,0,0-.28,0l-4.09,1.1a1,1,0,0,0,.52,2h0l1.67-.44C33.54,14.57,17.21,29,.83,32.22a1,1,0,1,0,.4,2C18.51,30.81,35,16.14,42.55,3.67L43,5.38a1,1,0,0,0,2-.53h0L43.9.76A1,1,0,0,0,42.92,0ZM39.05,14.73a1,1,0,0,0-1,1V34.45H39a3,3,0,0,1,1.1.22V16.79h4.11v9.56l1.46-1.46-.35.42a2.64,2.64,0,0,1,1-.82V15.76a1,1,0,0,0-1-1ZM50.31,25a1.07,1.07,0,0,0-.78.33,1.05,1.05,0,0,0-.28.61V25.9l-.13.8-.64-.46.2.19a1.1,1.1,0,0,0-1.7.05l.11-.13-2.38,2.38a.75.75,0,0,0-.12.14,1.1,1.1,0,0,0,0,1.27l.45.62-.8.13.17,0a1.08,1.08,0,0,0-1.07,1.07v3.37a1.08,1.08,0,0,0,.86,1h0l.81.13-.48.67,0,.06a1.14,1.14,0,0,0-.16.54,1.12,1.12,0,0,0,.32.78l2.38,2.37L47,40.77a1.09,1.09,0,0,0,1.71,0l-.21.21.64-.46.13.8v-.07a.93.93,0,0,0,.29.63,1,1,0,0,0,.77.33h3.37a1,1,0,0,0,.77-.33,1.06,1.06,0,0,0,.29-.6l.12-.77.68.47-.21-.19a1.1,1.1,0,0,0,1.7-.06l-.11.14,2.36-2.37a.81.81,0,0,0,.12-.14,1.1,1.1,0,0,0,0-1.26l-.46-.64.81-.14-.17,0a1,1,0,0,0,.75-.32,1,1,0,0,0,.31-.74V32a1.1,1.1,0,0,0-.34-.78,1,1,0,0,0-.52-.26h0l-.78-.13.46-.65a.25.25,0,0,1,0-.07,1,1,0,0,0,.15-.54,1,1,0,0,0-.31-.77l-2.36-2.38.11.13a1.09,1.09,0,0,0-1.71-.05l.21-.2-.66.47-.14-.81V26a1,1,0,0,0-.3-.64,1.06,1.06,0,0,0-.76-.32H50.31Zm-23.59,2h0a1,1,0,0,0-1,1V39l2-2h0V29.12h4.11v6a2.77,2.77,0,0,1,1.93-.66h.13V28.1a1,1,0,0,0-1-1Zm24.42,0h1.7l.28,1.61a1,1,0,0,0,1.18.84.91.91,0,0,0,.42-.17l1.33-.95,1.2,1.21-.94,1.33A1,1,0,0,0,57,32.54l1.59.25v1.7L57,34.75a1,1,0,0,0-.85,1.19,1.16,1.16,0,0,0,.18.43l1,1.33-1.19,1.19-1.35-1a1,1,0,0,0-1.61.68l-.25,1.6h-1.7l-.26-1.59a1,1,0,0,0-1.19-.84.91.91,0,0,0-.42.17L48,38.88l-1.2-1.19,1-1.32a1,1,0,0,0-.24-1.44,1.09,1.09,0,0,0-.43-.18l-1.61-.26v-1.7L47,32.52a1,1,0,0,0,.84-1.19,1,1,0,0,0-.18-.43l-.94-1.3L48,28.39l1.31.95a1,1,0,0,0,1.62-.67ZM52,30.55a3.09,3.09,0,1,0,3.08,3.09A3.1,3.1,0,0,0,52,30.55Zm0,2.06a1,1,0,0,1,1,1,1,1,0,0,1-1,1,1,1,0,0,1-1-1A1,1,0,0,1,52,32.61ZM14.39,35.28a1,1,0,0,0-1,1V61a1,1,0,0,0,1,1h6.16a1,1,0,0,0,1-1V36.31a1,1,0,0,0-1-1Zm19.39,1.23a1,1,0,0,0-1.08,1l-.35,2.06-1.66-1.19A1,1,0,0,0,30,38.1a1,1,0,0,0-.79.33L25.54,42.1v0a1,1,0,0,0-.31.78,1,1,0,0,0,.22.64l1.22,1.69-2.11.36.18,0a1.11,1.11,0,0,0-1.1,1.09v5.19a1.06,1.06,0,0,0,.33.78,1,1,0,0,0,.62.3h0l2.09.35L25.44,55a1,1,0,0,0-.22.65,1,1,0,0,0,.31.78v0l3.68,3.65v0a1,1,0,0,0,.79.33,1,1,0,0,0,.7-.26L32.35,59,32.7,61a1,1,0,0,0,.29.61,1.05,1.05,0,0,0,.79.35H39a1,1,0,0,0,1.08-1L40.38,59l1.71,1.21a1.1,1.1,0,0,0,1.48-.08l3.64-3.63v0a1,1,0,0,0,.31-.78,1,1,0,0,0-.22-.63l-1.23-1.74,2.12-.35-.17,0a1.11,1.11,0,0,0,1.09-1.09V46.66a1,1,0,0,0-.34-.78,1,1,0,0,0-.62-.3l-2.06-.34,1.21-1.71a1.08,1.08,0,0,0,.22-.64,1,1,0,0,0-.31-.78h0l-3.64-3.67a1,1,0,0,0-.79-.33,1,1,0,0,0-.69.25l.06,0L40.4,39.56l-.35-2.08a1,1,0,0,0-.29-.61,1,1,0,0,0-.79-.35H33.78Zm-18.37.83h4.11v22.6H15.41ZM34.6,38.57h3.55l.5,2.94a1,1,0,0,0,1.18.85,1.09,1.09,0,0,0,.43-.18l2.42-1.73L45.19,43l-1.72,2.44a1,1,0,0,0,.25,1.43,1,1,0,0,0,.43.17l2.91.47V51l-3,.5a1,1,0,0,0-.84,1.18,1.09,1.09,0,0,0,.18.43l1.73,2.43-2.5,2.5-2.46-1.75a1,1,0,0,0-1.43.25,1.16,1.16,0,0,0-.18.43l-.46,2.94H34.6L34.1,57a1,1,0,0,0-1.18-.84,1.09,1.09,0,0,0-.43.18l-2.4,1.71-2.52-2.5,1.73-2.43a1,1,0,0,0-.24-1.44,1,1,0,0,0-.42-.17L25.69,51V47.48l2.95-.5a1,1,0,0,0,.84-1.18,1,1,0,0,0-.18-.43L27.57,43l2.52-2.52,2.4,1.73a1,1,0,0,0,1.43-.24.92.92,0,0,0,.18-.43Zm-32.54.82a1,1,0,0,0-1,1V61a1,1,0,0,0,1,1H8.22a1,1,0,0,0,1-1V40.42a1,1,0,0,0-1-1Zm1,2.06H7.19V59.94H3.08Zm33.31,2.2A5.61,5.61,0,1,0,42,49.27,5.64,5.64,0,0,0,36.39,43.65Zm0,2.05a3.53,3.53,0,0,1,3.53,3.57,3.55,3.55,0,0,1-7.09,0A3.56,3.56,0,0,1,36.39,45.7Z" fill="#00b087"/></g></g></svg>