<svg xmlns="http://www.w3.org/2000/svg" width="64" height="64" viewBox="0 0 64 64"><title>unit_trust</title><g id="a002b2ef-b1fe-4228-b267-43671ddece32" data-name="unit_trust"><path d="M44.69.51a1.41,1.41,0,0,0-.29,0L40.28,1.62a1,1,0,0,0-.74,1.27,1,1,0,0,0,1.27.75h0l1.68-.45C35.23,15.2,18.77,29.75,2.26,33a1,1,0,1,0,.4,2c17.42-3.44,34-18.23,41.65-30.8l.46,1.72a1,1,0,1,0,2-.53h0L45.67,1.28A1,1,0,0,0,44.69.51Z" fill="#00b087"/><path d="M40.79,15.36a1,1,0,0,0-1,1V35.24h.95a3,3,0,0,1,1.11.22v-18H46v9.63l1.47-1.47-.35.43a2.6,2.6,0,0,1,1-.83V16.4a1,1,0,0,0-1-1Z" fill="#00b087"/><path d="M55.56,26.73s0,0,.1.07l.46,0-.45.08.14.81.27,1.53,1.26-.9.54-.38,0,0,.12-.11h0a.1.1,0,0,1,.07,0l.07.08h0l2.32,2.33,0,0h0v.07l-.11.17v.06l-.31.45-.9,1.27,1.54.25.79.14a.1.1,0,0,1,0,.08v3.32l-.06,0,0,0h0l-.81.14-1.54.27.91,1.27.46.63a.14.14,0,0,1,0,.16L58.15,41h0a.16.16,0,0,1-.09,0h0l-.13-.11,0,0-.55-.39L56,39.66l-.24,1.54-.13.8a.08.08,0,0,1,0,0l-.06,0,0,0H52.16l0,0h0l0,0h-.29l.28,0-.13-.81-.25-1.56-1.28.93-.53.37,0,0-.12.12h-.05a.12.12,0,0,1-.09,0l0,0-2.38-2.37s0-.07-.05-.07h0a.26.26,0,0,1,0-.08l.14-.23v0l.3-.42.92-1.28L47,36.3l-.78-.12a.11.11,0,0,1-.08-.09V32.74a.11.11,0,0,1,.11-.11v0l.78-.13,1.57-.25L47.61,31l-.44-.62a.15.15,0,0,1,0-.16h0l2.34-2.33h0l0-.06a.12.12,0,0,1,.09,0l.06,0,.1.09,0,0,.53.38,1.28.92.25-1.56.13-.8-.13,0H52a0,0,0,0,1,0,0h3.51m-3.43-1a1,1,0,0,0-.78.34,1,1,0,0,0-.28.61v0l-.13.81L50.29,27l.05.05a1,1,0,0,1,.15.14L50.34,27a1.09,1.09,0,0,0-1.41,0l-.09.08-.06.07.06-.07,0-.06-2.4,2.4a.81.81,0,0,0-.12.14,1.11,1.11,0,0,0,0,1.28l.45.63-.8.13h.17a1.1,1.1,0,0,0-1.08,1.08v3.4a1.08,1.08,0,0,0,.87,1l.81.14-.48.67V38a1.17,1.17,0,0,0-.16.55,1.14,1.14,0,0,0,.32.78l2.4,2.39-.07-.11a1.12,1.12,0,0,0,.86.42,1.09,1.09,0,0,0,.68-.24h0l.18-.18a.77.77,0,0,1-.18.18l0,0,.65-.46.13.8v-.07a.91.91,0,0,0,.29.64,1,1,0,0,0,.75.33h3.45a1,1,0,0,0,.75-.33,1.09,1.09,0,0,0,.29-.61l.12-.77.69.47,0,0a1,1,0,0,1-.18-.17l.18.17a1.12,1.12,0,0,0,.65.21,1.08,1.08,0,0,0,.73-.28.86.86,0,0,0,.13-.14l0,0,0,0-.09.12,2.38-2.39.12-.14a1.1,1.1,0,0,0,0-1.27l-.46-.64.81-.15h-.14a1,1,0,0,0,.73-.32,1,1,0,0,0,.31-.74V32.77a1.12,1.12,0,0,0-.34-.79,1.06,1.06,0,0,0-.53-.26l-.78-.13.46-.66v-.07a1.1,1.1,0,0,0-.16-1.32l-2.38-2.4,0,0,.09.11-.09-.11a1.09,1.09,0,0,0-1.45-.12h0l-.18.17a.73.73,0,0,1,.18-.17l0,0-.67.48-.14-.82v0a1,1,0,0,0-.3-.64,1.07,1.07,0,0,0-.77-.33H52.14v0Z" fill="#00b087"/><path d="M28.36,27.73h0a1,1,0,0,0-1,1V39.83l2-2h0V29.87h4.15v6a2.8,2.8,0,0,1,1.94-.66h.13V28.84a1,1,0,0,0-1-1Z" fill="#00b087"/><path d="M53.83,38h0A3.65,3.65,0,0,1,51.27,37a3.61,3.61,0,0,1,2.56-6.14h0a3.61,3.61,0,0,1,0,7.21Zm0-6.23a2.63,2.63,0,0,0,0,5.25h0a2.6,2.6,0,0,0,1.85-.76,2.62,2.62,0,0,0-1.84-4.49Z" fill="#00b087"/><path d="M22.14,63.5H15.93a1.5,1.5,0,0,1-1.5-1.5V37.08a1.5,1.5,0,0,1,1.5-1.49l6.21,0a1.49,1.49,0,0,1,1.49,1.49V62A1.5,1.5,0,0,1,22.14,63.5ZM15.92,36.56a.53.53,0,0,0-.51.52V62a.52.52,0,0,0,.52.52h6.21a.52.52,0,0,0,.52-.52V37.11a.53.53,0,0,0-.52-.52Z" fill="#00b087"/><path d="M40.7,38.3h.06l0,0,0,0v.07l.35,2.09.26,1.51,1.26-.86L44.46,40l.12-.09h0l0,0V40l3.67,3.7,0,.08h0s0,0-.05.09l-1.22,1.72-.9,1.28,1.54.25,2.08.34.05,0h0l0,.08,0,0v5.27a.14.14,0,0,1-.14.14v0l-2.11.35-1.54.25.9,1.28,1.24,1.75,0,0,0,0,0,.07v0l-3.67,3.66a.16.16,0,0,1-.1,0,.11.11,0,0,1-.08,0l0,0,0,0-1.72-1.22-1.29-.91-.24,1.56-.3,2,0,.1V62H35.47l-.07,0,0,0,0,0v-.07l-.36-2-.26-1.51-1.26.88-1.66,1.16-.07,0,0,0h-.1l0,0,0,0-3.73-3.72v-.11l0,0,1.25-1.74L30,53.52l-1.55-.26-2.11-.35-.08,0h0a.1.1,0,0,1,0-.08V47.57a.14.14,0,0,1,.14-.14v0l2.1-.36L30,46.79l-.91-1.28-1.23-1.7,0,0,0,0,0-.07v0l3.7-3.7,0,0,0,0h.06l.05.05.06,0,1.67,1.2,1.27.91L35,40.56l.36-2.07V38.3H40.7m-5.31-1a1,1,0,0,0-1,.93s0,.06,0,.08L34,40.4l-1.67-1.2a1,1,0,0,0-.7-.28h0a1,1,0,0,0-.75.33L27.17,43a1.07,1.07,0,0,0-.09,1.43l1.23,1.71-2.13.36h.18a1.11,1.11,0,0,0-1.11,1.1v5.23a1.11,1.11,0,0,0,.33.79,1.07,1.07,0,0,0,.63.3l2.11.35L27.07,56a1,1,0,0,0-.23.65,1,1,0,0,0,.32.79l3.71,3.68a1,1,0,0,0,.75.33h.07a1,1,0,0,0,.68-.26L34,60l.35,2a1,1,0,0,0,.3.62,1.06,1.06,0,0,0,.79.35h5.35a1,1,0,0,0,1-.92V62l.31-2,1.72,1.22a1.13,1.13,0,0,0,.7.25,1.09,1.09,0,0,0,.79-.33L49,57.47a1,1,0,0,0,.31-.79,1,1,0,0,0-.22-.63l-1.24-1.76L50,53.94h-.17a1.12,1.12,0,0,0,1.1-1.1V47.55a1,1,0,0,0-.35-.79,1,1,0,0,0-.62-.3l-2.08-.34,1.22-1.73a1.05,1.05,0,0,0,.22-.64A1,1,0,0,0,49,43l-3.67-3.7a1,1,0,0,0-.75-.33h-.07a1,1,0,0,0-.67.25h.06l-1.76,1.21-.36-2.1a1,1,0,0,0-.29-.61,1,1,0,0,0-.77-.35H35.39Z" fill="#00b087"/><path d="M9.71,63.5H3.5A1.5,1.5,0,0,1,2,62V41.23a1.5,1.5,0,0,1,1.5-1.5l6.21,0a1.5,1.5,0,0,1,1.49,1.5V62A1.5,1.5,0,0,1,9.71,63.5ZM3.5,40.71a.52.52,0,0,0-.52.52V62a.52.52,0,0,0,.52.52H9.71a.52.52,0,0,0,.52-.52V41.26a.52.52,0,0,0-.52-.52Z" fill="#00b087"/><path d="M38.11,56.31a6.14,6.14,0,0,1,0-12.28h0a6.14,6.14,0,0,1,0,12.28Zm0-11.8V45a5.17,5.17,0,0,0,0,10.34h0A5.17,5.17,0,0,0,38.1,45Z" fill="#00b087"/></g></svg>