<svg xmlns="http://www.w3.org/2000/svg" width="65" height="65" viewBox="0 0 65 65"><title>unknown</title><g id="f31ab1f9-8e0c-4b5d-ac08-c08a74fcd9e0" data-name="Layer 2"><g id="33ba7529-ac14-498c-96db-2ec835658614" data-name="Layer 1"><path d="M32.5,0A32.5,32.5,0,1,0,65,32.5,32.5,32.5,0,0,0,32.5,0Z" fill="#28af88"/><path d="M29.16,36.52V30.45h1.33c4.34,0,6.85-1.78,6.85-4.84,0-2.84-2.55-4.55-6.72-4.55-1,0-2,.08-2.75.15L27.6,18a22.72,22.72,0,0,1,3.17-.23c6.25,0,10.09,3,10.09,7.72,0,4.47-3.13,7.28-8.7,7.89L32,36.52Zm4,6.36a2.63,2.63,0,1,1-2.62-2.61A2.7,2.7,0,0,1,33.2,42.88Z" fill="#fff"/></g></g></svg>