<svg xmlns="http://www.w3.org/2000/svg" width="40" height="34.69" viewBox="0 0 40 34.69"><title>v-portfolio</title><g id="afae8a6a-101e-44a8-878c-7209811ebe65" data-name="Layer 2"><g id="aeab30b0-76e7-453a-9605-2ca59c0721ef" data-name="Layer 1"><path d="M37,34.69H3a3,3,0,0,1-3-3V7.37A2.07,2.07,0,0,1,2.06,5.31H37.94A2.07,2.07,0,0,1,40,7.37V31.71a3,3,0,0,1-3,3ZM2.06,6.13A1.24,1.24,0,0,0,.82,7.37V31.71A2.16,2.16,0,0,0,3,33.87H37a2.16,2.16,0,0,0,2.15-2.16V7.37a1.25,1.25,0,0,0-1.24-1.24Z" fill="#ffffff"/><path d="M25.39,6.13H14.61a.41.41,0,0,1-.41-.41V1.89A1.89,1.89,0,0,1,16.09,0h7.82a1.89,1.89,0,0,1,1.88,1.89V5.72a.4.4,0,0,1-.4.41ZM15,5.31H25V1.89A1.07,1.07,0,0,0,23.91.82H16.09A1.07,1.07,0,0,0,15,1.89Z" fill="#ffffff"/><path d="M33.16,34.68a.41.41,0,0,1-.41-.4v-23a.41.41,0,0,1,.41-.4.4.4,0,0,1,.41.4v23A.4.4,0,0,1,33.16,34.68Z" fill="#ffffff"/><path d="M6.84,34.68a.4.4,0,0,1-.41-.4v-23a.41.41,0,0,1,.81,0v23A.4.4,0,0,1,6.84,34.68Z" fill="#ffffff"/><path d="M23.49,15a.42.42,0,0,1-.41-.34.41.41,0,0,1,.34-.47c8.32-1.35,15.85-7.07,15.92-7.12a.41.41,0,0,1,.58.07.42.42,0,0,1-.08.58c-.08,0-7.77,5.89-16.29,7.28Z" fill="#ffffff"/><path d="M16.51,15h-.07C7.94,13.59.24,7.75.16,7.7a.41.41,0,0,1-.07-.58.4.4,0,0,1,.57-.07c.08.06,7.62,5.77,15.91,7.12a.39.39,0,0,1,.34.46.4.4,0,0,1-.4.35Z" fill="#ffffff"/><path d="M20,17c-2.27,0-4-.9-4-2.11a1.25,1.25,0,0,1,.12-.54c.43-.93,2-1.57,3.86-1.57s3.43.64,3.86,1.58a1.18,1.18,0,0,1,.12.53C24,16.08,22.27,17,20,17Zm0-3.4c-1.7,0-2.88.57-3.12,1.1a.43.43,0,0,0,0,.19c0,.61,1.35,1.3,3.16,1.3s3.16-.69,3.16-1.3a.37.37,0,0,0,0-.18c-.25-.55-1.48-1.11-3.12-1.11Z" fill="#ffffff"/></g></g></svg>