<svg xmlns="http://www.w3.org/2000/svg" width="16.9" height="9.55" viewBox="0 0 16.9 9.55"><title>view-icon</title><path d="M16.9,4.75v0h0v0h0a.63.63,0,0,0-.18-.35A12.87,12.87,0,0,0,14.88,2.6,11.74,11.74,0,0,0,10.1.17,8,8,0,0,0,7,.13a9.72,9.72,0,0,0-2.69.95A14.58,14.58,0,0,0,.74,3.73c-.19.19-.39.39-.57.6a.65.65,0,0,0,0,.89A12.88,12.88,0,0,0,2,6.95,11.74,11.74,0,0,0,6.79,9.38a8,8,0,0,0,3.09,0,9.72,9.72,0,0,0,2.69-.95,14.58,14.58,0,0,0,3.58-2.65c.19-.19.39-.39.57-.6a.63.63,0,0,0,.18-.35h0v0h0V4.75ZM8.45,8A3.25,3.25,0,1,1,11.7,4.78,3.25,3.25,0,0,1,8.45,8Z" fill="#00b087"/><circle cx="8.45" cy="4.78" r="1.08" fill="#00b087"/></svg>