<svg xmlns="http://www.w3.org/2000/svg" width="64" height="64" viewBox="0 0 64 64"><title>view</title><g id="f8120442-6db3-4ab7-98a5-eb24a5a67a0c" data-name="view"><path d="M31.19,49.1A35.36,35.36,0,0,1,.66,32.25L.5,32l.16-.25A35.42,35.42,0,0,1,32,14.91c12.72.27,24.72,6.72,31.33,16.82l.17.27-.17.26C56.72,42.37,44.72,48.82,32,49.09h-.81ZM1.64,32A34.47,34.47,0,0,0,32,48.12h0c12.29-.26,23.9-6.43,30.36-16.12C55.87,22.3,44.27,16.14,32,15.88A34.46,34.46,0,0,0,1.64,32Z" fill="#00b087"/><path d="M32.07,49A17.06,17.06,0,1,1,49.12,32,17.07,17.07,0,0,1,32.07,49Zm0-33.14A16.09,16.09,0,1,0,48.15,32,16.1,16.1,0,0,0,32.07,15.87Z" fill="#00b087"/><path d="M33.56,32.66a1.47,1.47,0,1,1-2.94,0,1.47,1.47,0,0,1,2.94,0" fill="#00b087"/></g></svg>