<svg xmlns="http://www.w3.org/2000/svg" width="299" height="197" viewBox="0 0 299 197"><title>watch</title><g id="Layer_2" data-name="Layer 2"><g id="Layer_1-2" data-name="Layer 1"><path d="M185.72,92.3l-54.18-34a7.34,7.34,0,0,0-11.35,6.3V132.3a7.43,7.43,0,0,0,11.35,6.3l54.18-33.7A7.37,7.37,0,0,0,185.72,92.3Z" fill="#ffffff"/><path d="M217,37a45.24,45.24,0,0,1,45,45v33a45.24,45.24,0,0,1-45,45H82a45.24,45.24,0,0,1-45-45V82A45.24,45.24,0,0,1,82,37H217m0-37H82A82.24,82.24,0,0,0,0,82v33a82.24,82.24,0,0,0,82,82H217a82.24,82.24,0,0,0,82-82V82A82.24,82.24,0,0,0,217,0Z" fill="#ffffff"/></g></g></svg>