<svg xmlns="http://www.w3.org/2000/svg" width="35.59" height="40" viewBox="0 0 35.59 40"><title>will</title><g id="a7e0f6d4-6c11-4284-983b-358ad255654a" data-name="Layer 2"><g id="f6941adf-c4f8-4669-8fa4-e0d9c6de2f78" data-name="Layer 1"><path d="M.55,0A.55.55,0,0,0,0,.55v38.9A.55.55,0,0,0,.55,40H26.93a.55.55,0,0,0,.55-.55V30.76a.59.59,0,0,0-.16-.4.55.55,0,0,0-.94.4V38.9H1.1V1.1H26.38V20.36a.55.55,0,0,0,.94.4.59.59,0,0,0,.16-.4V.55A.55.55,0,0,0,26.93,0Zm7,4.09a.59.59,0,0,0-.4.16A.57.57,0,0,0,7,4.64a.55.55,0,0,0,.56.55H20.19A.51.51,0,0,0,20.58,5a.52.52,0,0,0,.17-.39.56.56,0,0,0-.56-.55ZM4.12,8.94h0a.59.59,0,0,0-.4.16.57.57,0,0,0-.16.39.59.59,0,0,0,.16.4.54.54,0,0,0,.4.15H23.71a.55.55,0,0,0,.39-.16.53.53,0,0,0,0-.78A.55.55,0,0,0,23.71,9Zm0,2.64h0a.56.56,0,0,0-.4.95.54.54,0,0,0,.4.15H23.71a.55.55,0,0,0,.39-.16.53.53,0,0,0,0-.78.55.55,0,0,0-.39-.16Zm28.3,2.61h0a.51.51,0,0,0-.45.23l-11.3,16a.5.5,0,0,0-.09.21.32.32,0,0,0,0,.09l-1.06,4.07a15.6,15.6,0,0,1-2,.17,6.64,6.64,0,0,1-1.32-.11,1.62,1.62,0,0,1-.73-.29l-.22-.14-.1,0h-.22l-.13,0-.38.08-.3,0h0a.76.76,0,0,0-.46-.33s0,0-.07,0a1.27,1.27,0,0,0-.18-.63.83.83,0,0,0-.42-.35,1,1,0,0,0-.58,0,3.21,3.21,0,0,0-1.13.88,14.18,14.18,0,0,0-.16-1.69,8,8,0,0,0-.31-1.3,1.45,1.45,0,0,0-.7-1A2.37,2.37,0,0,0,8.91,30a3.21,3.21,0,0,0-1.13.3,7.11,7.11,0,0,0-2,1.51,20.17,20.17,0,0,0-2.6,3.48h0a.59.59,0,0,0-.07.43.56.56,0,0,0,.26.34.52.52,0,0,0,.42.06.56.56,0,0,0,.34-.26,19.93,19.93,0,0,1,2.44-3.28,6.23,6.23,0,0,1,1.64-1.28,1.44,1.44,0,0,1,1.33-.08c-.11-.06.05.07.15.36A7.39,7.39,0,0,1,10,32.71a15.49,15.49,0,0,1,.19,2,3.51,3.51,0,0,0-.22.54,1.17,1.17,0,0,0-.13.53.68.68,0,0,0,.18.49.71.71,0,0,0,.51.2l.19,0,.08,0a.38.38,0,0,0,.08-.05l0,0,0,0,0-.07.16-.21c.13-.17.31-.39.51-.62a4.73,4.73,0,0,1,.79-.74c0,.09,0,.18,0,.26v.21a.54.54,0,0,0,0,.15,1,1,0,0,0,.08.17.59.59,0,0,0,.47.26.51.51,0,0,0,.37-.14.33.33,0,0,0,.23.16.84.84,0,0,0,.48,0,3.79,3.79,0,0,0,.45-.07l.35-.07a2.94,2.94,0,0,0,1,.41,8.69,8.69,0,0,0,1.55.12A12.74,12.74,0,0,0,20,35.86h0a.59.59,0,0,0,.37-.25L24,33.16,24,33.1a.5.5,0,0,0,.17-.15l11.29-16a.55.55,0,0,0-.13-.77L32.73,14.3h0a.5.5,0,0,0-.31-.1Zm-28.3,0h0a.56.56,0,0,0-.4.95.54.54,0,0,0,.4.15H23.71a.55.55,0,0,0,.39-.16.53.53,0,0,0,0-.78.51.51,0,0,0-.39-.16Zm28.43,1.29,1.72,1.21-.59.84L32,16.34Zm-1.22,1.73,1.72,1.22-9.44,13.4-1.73-1.21ZM4.11,18.62h0a.54.54,0,0,0-.4.15.56.56,0,0,0,.4.95H23.71a.51.51,0,0,0,.39-.16.53.53,0,0,0,0-.78.55.55,0,0,0-.39-.16H4.11Zm0,2.64h0a.54.54,0,0,0-.4.15.56.56,0,0,0,.4.95H23.71a.51.51,0,0,0,.39-.16.53.53,0,0,0,0-.78.55.55,0,0,0-.39-.16H4.11Zm0,2.64h0a.54.54,0,0,0-.4.15.56.56,0,0,0,.4,1H23.71a.51.51,0,0,0,.39-.16.52.52,0,0,0,.17-.39.54.54,0,0,0-.17-.39.55.55,0,0,0-.39-.16H4.11Zm17.23,7.83,1.43,1-2.05,1.4.62-2.41Z" fill="#ffffff" fill-rule="evenodd"/></g></g></svg>