<svg xmlns="http://www.w3.org/2000/svg" width="64" height="64" viewBox="0 0 64 64"><title>withdraw</title><g id="0d3a6f41-3577-4491-9dac-7cef39d2bc31" data-name="withdraw"><path d="M47.4,52.47l-7.94-7.7a.31.31,0,1,1,.44-.45l7.5,7.27,7.44-7.24a.31.31,0,1,1,.44.45Z" fill="#00b087"/><path d="M47.37,52.1a.31.31,0,0,1-.31-.32V23.5a.32.32,0,1,1,.63,0V51.78A.32.32,0,0,1,47.37,52.1Z" fill="#00b087"/><path d="M17,19c1.66,0,2.39,1.38,2.65,2.66H58.14a4.73,4.73,0,1,0,0-9.45H5.86a4.73,4.73,0,1,0,0,9.45h8.45C14.6,20.29,15.4,19,17,19Z" fill="none"/><path d="M17,19.67c-1.14,0-1.67,1-1.9,1.94h3.81C18.66,20.73,18.17,19.67,17,19.67Z" fill="none"/><path d="M58.14,11.53H5.86a5.36,5.36,0,1,0,0,10.71h8.35c0-.21.06-.42.1-.63H5.86a4.73,4.73,0,1,1,0-9.45H58.14a4.73,4.73,0,1,1,0,9.45H19.61a4.58,4.58,0,0,1,.1.63H58.14a5.36,5.36,0,1,0,0-10.71Z" fill="#00b087"/><path d="M17,19.67c1.21,0,1.7,1.06,1.91,1.94h.74C19.35,20.33,18.62,19,17,19s-2.36,1.34-2.65,2.66h.75C15.29,20.68,15.82,19.67,17,19.67Z" fill="#00b087"/><path d="M23.65,30.84V36l.13-5.16Z" fill="#00b087"/><path d="M19.24,28.64v6.6l.37-6.63Z" fill="#00b087"/><path d="M19,22.75V26.5l-.13,8.61.36.13V27.91a1.81,1.81,0,0,1,.42-.06l.07-1.34V22.75c0-.16,0-.33,0-.51H19A4.93,4.93,0,0,1,19,22.75Z" fill="#00b087"/><path d="M21.25,28.53a2.74,2.74,0,0,1,.81.12,1.64,1.64,0,0,1,1,1.35l.11,5.67.46.3V30.11l.15-.05v-.14a2.41,2.41,0,0,0-1.53-2,3.38,3.38,0,0,0-1-.16c-.32,0-1.08,0-1.59.05l-.05.76Z" fill="#00b087"/><path d="M23.65,30.84l.13,0,0-.75-.15.05Z" fill="#00b087"/><path d="M19.24,28.64l.37,0,.05-.76a1.81,1.81,0,0,0-.42.06Z" fill="#00b087"/><path d="M25.42,30.51a2.69,2.69,0,0,1,.81.12,1.81,1.81,0,0,1,1.07,1.54l.06,4.26.69.28-.74-4.4a3.3,3.3,0,0,1,.71-.08V32.1a2.55,2.55,0,0,0-1.57-2.16,3.45,3.45,0,0,0-1-.16,8.46,8.46,0,0,0-1.62.28l0,.75C24.19,30.73,25.25,30.51,25.42,30.51Z" fill="#00b087"/><path d="M28.05,33c.21,0,1.34-.12,1.54-.12a2.76,2.76,0,0,1,.82.12c1.11.35,1.12,2.07,1.12,2.15v9h0a7.26,7.26,0,0,1-1,2.8,4.45,4.45,0,0,0-1.09,3.17,12.13,12.13,0,0,1,0,1.6H17.84a7.84,7.84,0,0,0-.23-2.2c-.27-.82-2-4-2-4v0l-.05-.08c-1-1.59-3.3-5.44-4.44-6.87a39.37,39.37,0,0,0-3.4-3.59c.2-.43,1-2,2.34-2h.14c.81.06,2.09.89,3.5,2.27l1.23,1.21V22.75a5.08,5.08,0,0,1,0-.51h-.73a4.49,4.49,0,0,0,0,.51V34.68c-1-1-2.64-2.38-3.94-2.48H10c-2,0-3,2.48-3.07,2.59H7a.52.52,0,0,0,.14.59A38.19,38.19,0,0,1,10.53,39C11.86,40.64,15,45.82,15,45.85c.48.88,1.75,3.31,2,3.93a8.07,8.07,0,0,1,.2,2.15.54.54,0,0,0,.15.38.53.53,0,0,0,.38.16h12a.52.52,0,0,0,.52-.46,10.6,10.6,0,0,0,0-1.91,3.76,3.76,0,0,1,.94-2.68,8,8,0,0,0,1.14-3.15.22.22,0,0,0,0-.08v-9h0c0-.18,0-2.33-1.64-2.83a3.43,3.43,0,0,0-1-.15c-.32,0-1,0-1.57,0l0,4.48Z" fill="#00b087"/><path d="M28.05,36.71l0-4.48a3.3,3.3,0,0,0-.71.08Z" fill="#00b087"/><path d="M18.87,21.61a5.58,5.58,0,0,1,.11.63h.73a4.58,4.58,0,0,0-.1-.63Z" fill="#00b087"/><path d="M15.06,21.61h-.75c0,.21-.08.42-.1.63h.73A3.86,3.86,0,0,1,15.06,21.61Z" fill="#00b087"/></g></svg>