<svg xmlns="http://www.w3.org/2000/svg" width="66.42" height="63.05" viewBox="0 0 66.42 63.05"><title>x-ray</title><g id="Layer_2" data-name="Layer 2"><g id="Layer_3" data-name="Layer 3"><path d="M-226.38-51.82a1,1,0,0,1-.27.66.94.94,0,0,1-.67.27h-20.91v4.2h9.68a.94.94,0,0,1,.93.94.93.93,0,0,1-.93.93h-9.68v3.32a.93.93,0,0,1-.93.93.93.93,0,0,1-.94-.93v-3.32h-9.47a.94.94,0,0,1-.94-.93.94.94,0,0,1,.94-.94h9.47v-4.2h-22.17a.93.93,0,0,1-.93-.93.94.94,0,0,1,.93-.94h22.17v-4.19h-18.1a.94.94,0,0,1-.94-.94.94.94,0,0,1,.94-.94h18.1V-63h-13.6a.93.93,0,0,1-.65-.27L-268.23-67a1,1,0,0,1,0-1.34,1,1,0,0,1,1.34,0l3.61,3.53h13.2v-6.46a.93.93,0,0,1,.94-.93.94.94,0,0,1,.94.93v6.44h13.29l3.52-3.51a1,1,0,0,1,1.18.13,1,1,0,0,1,.11,1.18l-3.75,3.75a1,1,0,0,1-.67.27h-13.68v4.2h16.85a.94.94,0,0,1,.94.94.94.94,0,0,1-.94.93h-16.85v4.24h20.91a.94.94,0,0,1,.66.28.94.94,0,0,1,.27.66Zm-3,5.13h-4.11a.94.94,0,0,0-.94.94.94.94,0,0,0,.94.93h4.09a.94.94,0,0,0,.94-.93.94.94,0,0,0-.94-.94Zm-35.5.94a1,1,0,0,0-.28-.67.94.94,0,0,0-.66-.27h-4.45a.94.94,0,0,0-.93.94.93.93,0,0,0,.93.93h4.42a.87.87,0,0,0,.67-.27.91.91,0,0,0,.28-.66Zm9.18,5.13h-10.52a.94.94,0,0,0-.94.94.94.94,0,0,0,.94.93h10.49a.94.94,0,0,0,.94-.94.94.94,0,0,0-.94-.94Zm24.26,0h-10.51a.94.94,0,0,0-.94.94.94.94,0,0,0,.94.93h10.48a.94.94,0,0,0,.94-.94.94.94,0,0,0-.94-.94Zm-24.29,6.06h-6.44a.94.94,0,0,0-.94.93.94.94,0,0,0,.94.94h6.44a.93.93,0,0,0,.93-.94A.93.93,0,0,0-255.69-34.56Zm20.22,0h-6.44a.94.94,0,0,0-.94.93.94.94,0,0,0,.94.94h6.44a.93.93,0,0,0,.93-.94A.93.93,0,0,0-235.47-34.56ZM-216.58-79v53.08a5,5,0,0,1-5,5H-278a5,5,0,0,1-5-5V-79a5,5,0,0,1,5-5h56.46A5,5,0,0,1-216.58-79Zm-1.87,0a3.11,3.11,0,0,0-.92-2.2,3.1,3.1,0,0,0-2.19-.91H-278A3.12,3.12,0,0,0-281.13-79v53.08A3.11,3.11,0,0,0-278-22.83h56.46a3.11,3.11,0,0,0,3.11-3.11Z" transform="translate(283 84)" fill="#00b087"/></g></g></svg>