<svg xmlns="http://www.w3.org/2000/svg" width="64" height="64" viewBox="0 0 64 64"><title>x_ray</title><g id="be452b78-49bc-4611-93ee-e130f55d9894" data-name="x_ray"><path d="M53.88,32.63a1,1,0,0,1-.26.65.82.82,0,0,1-.62.26H33.46v4.13h9a.91.91,0,0,1,.87.93.89.89,0,0,1-.87.91h-9v3.27a.88.88,0,1,1-1.75,0h0V39.51H22.86a.92.92,0,0,1,0-1.84h8.85V33.54H11a.92.92,0,0,1,0-1.83H31.71V27.59H14.8a.91.91,0,0,1-.88-.93h0a.9.9,0,0,1,.88-.92H31.71v-4.1H19a.86.86,0,0,1-.61-.27l-3.62-3.66a1,1,0,0,1,0-1.32.89.89,0,0,1,1.25,0l3.37,3.47H31.73V13.51a.9.9,0,0,1,.87-.92h0a.91.91,0,0,1,.88.92v6.33H45.9l3.29-3.45a.89.89,0,0,1,1.11.13,1,1,0,0,1,.1,1.16l-3.5,3.68a1,1,0,0,1-.63.27H33.49v4.13H49.23a.9.9,0,0,1,.88.92h0a.91.91,0,0,1-.88.92H33.49v4.16H53a.9.9,0,0,1,.62.28,1,1,0,0,1,.25.65Z" fill="#00b087"/><path d="M51.07,37.67H47.23a.91.91,0,0,0-.88.93h0a.91.91,0,0,0,.88.91h3.82a.92.92,0,0,0,0-1.84h0Z" fill="#00b087"/><path d="M17.9,38.6a1,1,0,0,0-.26-.66.88.88,0,0,0-.62-.27H12.86a.91.91,0,0,0-.87.93.89.89,0,0,0,.87.91H17a.79.79,0,0,0,.63-.26.92.92,0,0,0,.26-.65Z" fill="#00b087"/><path d="M26.48,43.64H16.65a.9.9,0,0,0-.88.92h0a.9.9,0,0,0,.88.92h9.8a.91.91,0,0,0,.88-.93h0a.9.9,0,0,0-.88-.92h0Z" fill="#00b087"/><path d="M49.15,43.64H39.33a.9.9,0,0,0-.88.92h0a.9.9,0,0,0,.88.92h9.79a.91.91,0,0,0,.88-.93h0a.9.9,0,0,0-.88-.92h0Z" fill="#00b087"/><path d="M26.45,49.6h-6a.92.92,0,0,0,0,1.84h6a.9.9,0,0,0,.87-.92h0a.89.89,0,0,0-.83-.91Z" fill="#00b087"/><path d="M45.34,49.6h-6a.89.89,0,0,0-.88.91.91.91,0,0,0,.88.93h6a.9.9,0,0,0,.87-.92h0a.89.89,0,0,0-.83-.91Z" fill="#00b087"/><path d="M58.36,63.5H5.64A5.29,5.29,0,0,1,.5,58.09V5.91A5.29,5.29,0,0,1,5.64.5H58.4a5.3,5.3,0,0,1,5.1,5.41V58.09A5.29,5.29,0,0,1,58.36,63.5Zm0-62H5.64A4.33,4.33,0,0,0,1.43,5.91V58.09a4.33,4.33,0,0,0,4.21,4.43H58.36a4.33,4.33,0,0,0,4.21-4.43V5.91A4.35,4.35,0,0,0,58.39,1.48Z" fill="#00b087"/></g></svg>