<svg xmlns="http://www.w3.org/2000/svg" width="64" height="64" viewBox="0 0 64 64"><title>youtube</title><g id="7f1d5f0b-e575-4426-8411-017dabbecbed" data-name="youtube"><path d="M62.86,19.41s-.62-4.35-2.51-6.25A8.94,8.94,0,0,0,54,10.49c-8.81-.64-22-.64-22-.64h0s-13.23,0-22,.64a8.94,8.94,0,0,0-6.31,2.67c-1.9,1.9-2.5,6.25-2.5,6.25A95.1,95.1,0,0,0,.5,29.61v4.77a95.6,95.6,0,0,0,.63,10.2s.61,4.34,2.5,6.25c2.4,2.51,5.55,2.42,7,2.7,5,.48,21.42.62,21.42.62s13.24,0,22-.65a9,9,0,0,0,6.31-2.67c1.9-1.9,2.51-6.25,2.51-6.25a95.1,95.1,0,0,0,.63-10.2V29.61a96.9,96.9,0,0,0-.64-10.2ZM25.48,40.18V22.47l17,8.88Z" fill="#00b087"/></g></svg>